<mxfile host="65bd71144e">
    <diagram id="2W8_OhKjJFHPrhqFvWXH" name="Page-1">
        <mxGraphModel dx="746" dy="395" grid="1" gridSize="10" guides="1" tooltips="1" connect="1" arrows="1" fold="1" page="1" pageScale="1" pageWidth="850" pageHeight="1100" background="#ffffff" math="0" shadow="0">
            <root>
                <mxCell id="0"/>
                <mxCell id="1" parent="0"/>
                <mxCell id="10" style="edgeStyle=orthogonalEdgeStyle;html=1;strokeColor=#000000;startArrow=block;startFill=1;fillColor=#000000;" parent="1" source="4" target="25" edge="1">
                    <mxGeometry relative="1" as="geometry">
                        <mxPoint x="590" y="360" as="targetPoint"/>
                        <Array as="points">
                            <mxPoint x="438" y="358"/>
                        </Array>
                    </mxGeometry>
                </mxCell>
                <mxCell id="11" style="edgeStyle=none;html=1;strokeColor=#000000;startArrow=block;startFill=1;fillColor=#000000;entryX=0;entryY=0.413;entryDx=0;entryDy=0;entryPerimeter=0;" parent="1" source="4" target="24" edge="1">
                    <mxGeometry relative="1" as="geometry">
                        <mxPoint x="740" y="460" as="targetPoint"/>
                    </mxGeometry>
                </mxCell>
                <mxCell id="13" style="edgeStyle=none;html=1;strokeColor=#000000;startArrow=block;startFill=1;fillColor=#000000;" parent="1" source="4" target="12" edge="1">
                    <mxGeometry relative="1" as="geometry"/>
                </mxCell>
                <mxCell id="20" style="edgeStyle=none;html=1;strokeColor=#000000;fontColor=#000000;startArrow=block;startFill=1;fillColor=#000000;" parent="1" source="4" target="27" edge="1">
                    <mxGeometry relative="1" as="geometry">
                        <mxPoint x="650" y="555" as="targetPoint"/>
                    </mxGeometry>
                </mxCell>
                <mxCell id="4" value="Nodejs Server" style="sketch=0;html=1;dashed=0;whitespace=wrap;fillColor=#2875E2;strokeColor=#ffffff;points=[[0.005,0.63,0],[0.1,0.2,0],[0.9,0.2,0],[0.5,0,0],[0.995,0.63,0],[0.72,0.99,0],[0.5,1,0],[0.28,0.99,0]];verticalLabelPosition=bottom;align=center;verticalAlign=top;shape=mxgraph.kubernetes.icon;prIcon=api;fontColor=#000000;fontStyle=1;fontSize=14;" parent="1" vertex="1">
                    <mxGeometry x="390.5" y="426" width="95" height="68" as="geometry"/>
                </mxCell>
                <mxCell id="9" style="edgeStyle=orthogonalEdgeStyle;html=1;strokeColor=#000000;startArrow=block;startFill=1;fillColor=#000000;exitX=1.006;exitY=0.383;exitDx=0;exitDy=0;exitPerimeter=0;" parent="1" source="25" edge="1">
                    <mxGeometry relative="1" as="geometry">
                        <mxPoint x="691.96" y="360" as="sourcePoint"/>
                        <mxPoint x="780" y="430" as="targetPoint"/>
                        <Array as="points">
                            <mxPoint x="780" y="349"/>
                        </Array>
                    </mxGeometry>
                </mxCell>
                <mxCell id="12" value="&lt;font style=&quot;font-size: 14px;&quot;&gt;Naive Bayes Classifier Process&lt;/font&gt;" style="sketch=0;points=[[0,0,0],[0.25,0,0],[0.5,0,0],[0.75,0,0],[1,0,0],[0,1,0],[0.25,1,0],[0.5,1,0],[0.75,1,0],[1,1,0],[0,0.25,0],[0,0.5,0],[0,0.75,0],[1,0.25,0],[1,0.5,0],[1,0.75,0]];outlineConnect=0;fontColor=#000000;gradientColor=#F78E04;gradientDirection=north;fillColor=#D05C17;strokeColor=#ffffff;dashed=0;verticalLabelPosition=bottom;verticalAlign=top;align=center;html=1;fontSize=14;fontStyle=1;aspect=fixed;shape=mxgraph.aws4.resourceIcon;resIcon=mxgraph.aws4.compute;" parent="1" vertex="1">
                    <mxGeometry x="419" y="620" width="38" height="38" as="geometry"/>
                </mxCell>
                <mxCell id="18" style="edgeStyle=none;html=1;strokeColor=#000000;fontColor=#000000;startArrow=block;startFill=1;fillColor=#000000;entryX=0;entryY=0.5;entryDx=0;entryDy=0;" parent="1" source="14" target="28" edge="1">
                    <mxGeometry relative="1" as="geometry">
                        <mxPoint x="200" y="470" as="targetPoint"/>
                    </mxGeometry>
                </mxCell>
                <mxCell id="14" value="Users" style="outlineConnect=0;dashed=0;verticalLabelPosition=bottom;verticalAlign=top;align=center;html=1;shape=mxgraph.aws3.users;fillColor=#D2D3D3;gradientColor=none;fontColor=#000000;fontStyle=1;fontSize=14;" parent="1" vertex="1">
                    <mxGeometry x="50" y="438.5" width="66" height="63" as="geometry"/>
                </mxCell>
                <mxCell id="19" style="edgeStyle=none;html=1;entryX=0.119;entryY=0.652;entryDx=0;entryDy=0;entryPerimeter=0;strokeColor=#000000;fontColor=#000000;startArrow=block;startFill=1;fillColor=#000000;" parent="1" source="28" target="4" edge="1">
                    <mxGeometry relative="1" as="geometry">
                        <mxPoint x="309.03" y="470.09110723544654" as="sourcePoint"/>
                    </mxGeometry>
                </mxCell>
                <mxCell id="24" value="Mongo database" style="shape=image;verticalLabelPosition=bottom;labelBackgroundColor=none;verticalAlign=top;aspect=fixed;imageAspect=0;image=data:image/png,iVBORw0KGgoAAAANSUhEUgAAAfsAAAFfCAYAAABJBmUqAAAACXBIWXMAAA7EAAAOxAGVKw4bAAAgAElEQVR4nOy9d5wdZ33v//4+U04/24tWbVeWVSy5ysi2MI4xBmwwBMe0gAMhlcu9pN40cm/a65Wb5Cb5pVfCTSWJSTAQmm0wGDCusrHcJEtWL7vaXk6d8jy/P2b2bJFky6qr1bzto7NnZs7MM3POmc/zfJ9vEWMMCQkJCQkJCYsXdb4bkJCQkJCQkHB2ScQ+ISEhISFhkZOIfUJCQkJCwiLHPt8NuPCR4y599IUu/u3BPlqb6xC4iNKYegUm+5ElazDaQ4wBI1GXS4PRhtBRNPugtWEyZbC8Knp4mKZVy3jLpgN89ju9iDYIoBVgAKNQVrQs0AbRNmJpQGM0CAYswWjI1WrU0hk0wlTV4u5bX+bpne3s7i/i2CGIgO0iR/dg3DzS0g5BEB8IjBFEDPFeZ10BQ6VusXr5ELevd/mHB1ZRdY7giAMSbW3M9LWK3o9EexARxICIwrUVFc9D4v+MgAqFbK1KOZvCxEezRKMRjAFtKQrlCp7jMOJnuH7NUVYuKfOv9/Vhdaf5+Duepy8/eqY/+OOy40ATf/XF9bTm6xA4GDtEwhA9egC3aQXaVgS2QYUCKvr8TRidlWlyEVvBcBlxhTtff5AvPbac2zcf4lvbljA8kcJR0TWzAvBdjQptlAHPCnEtjWiFrwVlBGUUgR2ggVZfqFtQjT8CMWBpRWBpMGQR01quOu3Xrh1utzGtj23vaM/nwmZjdIsgzYgpYmgGaTZCWjCuMdgCthFcARfEBhSYwBg0IoEY4xmhBlIDUwGZxJgSMAkyKsKIQoa1HQwbX8ZFZNTAKIZhFVBhWRY95iG1ABCM0vFXRxGIpsUXAlFMWRpLNBiFr0O6Uq3YWByuDuEqB1QAJotWAW7goxFEbMRO4Y3vRmlBda4krHtIEEJHNvqNlmqMlDPcteUA5ZrLg1uX0ZLz0WiUKOpiKJQrhGTRykG5mnpfZuZrnnDG+I2bHzrfTbigScQ+IeHiwAZ6gHXAaoNZq5VZJtCO0A7SXsz6ndtebsMIFAs+Wgsi0x00afRrJf5X5ryezcw6RGatl8ay2WgM+HbciQSBYYRBYzPIeH1AfHMIYReGPcCLwACgIeonH7+7nZCQMJtE7BMSFgkyo8ftwCojphe4zjJcMWmZ1Yi0ChSnNzbzhp7aCCk3jP7W51hCZU5b2oF2FJdRCUFJ4+QENY5hEHhRkGd94XuBcEBgDzB+bhudkHDhkIh9QsIFyDwp7hbhljBUm8TIGhE2GjG9BoPEUyf6hKPwBYwBrGNa3Bw/1lhG3lW2og0tIztBPWMMO8E8CjxCIv4JCQ0SsU9IuMAwsEILqzHyRiP6llCxWhnp1NOuEMd5z5kReXOcv04OeYVXp4PM/LEGZI0IOGIzEZSOiGGHo+z7gYeAl0FGL7DuTkLCGSMR+4SEBUrKDSN/SUsjwjLgnUZ4vcHcFti0yjxll1PUMa1DtAnRJkBrjTYhxmjAIKj4GJHD5MzfjaO+wp5ndw5M/HJ68sAQJfSKeihKLJRSiFgosbCUjcipBQsJQmjCHgM9SsktkYVDvQz+10E/CvwXyag/4SIjEfuEhAXK0FimVzC3PrB16fsqNecKS5lOmCu1rxWtA/ywThB6BGEdrQNcJ0fKyZFxm3CdDI6dwbXTpNwCuVQzGbdIys2RsnO4TgbXzmJZLrblYlsOgoUS1XDmM0ajTdRpCLVHEHj4YR0vqOL7FWp+mbpfolyboOpNUvdK+GENL6ji+RXqfplKdYIgrMfHcLGtFI6VOukOgMy6SlH/RFZDsFoZPhoqdcBgnrCM+bQRHkGHg2g59d5SQsIFQCL2CQkLBSFyRoN3ai3vuP/JZR+wLJ0dL1m4jkbJyRnPjdEE2kdrH61DTDyKNkaTSRXpbF5FU66bYraLYq6DQqaTQraNQqaDXLqVXLqFdLqZc2by1j7l2hjl+hjlyihT1SEmqsOUKoNMlI8yVRlivHSEsdIRvKCKJfa0sx5KWVjKwVLOrMiBExF3RoQVICtC0e/G1A9JuukzGL5IGDx01s81IeE8kYh9QsJCQMkKKsEPI8FdWNYVYgRlaQDSsYf8iRCEUPvU/TJ1v4ylHPKZNjKZdppy3XS2rKK75VI6in0U8t3kUy3k0i2I5Z54pybK0xC/mPM0b8NXbNkrL4pfKJtctpNcthNajn1L4Jcp18Yp1UYYnzrM0MQeBsZ2MTS+j1J1iEp9gsnKUQDSbh7XzqFEHRNtcFzCYJlkm38O+Dntew8j1qcwfB4l48n8fsJiIhH7hITzyxUIH0T4mAQ63/BANyeWGmMMofYbDz+okUkV6WnfQHfzajpaL2Vp61qWtK6lkO95hUMb0MFZOKVZ+3/FRdOdCH3sdgAIKBvbydHk5GgqLGVpxxUzq7XPyMR+joy+RP/YSxwd3cngeNQR0GGAY6exLCce+Z/gVicCOu5MibpRMDdiya9TDf4GCf8BxcBrPOmEhAVJIvYJCecBgWuM4ePAe0VJNloYO8AdRyNFhCD0qNQnMDokl26hpbCM5R1XcMmSzXS3raO9uJJMev7Q2MC0I9wJRXWhYkD785ZNz61HHYG2ltW0tazmct4OwGSpn5HJvRwcepaXjzzB0dGXmKqOMFUZwnUyZNwiSqxXHvXb0kvJ+x1R5uMo55+05g8zqXA4CMNzn38gIeEMkYh9QsK5wMSJfg3dGH7ewM/Bq3mbGbQO8cM61fokmVSBVd2vY2XXNVzScz193deQSjXPe4+OR+uLVZSmOy8c2ylSDsX8Eor5JfT1bOGmK3+SyanD7DryOHv7n+DA0DaOjGwHo0m7RSzLQYl13ENE8f3Sg5Zfzij50P6Bwh/VA/WnKTf0zvIJJiScFRKxT0g4B4hYBJb5GRS/oIz0nEiLJaoiQLU+iR9USbsFlrStY/2KN7K6ZwsrO6+cN9duwIQzAhjv5aJkthVAFIhFsbCMTWuXsWntXVRqYxwcfJqXDnyHHYe+xejUITy/SiZVJOVk41DAeYihmPN7ntrZ8fugP1zI+L9utLr33J1UQsKZIRH7hISziQGjZCOty/5EW+qWV4xKN5qaX6bmTdHZfAlrlr2ejX23s2rJZhwnO7PhMabthGMweta0hQFRZNMtrF3xJtaueBO3VofZfuAhXtj3AC8feYyxqcPk0q3YduqY0EathYwbAGwMNJ81Rv+dJfKrwOA5PquEhFMmEfuEhLOKfFSEP8K208ebM4/m4n0qtXFsy2Zp+0Y2Xfou1vfeSkth+cyGRkcj+IRTQCLLh4k7Scomm2ln09p3s2ntuzk0+CzP7f0K2/Z8lZGJfYhYZFNNiFgc34HC/JgxvMXAfxPhK+f0VBISTpFE7BMSzgZG0qjg70V4fyQ2x3eOK1VHMUazdtmNXLvuLjb0vgXXyUcrtU+jHHDCmaMRgWBAbJZ1XsGyzit4w8YP8/jOz/LMrv/i8NDzZFJNuE6O+YIfl15egdFfBvVbYsyvy8mE+SUknEcSsU9Y1BgDmdTZDC+bSyYVYrSsMvBZUVx17BYCaCr1SULtc0nPddy48Ye5fNXbZjU6nNU5SIT+7CHxtQ5B2eRzS3jT1f+DLZfdzZMv/QePvfBpjo6/TNopkHJzx87pi6CM+bW6665GWx9RmsR5L2HBkoh9wqLGtgyHh3OQCs6ubsZ5348MZy9zbP1FEVbN30RECMOAqeoQXS2XcuPlH+G69e/DttLRBtojEffzxKzRfibVzE1X/DjXXPJOHnr273hi+78zWR6kkO1sbDONGPAd5wOidTFVV3cKnLueZULCayAR+4RFTT4dcO8jfegJ/3jlUs8MBlRg0NqsUhb3N+X8ZXMHgVHwfLk2hiBs2fBDvHnTT9OUXxKtbjjcJUJ//pHo8xBFPtfFHTf8Kpf33cZ9T/wBOw99h7R77ChfGYMRc4dv+V91sN+OEi/6yJMpmISFQyL2CYsaY8CxNcYJz67YQ9agvyAiy46N4NJMVYZpb+rl7df9Epdf8vZ4ceJVv2CZ9uYXYWX3Jn7iHf/Cg0/9Gd985m8o18bIpVvjyoARgmAsc6tnh/8s9fB9xkx/15K5/ISFQSL2CYsfEcR2zo7Yaw1hgEHuEZGNcw6LoE3IRHmAdStu5q43/DbtzbF1PxH6C4PYi1+Uw63X/gwruzfxmW/+AmOlIxSyHXO3VYIJzXvlUPl7BM7vYhSJ2CcsFBKxT1jcKIV4dcy+l0BxZq2qAUhTM7T0/BTi33HMauNTKg9zw4YP8gNv+D/YlhvPDScCcMGhPRCbS5e9gZ98x6f59IM/xYGjz9GU65yTejcqp2t+BzEPgHk6+awTFgqJ2CcsbpSCMISRqTMv9h5gSyutK34dZo/Uozn6qfIQN6x/P++9+Q+ixclo/gJGwARgFO3Nl/Dht/wNn/rqR+gf3Ukh08FcURewgz9DqdebZMo+YYGQiH3C4kaHYNvQ23fmzfgajJv6bQnqrfNXTVYGuWb1O3nPG6eFPvG0v/CJqxTpgObCMj7y1k/yt1/+EGOlw8fO4QtbROv3S8i/Jx97wkIgEfuExY0xGGUhxTYsy8Zoi5k67aeJSHuogw8Q+nEltohKfYyOpj7edeNvIKLiEX1yx188GDABrU293Pn6X+f/3f+ThNo/tqiO4b+jTSL2CQuCROwTFj/GIIGH1iHCqxSaew1ozB0iFGcLvTYajOG21/0shVx3YrpfrBgDolm78k1sXvtuvvvCv9CU65q1HrRwo3L1FQrzrEkUP+E8k4h9wkWBxmCL4tJsH46yI1E+DSxR7Krsf89UWMaWmZ+R71fp7d7ElZcc46+XsNjQISjF6zf8EM/t+xp1v0JqVsEiITLng3k2kfqE800i9gkXBYKg0Qx6ozio6YR3p74/EQId9Kp5Jemr3iSX992GKOeE+fATFhOa7vYN9HZdzYv7vzFH7AG0Vps4g9akhIRTJRH7hIuCKKGZYcAbhtBEeU5PAwNF13byFlYj9EqbENtO0d16abxRUqVu0WM0iGJp22VsP/DQMau1McuSTHoJC4FE7BMuGgTBUQ6EIBYE2iMMfURO6UbcjbGLs+/hoQ7IuAXSTuFMNTlhoRPreC7Thkx76zOTPc8Wp4hKRvYJ559E7BMuOowxoDVdrX34YQ3Pq0Re868BESlVvXJNh0HjvbZyKNfGKNdGz0azExYisa7XvRLz54W0DinkurKZVMEOdZgUyEk4ryRin3DRISL4QRULh3fe8AmMAh28luqkguNkKp97+De9QyMvkE01x/tVhDrg4NCzrF35psh8kJjyFzmR2h8Z2R47fc6YegLt01pcptqbeqn7lfPUvoSEiETsEy5KHCfNnsPbyKW6aGvrPZVdNC9pW5fdP7SN2abbtFvgpcMPc8vVH0NZqUTsFzUGxGJ86iAHBr+HbTmNNYJQ80qs7LraW7fiZl2pjZ3HdiYkJGKfcJEiCJZl86n7f5QffOufsKRlLZ43ddLvt+0MyzuvZOvOzzF7NOfYaQ4MPMO23V/k6jXvZu4cbsKiIk6i8/j2f2docj/FRr17CLWPa6VZ1bO5tKTtMp10+hLON4nYJ1y0ZFPNDE3u4x//60OsufROQkswJzm1alup/Ov63pTtal7FaOlIVOQGUKIwGL7+9F+ybsUtZNKtSWKdxYpY9A8/x8PP/xO5VHOcsCnq3JWqo6xbfhPdLZeWqvUxgvC1TBMlHI9CtuvVN0o4IYnYJ1y0aBOSz7YTlMd4cfcDWMUuTFCPvapfGS+suW+9/COTV6++I/v5R3+b1vyyRgheLt3CwNguvvDd3+T9b/oTUE4i+IsKA8rF86e49+Ffo+pNUsx2NnLjax2AwOZ172Gk1M/z+79J2s2f5zZf+Ny04YfOdxMuaBKxT7ioMUbjujl8fwLlZXFSLWj96ibXIPSCgYm9A5vXvb/7oef+nqo3SdqdCbkrZjt44qX/IJ9p444tv5YI/mJCuYRBjX954H+wp38rhWxHQ+hFFJX6CKu6r+XKS9+lv7T1T+1HX7rXbs51Jd74p0ki9qdHIvYJCVgEJqDNr2FlUoyZGtarp9ezH9v1+c61N/9ecMuVP2Hf+93fJOXkZ8XsC7l0Gw9t+ySI4o4b/lci+Bc8AsrG88vc882f5/l9X6eY60ShYquOEIR1QLjj+k9gINg39FwFJa6na4nYJ5xXErFPSMCACJbY6Noo2naxxOaV8uk6VkodGn3JHZzY59101Uft3f1P8Nze+2nKLWm8z7FSqHQrDz79l0yWj3Lnjb8ZzeEbHdVGTxz3LhAisz3A4NguPvPQL7Cn/0mKuU5EZmVQ1AGT5UHeeu1Ps3LJ64IXDjykD47u6GnJddXOZ+sTEiBJ2pxwFji1hHTnHyMWXm2QwB+OwuZeSeztdFCujhe//eK/KaB0542/QXtTL6XqcGPO32BQyqGY6+SpXZ/nk1/+MAeObgVRDfFIWOhI47N6ZtcX+NRXPsK+gadpynUjYjH9HRFRTFYG2dj3Fm6//pfA6NHv7rxXZ928C5IUSUg47yRin3AsIlFFr1Mo5CJiUAKnOmo93x0FUQ5BfYzQr8Y38xNhKGbbePbAN9x9A0+NNxdW6A/d+ucUsx2UaiOzzPkGS2wK2Q4ODj3H3375wzy49U8Iw3pk1lfOKxwj4byiHFA246XD3PvtT/Cv3/g5xsv9FLId8Qam8Tw2dZhVPZv5wC1/DKjg0Z33VvYPv5BNOTkPTHKfTTjvJGb8ixhthHzGx7Z0VKsj6vwV0WERN92M7bRiTDvQHD9agCLQGr92ib5DLmCnHe0eHW52P/O4skN3RDvR1yuIHx5Qix+l+DEZP0aAUWAw1GZ41vLJeDuUPr3CNSeLiI0O63iVg6SLfa9YGU+J5Yko975tn8r/SOva8WVdV7fefeuf8o8PfIxSZYR8tg1jDAaDIBSyHdT9Ml954vd56dC3uenKH2dj322RqJgg7lxdoGaRxYRYIIow9Nj60n/yrW2fpH/sJYrZTizlNJzxIMrGODbVT9+STXzozX9BNtOqRyb2HXjw+X9qda0UNPLlJyScXxKxv8iQSNXzwOq0G/Ru3dmxenQqvcS2TA/QDXQT+N00dzcLQDjtmR6JkMwatc+VJcGywPNd+muGjOujjJp1m5NZo3aZ+2yi26ExmnoASpQ2xgwDA8ARI+ZQPeUMAAfB7APZB+w8znmdAQyibMKwSuBNYKVa4QQx0gajsm6BAyMvFL+49U8P3bXlE3Zfzw3FH739U/zrgz/D0fHdFLOdqHhe1xhNys5iWy57B55i/+A2rlr1dq7fcDd9S143c1kSJ77zwywrywt7H+A7z/89uw8/gqVcmrLdiKhZXveCH9SYqo6yYeUtvP+Nf0gh10UYegNf2Pqn6bpfaS5kWuMUuhcCMqs+hGk4HAJoo5PUUIuAROwXN1mgE1gNbAaurKTTq4zQDqYz45rsUzs7SLshjq0xJv45i8ApiKcxoJQmo4A5Qn/yxC1QItIJdApcgYJa2kFpM71+VKMGgSNgnge2hUo9bUQGtGbAtUOy6QCtT/X2JAiKeukQWSOIW8ScMAOaUMi0q+/tf7C7q7n3yI2XfUAt77om/9F3fJp7HvolXjzwTYrZDmzLbYzylVgUMu1oE/Lkzs/y4oEH2dD7Zm5Y/0FWLrl2RnS0R3KLPdvMON8FYY0dBx7iie33sPPgtwlNSD7TPndbovn5mjdF3S/zho0f4l03/hZWlFRp9D8e/R21a2Brd0t+yRwLwMLEAAqxHDAhYVCL6jt4HrpSAquOODYrnR5mvBMSLlQSsV9cZDFsQcxGYL2Ba0VkIyJu7HCOVqoxCp4248Mpafs5ZZ4ZvzV+rBORWyxtqKbTAMNZJ9w6MJZ72tPO9kwq2IpK7eBU7rlioQlJT/ajW/LULQs5geBbyiLt5tz7nv1Uj2tnDm1ec6duKiwvfuT2v+O+J/6Q7zz39whCJtUUj55i074omvPd1P0yT770n7yw72usW/F9XHHJHWxYeStqthOfDkhut2cIEZCZW1+1Ps4Le+9n687Ps3fgSbQOSLsFsnYqqpA4/TaE0ARMVQbJpZp53/f9Lpsv+2C00jB67xP/t/LMgQd7mmfF3S9ElAj1wMaIRcaq4leGCQkIvHEkNBhSiG9BWEaUS9YCB0En378LmkTsL2yKQK8IbzGGNwCXichqiZ1/BTlmYHjmzN0Li/g02zOp8LaDw4Xb9g4IhaI3qSe8nQbzrLHUV8XwCHDk5O5ZBpSNQeNXhyDfeeItjcG10xhj3C8+/ZfLAu0f2LLuvdqxs83v2PK/WbVkM/c/+f9xYGgb+XQbrpNtiEH03iyunUWbkO/t+iLbdn+Z5R1XsqHvrVy16nZam/pAxT/VZG7/FDGxxSS6bmHoMTDyIk+//CV2Hfo2h4ZfwLbS5NJNjW3mCL0oKvVxPL/MhpW38vbrf5nutsviXZuB/3z0d4Kt++7racl2LVxnPBGwXCZLhk2r9qD0OI8+20XOHidQILYDhIgIoixQNiIWYXwbWbjdl4STIRH7CwETebhn0wFEjnE3IbwR5J0Iq6ZHfIbT82Y3RkePeH552uzcWG4MBh3fBM2s5+joM60AGgFowkyfQ6LlEj9Qx/yNKCSeP4zWqZNKXzuNNoJrh7g2aFQRP7xW4FqU+hEjVMA8jOKLwFbgsVfdoYBXHUXcZpx0FnOi+XtjSDlZQNyvPPPXvUOTBwfu2PRxLMtt3tD3Vnq7r+Gb3/trHtn+aSbLR8mmm7HmeeIrsShmOwm1z4HBbRwceo6Hn/t7Vi3ZzPoVb+SSnutpLiybq/NGJ5X1ToSymd8p6h95kX39T/H8vq9xcOgZqvUJJL7ualbM/GyCsE6pOkpbcTk3X/dL3HjFjzb2W66N7fvc4/83/cKh7y5ryrYf896FgrFsVKiRqRGmKiWa3JfJ2JpqtYV8s4s0ogOTTuRiJRH7BU08R2hbzeWa9bavP9XzDoHNKFl1ug4zoQ4IwjpB6BGEHsaE2FYKx07Hzxks5WBbLmk3TybVRNZtIuXkcJ0srpPBtTNYysW2XGzlIEohKJQotAkJdYA2QfSsw/iYHnW/TN0rUfOnqE3/7ZXwg2qjPYGO2uYHdYzR0TEsF9tKxaVET+LsDcRxgNNkBd6Cbd4CAkY/gphvA582mOctsQgb2dCmEZRy8Oqj2JZB4rn34x7OaFJ2Gtuy7cdf/uKy4alDA9+/+WcPtRdWdOcyHfYdW/43V1/6Dh58+q/YfuAblPxRCpl2LMtu7DOKzbfJZyJP/iCss233V3hq5710tVzKis6rWLVkM6t7rqOluDKaK5ZZg8mL3blvXgcqCKoMju1ix6HvsG9gK4eGnmN08jCZVB7XzpLLtM3JizCNiMLzK5RroxRznXzflT/GzVd9lOZ8z/QmtR0Hvztw/7N/lz06ubezJd99wu/F+cNE0SWWTaoyDlNDBJVRdLqIF7ooActauIaIhDNLIvYLjMhlJppDN4YbsdN3qvald/sBnbuPFMmlTz7rpjEGY0IMpiG0QegRao+MW6Qp10U+004+3UY+204x20lTrpNitoN8uo1cppVcqgXLTqHEQim7UdbzzJxsiNEB2oRoo6nVJ5msDDFVHaJUHWGqOsxkdZhSOVo2VR1msjzIePkoYHCsNLblYikHkaiTIXIyN6/pyAKzBcMW3+Z/YtQj1bD6zwH+A5aoA3P0XtkYbwLHm6TevgHR9RNaUEwcV9+U7WD30e91/+NDnxh908YfGriq761FoLi04yo+9Na/4fk99/HY9k+z48C3ERGyqSaUspjdiRERLHEoZNowGMbL/Qzu3M1ze+8jk2qiu3UNa5a+nmWdV9JeXBmN+o+J2zfx6H8xGWElnndXHK/TNzS+m6Hxl9k/8DS7+59kaGIvtfokflgjk2qipdBz7C5jDIYw9CnXRsmkmrhu/fvYsuHDrOi6urGNDr3B7+z4TOWh5/+lPUTnmzOdC0voJbagKRsTeNTro6SmRhCvjrHdV8kfkbBYScR+gWEbWivKfAjhTtuomwQBBcqYkxB6IdQ+nl/GD2ooZZNycth2iuZ8D13Nl9DZfAltxZU05ZfQlOukkO0g5Ta9xlbGN7bGDe7VbnQy78/oZoRYiGVhARbgOHkK+ePfiHVYZbI8xERlkFJ1iLGpwwyO76F/dAejU4fw/Co1v4IXVLGUQ8rJ4tjpkz0h2xXnptFg4iaBQVucrxjMJ4FHIjkxiHLQ1QkkGMWyi69YLGd6hNiU7aRcH2/9j0d/t7ir/8nBmzfcXepo6m0H3I2rbmPjqtvYvv9rPLb9HnYffoRSdRTXycQFdWbis6f3l3GLZNwi2oT4QZW9/U+y48C3sJVDR/MqOppX0d16Kcvar2B5xwYKuW6UcuK48Xk3eHNqSZPOC3Hc+/HQQZXhyf0cHt7OoeHnGRrfzcDoToYnD6BE4TpZLOWQThXJSvPxd4+gTUilPk6oA5pyXbx+ww+xef37Wd551exNS3sHnxl94JlPuvuHX+jNpZtJK/e4pv/zhyAIxmjCyiBedYJA19DKxbKcE4aRJix+ErFfOKwC3q+0+bgndIsCZeIb/QnvJdG8uTYhnl+h5pdIOwXam3ppLSynq3UNPW3rWNq2nmJ+CWk7N+PoNW8/kbf3OeCU4vEUysrQXFxBc3HFnFWeX6ZaHWFg/GX6R3cyMLKDwYk9jEzsZ6x0GFtF0xC2lQKRE87/RyNyBVGo4g8L3K0wD3nCn4TwJYXNeNnmrWueZLByNc/t6yKTqr7qyabtLI7l2s/s/0bPvsFtk9evuWvwdavvSKfdfCug1q98M+tX3sqew4/x9K7PsePgtxme3E/azZNy8qh4lDYbJRbKsrCtFOlY/EenDtE/uoPn9ipyqWbSqSaK2Q66W9bQ1bKa7pZLKeSXUMy0kk21gjpOByBu87GdODPr6XSFTWY9zcu3cJxzbbRKe0xVhpmqjTAxdYTB8ZcZGNvFwAgmqAAAACAASURBVNguSpURat4k5do4SinSboGmXCc06ssfH4PB6JCKN0mofZa2rWf9ijdx7ZofoLN1zexNa+PlgdHvbL/H27b/wdaaVyo2ZTtYcAlzRKHcLP7R7QTjB1FtSzA6QKxU4l2XkIj9AmCNMebjInK3WNI8bcY/kcYLQqA9al6pMZedTbfS172Zvu5r6G67jJ7WNRRPMEKOhD1kQd2kXo3jmaFFgVi4Tg7XydFUXMHaFbcAEPglDo3s4OjoSxweeZH9A08zPLkfP6ihTUjKjnwOXkUMbGXk1imLWyF4xNbmLwLt/GtbocJYZZBQL1GcRKqR6bj6YqaNWlAtfvWZvy5uO/D14etX33no2lVvTaPsVhB71dIbWLX0BoYn9vLSgW/y7J77ODz8AhW/DBB3WNLHaa9BiSLt5km7eYwxhNqnXBthqjLIwaFn0TpAG00h20FLvoditotitoNirpvWfA9N+SXkM23x1E0LcqK8/Wfbd0t7TFWjdk9WhpksDzBW6meqMshE5SjjpX7Gpg5T9SYb00pKLCwV/d2U757XmZt/rSJx9oIqdb+MEkU21cLG3rdwxarbWL/iFtKpOVauoO5NDTz+8n95j+36QnG8PNiTSzVTzLTHo/mF8BsygBVZnsIKtdJh9FQ/JqihlIPIdDsTx7uLnUTszwfR764V+FngpwQpnszb/KBGqTZKxi3Q3bKGZZ1XsGbpFnq7rqGYXxKZbKcxYeylvUh/5K8wD207eXq7r6W3+1oAKrVRjo6+xPaD3+bg0e9xdPxlxqaO4DpZMm7hFef5FQKEW7RiS1hI/fihocJvj4yWv66oDiOWei2mcNfOkHJyDE0caP/C1j+qfW/v/aXrLv3+Q2t6Njen3UIesNub+mi/vI/N697P4eHneHbv/ezr38rRsV2MVQ6RThVIO/kTtllEsC2XKIPxXILQY2B0J4eGno+neSzSTp6Um8e1Mzh2GsfOkEu3UMh0kM+0kHJzpJw86fiRcvOknByWsuOICYUSq+EzgUz7ikRRHKEOMWbGMdMLKtSDCrX6FNX6JNX6JOX6GKXqCJX6OH5QxfOr1IMqnh85bhrAsdI4dgrbSlHMnjgM8kRoHVD1JvH8Ks35JazovJJLeq7n8r630tWydn4Yy+RE+WjtuQMPVZ7ec3/x6OTebtfO2M25rka0yoJBLASD9sbxaqOExkeJIEnNhYR5JGJ/rolugj8ihl/ByOoTa3EU2Vr3ywShhyC0N/dx3br30tdzPZf2XE8qNW+u/Zh52EUq9K9GwyM9qj+eTbfS13MDfT03AHBw8Bn2D2zlxf3fYP/R7+GHUeawlJPHVs5xbubRdSwUgpu/9eyym8XU/jabG/yyUksntfbTr0XwjdHkUs2EJkgfHtuZvufR325f1rp24MreW2pXrrglyGXaugHlOFnVu+Q6epdchw6q7DryOPsHnmT3wFYODz+P79cwaESsKIJCubOK7xyf6YiGmbYYtAnwgxqeX0GbMBazxhavdCKRwCsbJTbKsrAkcjA0RqMJ0VoThj5aB6/yVZxZqcRCiUIpC8fOknILryn0knj+PQhr+EE9ni2IHCAvW3ELq3o2s7LrWlZ2b5r/Rg3Uhib2Djy3/xvu0/u+4Y6VjvS6TppCujUKy1tQPg6RzwvGoGuHCeujGLIoJ81F+7tPeEUSsT9XGA2Ou1Fal/0+YXAbcMLfpIhQrU9S86ZoKy5nZffruOqSt7OyexPFbNfMhhd7mNWrYo69RmKxvPMqlndexfWX3U3/8As8t/8Bdh38LodHXkTrkHymdU750sbeNLi2BpyfCLyJD1CxlZVui2qav4ZY92nTfsYtkBVhcHJf95ee+vPgiV1fLF3StWngmr43q66WS/K2lXKBtLIzrF1xM2tX3Iznlxke38O+gafYPfAEg2O7mSgPMFEZQIjM+a6dOamohGlv//nx/iePaeRiwEAYX4No5l1hKYVtua9RrE8NrQPqfoW6X8JSDk25brqaL2VJ+zouXXIDyzsvp7XYizR8Vhqm7clKfUIfGdkx+tS+B9IHh55vHi4dac2nm2nKdcwJiVxIGGVjBxN4lWHCsIJSKZLiegmvRCL2544PYcufIekix/Hkjubifep+mTCs0926jitX3c7ll7yd7ta1s7Y8h850i5FZ0xu2nWZ59yaWd28iuKbMtr3388yu/2LXkUfQoYfjZHHtzHF2Ihh03qsMYQUV3GwXYqUwp/C5GGNIOwVSds4erww1P7n7y8Wn9t1Hb8fGI+uWXJe+dMnmwbbiik4gDeA6OXo6Lqen43K2XP7D1Gqj7B96loGRHQyM7uTo2C4Gx/dEc9LKilsbjcCn57bVGQu9mk6IxDkYTJpGroYod0PkdxKFqGpy6WZ6uzfR2byK7rZ1LGu/jOXtl0fOacdv++i+oecq+wafYfuhR+gff7lXEGUph5Zcd3TEhRRON01sTalXhsAfjgQ+CaVLOAkSsT/bGFxU+EnEfCjylTneCFAo1UYxJmRl1zVcu/YuNvbdNlOEI8mLfhaYO+q3nRyb1vwAm9bcyb7+J3l8xz28uO/rUf3yTHujkM0MClEQeiXqYR0724XtFjGn5PxoEBEybj7aMbBv8Lll2w89SlfTyuHultVqw9LXs7JjA825rjl53dPpVtYuv5m1y28GoFIdYqJ8lMHxlzk6+jJHxnYyNnmQqjdJzStRqY03whOnExRZyolzFSwM868xOs4H4ROEPkFYwwBpJ08mVSTl5smmmulo6mNJyxq629bQUlxBS64b153t/jL3c/CDKpOVQXYNPMWOw4+5R8Z26YnKUHs+3UwudfywvAWDAaVcwrBEbXKQ0K9hu3FEhUk6/wmvTiL2Zwnb0hikG7hHRN90/K0Mnl+l6k2wovMqbrjsg1y75i6s6fjwJA/6uUP7RHdUl94lm+ldspl9A1v57vP/wPN7H6Ban4xS3Io9N9OastGhj186AtkAO9WKIZwVvnZqRDH1BaZqY+2jBx/m5f6t2HaKSzqvZFXnlXQ09dLbccUx8efZTAfZTAdL2jc2loV+hZHJ/QxPHmRk6iAT5X4mK4NMVQYpVUYp1UcoVUfR2m8428FMqmKZTtIi00mPpeHQ9mom+sa1mjb3N0z/QCM18/SyEKM1jpOhkGknl26lkG2nkGmnmOumOd9De3E5bcWVtOR7jpNAaD5C4Jd5eXAbo1OH2Nn/JIdHd0aZGbWXT9u5fFu+Z8GZ6OcjKIwLfjBOMDFEGFaiSnWikjFAwkmTiP1pUqoe/4ZTrtkbbcUXBemdv05EEYQeU5UhOptXcdvmn2PzuveTcgvRBnNG8onQnztkZrQvquHRf2BgK19/+s95Yf+D2FaKXLpljrOWKBuMwasMoHWAm+3AoE9T8KP3pp0caSfXqEuw/fCjPLX3AZoybXS3rKaQbuGSzqvp7bycbKqZzHynTcBysnS2raezbf2c5YFfplKfoOpNUq1PUK6NUa6OUqqOUK6PUa1PUPWmqNUnqfkl/KAeh/FFjnw6rpkQR6zP+spKo0OgUIhS8bOFpWxSTpZUPErPuEUyqSZy6ZZG+F8mHaVmzqSKZNPNJw4FPOaSBZTrE5Qqo+wceIpDIy8yVRvj0OgO6n6VXKoJx06TUg5pycdXeeGqpdZCLciQs6t4wTABUyjfRznuAm51wkIlEfvT5I//fTqNpoBosAPArNJGvtxUqK843nsq9XHC0OeGy36QW67+GO3Nl0QrEoe7hcN0gRnlsqL7Wn7kbf/AI8//Ew8+/aeMl4+Sz7SixKahcCKIUQTVYZQIdqYjdto7M7flaG48dupzi/ihx97BbWgd8tKRx3GsNNlUgVWdV7KkZTWZVJH2/FI6m/uIZwaOwXZyFJ0cRU6cPraR0hiN0SF1v4If1AhDj0B7BKGPQWO0RqNnFTGKPOotcXBsF1u5OE4Gx0rHMfIqmo44qfTGJ2iartM/voex0lHKtXH2Dj/LoZEd+KFH3StTDyrYVoqMWyCfalnQwj4fY4R0GpbnD7Fnbw2drqEyGZCk6FHCqZGI/WlS86YvYSz22jQDX7bErLDUHIMvxoSUqiO0FVdw+3X/k6tWvytadSGlLr2omDXSVw5bNn6I9Stv4SuP/Q5P7foc2VQzrpObGeXHZm+vOoQRhZNuOyWnvVfDYLAth4LVChDXFgiZrI7w5O6v4oU1jDG0F3roauoj4+ZJuwWWtqxhSXMf+XQrrp3GsVKI9Sqj5lkpjbGiHAbnkjCoEYR16kGNqeowh0Z30j++Gy+oUa6PMzC+h/HKEJZYUa4AK4WIkHKypN2Ztl5IQg+CEZcMh7hh1ePs2L4WJ3s8R9GEhJMnEfvTZLIc3SyzqZBsxlfGCu8BWQccI/QT5aOsWfZ63vN9vztrNO+RmOovAOLPqaWwjA+++S/obrmUB57+c7QJSTuFGTGJR/h+ZQhLuSg3HzvtnT2UWCBgYeNYKbJETmpVr8zO/icJQg8lVpRlz8lhW1HhoNb8ErqLfTRlO8ilm3HtaNSdTRUpZFqjTIN25gQpls8A2qfuV6h6JaZqo9T8MlqH1IMqpdooY6V+jozviZxXMQShH00rxFkFHeWScrK05pawOCavDYiNUjZeaYi6d5RKPRsVoEpIOE2Sb9Fp8iPveAGA53a38eze5l/MZ+Uts9dPh9RNVYbYsuGDvOvG38KxM7HzXZLG8sIh/py0B8rlTdf+DF2ta/nMt36RijdBNtU0460vCkyIVxnEtVMosc9LQhbXTuM2igEZtNZRqtiggjGGicoQuweeRjfm3yMHuly6maZMe5Sf387i2um4jHEkRJHjXkw8L28pK4rXNxCagNAEaK0bx25k1DMzpY69oErVK1H1JpmoDFP1SiilGlMB0TSAHWfmi/wAXDtN2snNO9PFIPQgKkVoJvBLowTlGjTb8zP7JSScMonYnyZXXToEQNWT3kd3tP5qPjt3vTYhpcowN1z2Ad5z8+/HC5O5+QsXiQXfZuOq27Esm09//aepelNRtbpY8EUsdFgnqI7hZrs4/5VIBKUsFK8ekx3qgNFSP6EJ0TrEmBAdOwhi5hvEzZx5eiDOwqdnhSpOlxSe9t5XKJF47j5y2nPsFCknx2IR7teGQZSL9qoE3kHC0APJA0lIXcKZIxH70+S+x5cBsO9o/veacv6cCU1BmKgMcu2aO3nPzb8XLUzM9osAiYoJCaxf+WZ+8JY/4J+/9tMEQQ3HTs8Z4Yf1CbRbQNmZ15Rl73xiKRvrNZuOTcNQNR2U99q52ITeRD4RykH7Jbypg+CEiEpddFci4eyTiP1p8uWHlyOW6c3lwnfn0gGhnok/LtXG6Glbz7tu/M0o/ar2SYR+EWEiwd/Q9zbedPV27tv6xxQtl5mRrMLogNCfQjnZRa5lklicXyOibIzWhLVx/HI/xhiUchZm5r6EC54kmfJpki94tDTV35lxQzUt9ABBWEcpxe2bf55spi0x3S9WYue7N1793+nt3sRUdYQ5HTpRhF4JE9bjfPsJCSDKAgPexGHqkwfA6OPWY0hIOFMkYn+afOzOHZ3FXPC+qjf3Ru4FVdYsu5ENfbeT/IAXOdrHttNsueyDWGJHVd5iotG9jw7r57GBCQsHExdOMnhTB9FeKSpHexr5BhISTobkG3aaHB7KrwhDtc5ScwU91AFX9t0evbhA5moTTo+NvW+mq3U1wTxhj0oieOenUQkLimg+PhL60CtFaW8TEs4BidifJp/5Vl9PuW67rjPjba1NiOtkWNq+IVqQzMFdFKRSzXS1XEp4zJSNQWvvAkvsknBGEUGUix/0U5vaTeiVUa+W0Cgh4QySOOidJrl0aZkSJ2vMzDxtqANy6dY5GbwSLg5a8kvj8qvzSHT+4kUEEYegPIRvDoNJRab75EuRcA5JxP40cVSqZKIak41uuiU21foE9TjTV8LFw/HC6wRFLt1CIIJO7u/nCYn/l5nX8ApJa4RIjGevP86H17Damfjf6YJAszIqKpugdBS/PIjkHdDJbTfh3JN8606TW67+yfHvPP+PXrk65jpxtjKlLCrVcQ4Pv0BX22XM3DgSFjeG/pGXsOfNw4oITbluRutTQOK/cWaZHfkwr+xuXJoXTFRO12h0ow5FlNVvuibFdPldZlfvmy/2c/YfP2SmBDDTiYVEIWIhCBrx/MpRHVSGEOVgSHw3Es4PidifJtetf1/7i/u/mZ4oDeA0UpNG+cpfOvQdrln7HlCqEaKVsBiJ1OHoyHYOD7+AbaUaawTQOqSlsJQxfxdGm1etAZ9wImRO+dwom5+JR9catI7yGpgAdIDROrK0xCV5jdFxNUMdv0/P7INZI/QT9ctlrlVAYoGfadNssY+r+hnT63tjH1OWvQ8jR4B9wCTnP6ViwkVGIvaniRLXXtl1NbsOfRdBGk5YjpNmx4Fvc2jwGZZ1XkUyolvExPHzj+24h8nqEIVMR2OVr31act20FpezZ+Sl89XCCxSZI6QYjdYBxvgYHcYhjR6YAK190GGckEbP6wjM3l/0LLNezxmpM/N0Ymbt04RgppU7Xj77mCIrlFh/Ee+3Jp5bwciAEfMy8DLCC8AeYADYh5ja7AYoSSyCCWeGROxPk20Hvpnv7b7WTrk5tAkb+cEdK81E+Sj3b/0jfvRt/wjKSRLrLEZEQCwODmzlie33kHYLsVk3Mt+XqsNct+Yu8plOal4J20p+cickLhEMNEbeJvTQYT3KF689dDgt9nEhqfmm+2lBF0FQZylh5fFM+8dfPY80RtJAqyCXGSBqogDUwOw0gbVDYA9ivgc8po0caBxHJRahhFMnCb07TZ7f/y21ovOq2trlb2CqOjzHRFvMdbJ9/zf51jN/HS1IMqgtMqKSpNXqCPc+/Bv4oRcXc4kIgjqWctjQ+ya8sIYXVEnSJc8jdmATZYMJ0UGVwBvHLx+lXjqEVzqMVz5KUB0mqE+iwyroKNucKDt6Fis2p6tZ8/QX3HVOI1xBaL2XUP2yZXHPVMX53v1PLNtmWeavCPV78cKNSDJASzg1ki/OaTJW6R+v+OUjb9j4kVXP7n0AP6w15myVKNJuni8//vsUsh1cs+au6IaUjPAXB8rFDyr82zd+ngODz1DMdc2UshWhXBvjykveTt/SG3n4W79C4qQJxBXyIBq9G+0T+lPosIYJa+iwPqcc8PT8vMjp36pMw0lPx5X5TLzMTLdmXlW/eVX7YGZagcgxT2RWSd5px7zTKRIwy2wfamkdL7mtrqOvoBp8lIoBWz0G5gljzKPAfcD4qR8s4WIiEfvTZHDyQPHRnfe23rHpp/SmS79fPb7jP2jJ9zRuIq6dRRvDf3z7Exhj2LT23bFJP6l+d0GjHHyvxL998+d5Yf+DFLIz8/SC4Ac1Mqkm3n7dLzI6dZiDw9vnOHBedMSCbUyIDmvooErolzGhh9F+JPDT4nlaFjBDEPqEevoREOoArYO4lG4ax0pjWy6WcrAsB0s5jXK7qiHWwpwphdh7X5sArTXaRPsNQ59AewShhxdU8IMaYXwsS9koFe3ftpy4kuDJ/+ZFoJGsK56aAK4HuV6J/JQf6gPayDOWyD0GHiFy/ktIOC6J2J8mSlTTywNP2X5Qq9xx/a/m9/Q/yXipn3ymFRM7CaXdPDVvis9865eYqgxx89X/DZSbjPAvRFQUVjcysY/PPPQL7Dr8CMVsJ0qshnNmoH2mqsO88/pP0NZ8Cd987h8o1cdoynaez5afe6bnzQGjfXx/Eu2X0UE18pZvRMipkx65G2MItY+ORdzMcmo3xqDEIp9ppZBtJ59pJ5tqIZtqIpduJuUWyLgF0m6BlJPDtTO4TgbHzkSCHIu/iIVCGoVpjNFoDMaEhKFHoH2C0McPqnhBDd+vUPPL1Pwpal6JmjdJpTpOxZugXBtlqjLCVHWISm08ig6YNfIXUXHHwEEp+zVFamjDCsGs0MZ6J8aURMznjTFfA/OfGF056R0lXBQkYn+a5NMt1YHxfdmtL39p8oZ17/befdNvu39/309QrU+RSRUiwTeatJPHC6p86fHfZXBsJ2+7/lfIZzvj8J+AZJR/ARAL/bN7vsyXHv0/jE0dpinXDYCZZfKdrAyyee1d3LLpp5iqHOXpfQ+QTTWfp0afDxSiVCSOQZmgPoUJKmjtgTFRxTdlneQ3Xgi1j+dXqAdlBMimmsmmm8m4RQq5TjqKfbQWl9FaWEZTrptMqomMmyftFrDs7Nk91Vch8MvUvCmqfolafYKxqSOMlQ4zOnmQocl9TFWGqHlTVGrjTFWGEFGNjoilnFdMsTz3+kkeY+6WwLubbPP/Jl34OqH3SeDps3yKCRcIidifJoLofKqovrvzs+nLV9w0umb5zd3v2vJr/OfD/wvPt3CdbGOE7zpZlLJ4dPs9HBx+gXdc/yusWfFGEDcW/SQ8b0ESi3ylNsrXn/ozHnvxXwm0TyHT3sibFkfUM1Y6wpplr+eum34XgG+98K+MlQYoZtsXf53yOL7c6ICgPknoTaKDSuO8peFAd2Iis/vMyD0IPXLpFpZ2bKC9uJL25j46m3rpaFpFR1Mvjls8iYaZOM/Fubr+AsoCBNvJkXdyTCfOXt61ac6WXn2CwYk9DI3vY3BiDyMT+xia2MvQ+B6mqiM4lotSNkrZ2PHo/5XRYLurEVmtw+CjCF9B+JQY7pXZmf0SLjoSsT9NDEa5dobx8mD6vmc+qd695VdL1224Ox+akM89/OuEOiCTamo4B1nKoaXQw9D4Hj711R/jmku/nzde9VE6W9fMct6bn6Yz4dxjoqmW+O+tO/6Th7b9DYdHXqSY6SCtCnNG8wbNeKmf1T3X88Nv+WtSboG9/U/y9N6vkXHzi1voY5HXoUfoTxF4k5Gp3giirFfUd0EITUDNm6LuV8i4BXLpFtqKK1neeQUrO6+iramP1nwP6XTLsTuIs+HNJMNZCNfZwKwyx3OZifUHwU01sazzapZ1Xt3YolIdZqzcz+DYLg4NPcf+o9sYKx2mXB2h7pdJOTnSbmHO1NGc/Rsd30IEgbdZhrdVFM/aNn9leeqfEJOY+C9CErE/AxgM2VSRp/d9rXVp6/ojN6z7gfSWjR+2LbH53CO/Sbk2Ri7V3PhhGmPIplvwgiqP77iHXYcfYcuGu3nd2vdQyHXFO01G+ucNNZPuds/h7/LQs/+PHQe+AQjNuSXAjNleEALtM1kZ5Iq+t/K+m3+fbKadqfIAn3/qz9AY0lZ6kVa8i8Tc6JCgNkLgTWCCOkaIw+GOr/LTjm5B6FH3SliWS0/bepa2Xcby7qu5pPta2ptWReF487ng/VzmdUrm/8aVQzbTTjbTzv/P3nuHx3Wed9r3e+o0zAwqARDsvYhqlEQVyrJkyV1xjbuTONl1kvUXb2Jv1mmb+Mte8eVs4s06ySb5ktiOYzuxZcdyt4rVJVOi2HsFCKK3wfQ5/fvjnBkMSJCiBIogoHO7EMCcmTlTf+/7lN+zuOUarl/zLlzXZDRzkpODL9I3sof+sUMMThzH9WwiakNQZHjh4j8B2MLb4ijy3wlJ/iQV+XO64n41onm4bripeK0gFvSO4wrw+Qff8xkQnxMILNfAcZzCB277/bE1i29bCkgn+57mW09+hpHJ06Tj7UiSfN4uz7LLlIwsbamVbF3/Xm5e916SiY7gUi/4ggs/lK8ewetRt5M/fvYpXjjy7xzoeQTHtUhEmmotY1WEkChVJjHtMrdu/ADvvvPPkCQV08zzL0/9AT2jB0nFWqe1ki0URLCrdIwcjjGBY1dqVrEzHo/A9RxKRhbHtYjpKdrSq1m35E5Wdd5CZ/MGopGm6Veq2tsuyIXSpVC1453+nBbLYwyMHeTkwA6OnX2asWwPJSOLKutEIykkpAsvLgVYpkxbY2m3LHufHR6Pf19TPGzh+qY9tgtCR1gqSHmErrJOW46CwJ3j1+G97/3WnN7/fCcU+1lSFXvwHdNKRg5djeU+dPtnx5a2XdMFaMMTx/j+c3/K4TOPEY80oipRpn+B+UJeMjLYtkFbejXXr72fTcvvY3HL5qnDakM8Qi4PU7lVAMsqcrzvKV44+gCnBnZQMnIkIo0oSuQ8wfY8j0JlnKie4i03/y63bvpw7bLv7PgcO0/9hMZqlGZB4ZvguHYZqzKGY+Z9byHpQu1yHo7rUDFzOK5NZ/NG1nTdzqZl97B00Q3BZ6F6qB28v8OF7cx4vjFXXWuiaRXoGdrFwZ5HOD2wg4HxIyiyTlRrQKp7b9cjSR7lioLrQUPU+Zrrij9whNcbiv3CJhT7WVIv9uALftHIElHiuXdv+92RtZ3blgIansOju/+Gp/d/iUJ5nHi0GUVWz9nlCzzPwbINymaWWKSR9UtexzUr38TmZfdMryye9+HMuaI+F+8zMnGcfd0/4XDPo/SO7EWWVCJaAllSZ7i+oGxkMe0iG5bezf23/zGLGtcEN+3wvZ3/mxdO/ZiGSON5kYD5jgiiUnYlg1UZB9cORH5mcS4bOSynQiLSzOrFt3L96rezavHtRPXU1EFhuuqVU3UODCiWxzlx9mn2nv4hpwaep2xkUZUIEa0BqtP/ZsLzJpDEf/ck8U+h2C9cQrGfJeeKPfjOeQVjEkXSCvdu+ZXctrXvagIiAL1Du3n4xb/kcO+T6Gos+CCejxACyzYolMeJ6UnaGlexdvGdbFj2erpar0E5b0cEr91w50shah72VSZyZzgzvJuD3Q/TM7SLbHEQIRQS0UbEjGFQgeva5EojNKeWcNvGj/D66369lle27DLf3vFn7D/zJKlY6wzFU/O76FJICq5jYpVG/N28EBdczFh2hWIlQ2tqOZtW3MdN695DZ8smao8/NJS6zATvrWBx6nkOvSN72XX8OxzqfoRMYYBYJI0qX9zUyUN8Cc/9bYSeC8V+4RGK/SyZSezBz1EadpmKVTBvX/eukTde93FNlrSaq8qe49/hZ3v+nqHMMWShEtVTL+ffiwAAIABJREFUSGLmXJvjWlh2BcvxvdaXtV3Hqs5bWN5xEyvabkDTz2k/CndL04rsqoxPnuZ4/3P0DL1I99BOxnJnUGUdRdZRZb1molKPQGDaJUpGjpieZuvad7J9y6/SnFpeO+bw2ad58vDX6R0/QirWGhjJTN2OEALHtamYRSJaHFlS5lF1vl+E51hFzOIQnmPMuJsXCCpWAcMq0pJcxk3r3sMN695FU8PSqYPCaNQVQEBdYePo5ElePPZtdp14kEy+H11NEFHjM+f0PUC4hz0iHxKWthcpF4r9AiIU+1lyIbGHqbaiXGncXdNx49Cbr/04Hc3rarv8sjHJjsPfYOfRBxiaOIauJYhoSS60Q/eLnFxKxiSWXSYZayMV76CrbQtrF99GZ+tm0vF2NDUx/Yq1Ar8F/FoLiXMHDeWKQ0xkz9A9/CKnBp9nJHOaycIAll0hHmlEU6IXLGQS+AKdK48S11OsX3IXt23+KCs7t9WOsewyjx74CjuOP4jruSSjTbgz1FQ4rk1X8zo0OcLBvqf9Qqp50Y7nC71tZLFKw3iuc15uvvqezJVGSMXb2Lruvdyx6SOkGrr8A8Jd/Bwxfbc/kevhqf1fZvfx71I0JknGWrnQd4IHOWFp70YyHxW6HIr9AiEU+1lyMbH38fPwRSNLRI0X7tzwvrHt638xhqTUdvmF0gi7jn2HF45/h5HMCYSQ0dVYbaDOzHhYtontVGoDPWKRRjqb1tPZvIG2prV0tWyko3Et4mK349nnzPy+ijknR3kuuUI/AxPHGZ44xuDEcfpGDzCW7QmK6zwkSUVTooExyfmPubo4M6wStl0hoiXZsvJN3LD2XaxefFv9oYW+8cO5H+76m86zY4eJ6SlUWb/gwqFo5ti2+u285YZP8MKJB3nu2HcZy59FVSLoauzi1dNzRlXoJzGLQ4hqcVjd5eBRMrJ4nsOWlW/m7ut/k85qQWkYXbp6qGvL6x3ezaO7/5ojZx5DDgr5zsdDeKLk4LxbVrWfhmK/MAjFfpa8tNj7CCEw7QplM++uaNsycsf6X7TXL749DTVzLYrlcQ71PMSek9+nd2QfxcokiUjTRXeg9biuL1QVK48qR2hMdJKItZJOLKajaQ3tjWtYlF5NLNZMTG1AuthgFtdmziIBM+zSp/AwzBwlI0euMMBQ5gSDmRMMT5wgXxohWxwmXx5DlhSiWkMwfObiO8tqW1ihPI4QgubkMtYueR23rH8Pi1uvrT+0ki+Pjzx95Fvmnu6fthl2OZmo80+4ECUzx7VL7+Zd2/47AMVKhh3Hv8u+M48xlu8josX90OpV9FkUQsExs5jFweAP9Yss30QoVxqlLbWSN9z4Cbaue69/URiqv0qp3+l7/Pzw13h011+TLQxNG+JUj+3ZriZHXr85tuopxZNx5ljs3/Ger83p/c93QrGfJZcq9jAlKkUjhyxJ9sau7WO3rH2nvaxl0zTRB5cjvY9ztOcxDp95jEyhvzahS1UiSJcwFcz1HCy7gu0YeJ6HLKkIIaHKOulEB03JJaTj7aQTi0nGF5GOd5CMNROLNBKLNMJlGCk6GxyrRL4yTrE8Tq40Sq40QrY4RCbfz0S+j/FcL2VjEtdzcV0H13OQJRVV0VFkjZcSeM/zsB2jNrFMU6Ks7LiZjcvfwObl95KMd0w73nGMgV0nf1J5+vgDifHCQFtUjaMHVsgvRcnMcd2ye3jnLb8LOID/+k0Whth16ofs632C8cIAmuLXDszcBXDlEJKCa5UwCn14njNtCp1fOOoX4G1efi/vuP2zNKWW+ReGQj8/CN5fg+NH+P6zn+XI2adIxlrP6w7yBwtJI61q4y2KRI8Qcxt/+k/ve3QO733+E4r9LHk5Yj8dj1x5nKjWkNu4+PbCttX3250tG5qYJvowkevlzOBO9p7+CQPjh8kWBrBck6iWQldjXGou3gucuzxcfyxnIHSWbaDIGolIM1E9SURL+HacaoJYtJlkzJ8c5lt0+n/3j0mgqTFkSanN8Panl9VNOqvNB/cCQbaxbAPTKmHaRT8KYeYpGVnKRo6ikSFfGqdsZjHNImUzR9nIUzImKZs5BKAq/nhSRdaRggWJqNmPXpxqHr5oZHBdi4ZoKy2p5ayu9X3feO5VCqVKJrf3zGOlvd0PpfszJ5oialzSldjLCrtPE/v6tEnwpZsrjXLo7JMc6H2SoclTVKwSMT2JNhfOe0IC18Eo9OE65WnT6IQQmFaJslng3hs/wZtu/m+ACEV+XuIX8jmuzQ+e+yzPHPgXonoSdYb3nOFYL2qadZMqu3je3NVf/OEHj87ZfS8EQrGfJa9c7KtfnmXKVoGo1mCu77x1ZMuyu5W1nbcAtJ97/PjkKQ73PkHv8C56R/Yzlu1BSDKaHEGSVWQhX8KgjPPxPBfbMf25357tC7NrI4SMLCvBjG/f/1wK5o1Lwe++zkrB7G4FWZJrO0F/HoCH69pYjuH/HtQXVP9X3Zl7nr87dwJP8anb88d/vtxZ4NX7r84yd1wTw64QURMsX3Qdy9pvYE3XHaxou3GmdEYpWxyaONT7lLnz1I9jY4W+JhBa/KXcyS5Aycxxw/L7+IWbP3VOjcR0kxTHrnBk4Occ7f85J4d2k6+Mo9VmrytXoG/fz9ObxSGsysQ0U5aq0BtWibff+nvcee3H/auEQj+/CRacj+z8Cx568YvEImkUWTtnhw+K5HxKlt0vzKXY//6H983ZfS8EQm/8OcTzPFQlgqpEcD1X23vm0a79vY+VlrdeU9q4eHvvlqV3arFocxLQAKU5vYrt6VXArzKR62Vw/DDdQy/SPfQimXwfZSNLxSwiyyq6EkNVooFAXFychJD88zj/DANdqs52q/p5e37Vea3y3MOyK3XXqU45q34xiODnQDj8vyAkBQkQcm2w+cua5z0TtmNi2mVMq4Qiq8T0NMmGThY3b2JFx1YWt2xmSetmxDnGOkDBtit238SRoT09jyZ7RvYrQ9nuroZIE4lIunbur3Snbdpl/wehgFetUK8OLfFd42RFZ/PS17N56esZzZ2he2gPh/ufZTjbQ6GSwfUcvw7hooWbrxwhybhWEduYRJIk6oXetk0qVpF33/H/cuvmXyK0cV4guCZIGvfe9GmEUPjJzr8kHmmclkoSAmxX+pzriv8AeubsXENmRbiznyWz2dmfS7Ufu1CZRJXUSiLazIbObUOrO26OrV50vS0rehszLNAcp8Jo5hTdw7sZHDvMyORpxvO9jOfOAv6CQpH8UZm1cDtSnRjPJzxcz48OEEQG7MCHwHUtEtEWWpJLaWzoor1lAyvbbmBJ2xb0C8+THxvKnHT7xg4X9vQ8qg3nupvKRj6mqbHL1h5nuxaqrHPzqrdy27p3o6lx/4IZd8VeUD0dpEI8h+HMKY4OvsDZscMMZk6QKY2gyjpaUL9RjbLMDt+H3SoOYhuT04bQeJ5LvjzO6675Fe6/47MXOfeQeUsg7t96/FPsOPJN0vH2mRa2f+8J8RtX/NwC/uSjL87VXS8IQrGfJZdT7OuphqDLVgHXdezlLdeMdLVubNuyZLvSnl413UHv3Os6BiPZHiZyvQxPnmRk4iRDmRNMFgexHQPLMbCsCo5noUgqsqTVJme9knD5q0V1pnl1xrntGEGRoR8NkSWViJ5kUXolnc0bWNS4hqbkUloalhC7QIUxAJ5LqTLBwf7n6BneO3ZqZJ+bLY20xbRkLWR+OfEXcQ7Z0ghdTeu4dd27uHHlm3lJRzkhziuUHJ48zeDEMc6MHaF3/BD58jimXcFyTGRJRVMiqLI68+1d9BwlXKeCke9jutufoFgeY1n7Vn797d9AlrWwd35B4ttIG8Yk//cHH2Q4c5yYnp4ezocJYB0wNhdn+Ce/tGsu7nbBEIr9LHm1xL6KQODhUahkcFybZLSZRLSRdZ3bWNFyDU3JLpoSi1/iVjxMq0ihNMpYroex7BnGsmfIFocolscpGhlKRrZWKAd+9b4U1ABIQgry9nItvDsVkOfSvve96T9Ui/aqeXv/XycQeAvX84hoCWJ6kojWQExPE480kUq009KwlObkUpqTy0gnOojoDTOF5afh2gZ9kyeYLAywv/cphrOnKZQzVOwScT2FpkRe9dY3gSBfySCA1R03cvOqt7K+a3v9SXLhlIsX7L6mnuyKkWU4203v+BEGMyeZKAySKQyRr0wghIQm+50J1dy7qKVTZjg3oWBVxrDLo0GbXZC28DwMK88vv/EfWLf07nBHv6Dxi/b2nvguX//ZbxPT08F7J8Dz8IR4H0LMScN7uLOfHaHYz5JXW+yn42E7Fo7nBDt0i9ZkF0ubN5KMtbJm0fV0Na9HPddB72IEs9gL5XGKlQyFygTFSoZSJUOxPOFXwht5KmaOspXHMEt+Ox9urdLefw8FQb/a+0nUquQFwo8SV7P1QqDIeq2qP6Il0JUYEb2BeKSJhmgLiWgzsWgTcT1FTE+TiDZfLBQ/w1NlMVkc4fjgiwxnuxnPD9A9sg/LMdDVKJJQUGT1ktoYLydV456KVcS2TVZ33MA1y+7hxuX3Iqp5Us/1C/kuuIqaPq2vimnmGM6dZaLQz0j2DGO5PkZyvRSNyWB+vL+Q8vCmCh+FjCTJyLKOke/DMXPTQvhlI8vqxbfya2/5l6BSPxT7BY2k4Lo2//d7v8iZ4T0kos3TLvYEXwTvk3Nxan/y0d1zcbcLhrBAb14h/LYzQFeiCASlSo7d3Q/heR57uh8mqiVJRptYteh6OtKriOoNNMXbz58VDlR3i8nEYpIXig64ll+p75jYrhWE1E1MqxT08VvYrhHsxl0819+lCyHX0gKSJNcq6mVJRVOjqEqs9rsiq74PwCX0x884UMZzGM2dpVSZJFse5dTwXgYmT2DZBpPFYcpmAV2NEdOSxKXUnJrXeHhIQiaupfA0j1NDe+gZOciLJ3/ItcvuYU3HTbQkl4LQLuJC5wVRgLrfkdC0JEtaNrGkZRMArmNSNgvky2OMFfoYzw8wnh+gUBmnZOQpm3kqVpGyWcB2JtCCNEk9FavA2sV3+EIfOuItfFwbSVJZ0X4jZ0b24Hne9GiQ662fu5MLmQ2h2M9jPDxURScVOO9ajkmlOMhEoZ/u0QO4roMsyXQ0rqKzcTVRrYGYlqKzcRWtyaXEI+mXNs+RVBRJRVHjvDo14C8P2yoyWRqlP3OC8Xy/L+ilYXpGD5KvTCAJBSmo/Jck33Y4Wjdv4GqJZFWLn5LRFhzXZmiym7Pjf0sy2syGxdtY2b6VzV23Tx/oc0Fr48BroX7XLclIskY82kQ82kR709pp16gYk+TL4xQqkxTMHJncWZ498M8US4XajHnHtdHVOM3JYJjNDL7/IQuTRY2r0eQoHi6CadGvNs9zIyAqF7puyNVJKPYLCFXWUOVzc9cew5M99I4dwXZMVFnzw+SRFKocQZYUWpNLaEstJxVtIaan0IMq74iWmGr1usxFa+eeo+sYGFaZkpnDtg1sz6Zi5smVJ5goDDI0eZqSmatNj8uWRykZOSQhoSo6ETVBQ6SZmXPeV4fAz4SHhyTJRLUEMdGA7Vg8d/x77O35Gc+mlrNi0fVsXHwbzQ1d/hz46ibrpcLproPv1jcDQiKip4noaerLGPcee4BMrrcm9niev3iSrmyqI2TuUeTIefUdnueiKtGEIuuahxuK/TwjFPsFj0BXY4Hbnv+BtZwKY/mCXyCHR+/4Eb99qy48LoQgGWshHWsjqiWp2sP67nVqsIOWgnuYysVLkoIiyb4dbRDa55ycvhOY59iuiWlXqJhFylaeQmWSTHEIwyr54eS6moCqIY8kJCRJRpV1mhId5zzWq1fULwXf1lihKd6O7ZoMZE4xkDnFs8e+TUfjata238ii9Go2dN6CdF6v/bmh/YvdkTt9ly6p4DnoWgNu3W3IkkKuPEomH/jjL/TJiSE1csURbMeaNozLcW0aI02RZKxdcVxjDs8u5JUQiv1rjKo//vnGLOd01XpQKGeYLI7gurbvdOc5gfB6wdHnfvH7oXMpEGrHc4KJc+ceJQIDHQlJVK/j5/gVWSOixqbd8myNduYbXtANEdOnQvgj2TN0D+8jpjfQnlpJItbMhs5b6GpaRzzSRDzSdIkh/xlwbZCUIKVQFw0QAlXW6R3Zw238kh/dCQv0Fjj+Z+3s2L6g1TVZu8SyyzSnlrurOm+hWJmcqxMMeYWEYh8ScI6kCoJd/MVb2s6lWplfX43/ys4mpB5diRJJxLBdi/7MCbyJo5wa2oVAojHezrrOm0jHFpGOL2Jp83q/c+FCT6Ln1KItPv6CrL15HYqiBwWWftQmqqc43v8ME9nTNKVWvuqPM2Qu8Qt2xydPcXLgebQgGugjqFhFlrZtKV2/5p122ZiYs7MMeWWEYh9yWam3xQ25vFRb5uJ6yv89EOzJ0jBPHv4mplMhoadYlFpOTE8Ri6RZ1XYd7enlxLQUqhLxixWFPONLtGzRDcT0tF/YKftiL0sq2eIIT+3/Eu/Y/j99o5/A3jdkgSH8yNBT+/+ZXGGIZLyd6oLQsksko62s7LipFNESZkS7sKlXyNVJKPYhIfOU6sJKlXXUqI5AYLsWA5OnsB0TgeDw2WfQFB0QxPQUXU1raU0uIaE3osgacT1Na2oZFTNPc3I5q9q3cvDMYyTkxlqqJqo18PzRB9i47G7WLr0bcMLK/IWG8FNrR848yvPHHgj666fSQCUjy7Ur30xzw8rKwOiRSywOubx0tm6Yi7tdMIRiHxJyWZlyFZxKjNT9+0o3xNPy79X6Ci/4Pp5yJZQlhZg2lWf1Jwn6efhsaYSx/Fkcx/dL8PCIaUmaE50YdoV3b/s0d275ZfZ2/xTHs2uGQ5oao1SZ5FtP/h7/+a1fo61pTSj2Cw2hMDh+mG8/9fvg+TUj1XeZ6zkoss5d1/4aZzNHtccO/quSirZcccH/QOufXOm7XFCEYh8S8rKon9A3/ffqFLuqu6DrOfiC7HcS1PLkdQI9YxGdqP9B1G67liIJOieEkECS8Ifm1N/e1GJAQgluz0NGOa8w03Ftxgp9FIwse3se5Rdu+hQbl97F4TOPk4ovCm7SJRZJM1kc5Gs/+wQfe+M/kU4uCXL/oejPa4QEQmYi28M3fvZJcqVREpHm2jtICIlCaYRrlt/Hso5t5k92/13p+ODORFO8PWy9m2eEYh8SMiNBx0DVUa7ageC5gIfnOH53gmvjeQ64dT/jBvn0oO0wWADUDH3q59lfUOzrah+qo38Dz3ohpFo3A5KEQEZIEggFIckISUUIGSECoRfCN0ap9k17bi3f77sYJpAlleMDO6lYed5x6x9yZngvFbNAVG+otT42RFsZGD/KP/zww3z43i+yuPVaP/8fDsaZnwTdG71DL/Jvj3+K0clukvG2qRHVCMpGlqiW5D3b/xTbNtzDZ58mFW2dNgI3ZH4Qin1ICFDbOQeC6nk2uJYfAvdsPNfGdUxc1/Lbz7wpQa91INQXronpIXxRDeqL+sukl9DIuoWA5wV++eCeFxUILIRFdWxx9V8ZISkIWUGSVJBVhFCDBYHiLwYAPBdF1siVx9h54gds3/hB3nrzp/nWU7+PpkSRJKV2LslYG2O5Hr78049z/21/yJZVbwNJC1vy5huBWO87+X0efPZPKFYyNMSmhB780cyGVeT9d32eRKLT3nXyR5XRQl9nY7zDnKmlNuTqJhT72TPbQeIhVxwxrWvA37E7OLaF5xi4jonnmniuhedYvlfAtND6Of8fCCyXfaiOOOdHMf2v5y0UqosAN/BCsME1wPZqFwshIWTV3/1LKpKsIWQNSdJRZJ3nT/2IrWvuZ9vmX2J48jSP7/sHUrE2JEkDpnb4+fIYX3/0k/SP7ufuGz6BXq0TCHf5VzH+GFsAw8jxkxf+nOcOf8Pv8KhznxRCYDsW2eIQ9934W9y88cNYdnns6WPfbIlpyYlQ6OcnodjPnjmpTA15BQgJISR/nK5r47kmrl3BtSuBuDt+GN5zqN8piys8Ge+VUz9yeAYroiB37zkmrm0QqD9CKAhJQpYjjJeG+cnOL3Dvdb/BL9zxWTQ1whN7/5mILtccEz084pFGbNvg4d1/w8mBF3jTTb/DmiV3hrv8q5lA6A91P8Rje/6W7qEXSURbUGRt2o7edW1ypRFu3fgB3nrrHwBUHt33pcpo7qzSEGkOv+/mKaHYzxZPTCCwCZ/Lq486C2APD88uY9sVPKeCG+zgp0LlgemvELV+49ngei5ezXHQDWx/p0L+Xq1QD6aF68+r5hfBgmOqKE8Ei5BXNp63WotQd9+eg+s4eI6F7nm8cPCrnOx9gs3L30BzchmrOm+hf/zQNLMdz3ORZY1UbBFnR/fzpZ/+Gtevvp/XXfufWVQbuvMyLHxDXh0khep7qn/sIE/v/2f2nPg+Hi7JWDuSkKZy9EJg2RXypTG2b/ll3nXHnwKY3UMv9u048b12v8ujrhg0ZF4RCtQsyZaHRxKR5ooia4kwvHV1IIRfjObn2Q1sq4TnlP0QvWtNhbPF7DIwnudiu2atlc1xLZzg9hVFQ5UjgQuhjiwrtTG/Qvj2wFKt0K6aUggWAp5XZ0/szxFwnOrtm1h2GcsxsG0DBNPGB8uyiiJpL+OxVa2Lq8+d75qXKw7z8K4vEtVTtCSXoUjqdCtd/xlACIlEpAnbtdhx5N85dvYpblz7Tm7b+GG/Yl9Sg53+DKOJQ14lvKDK3v96H8+e4rlD32D3iQfJFodIxtqQgvkV9VX3FSOH6ZR5003/lTfd8hkAsvmBoe+++FctkiQnVEXHdUOhn6+Iq2Xk53zlx7v/esvR/hd+UrHynWGF6lwxPQfvOmUcq4hrFXFtw2+Fo+rJf+kC73oOrmvjuHZtaFBVjP0JYDEaYs00RFuIRxqJR9JE9RRRPU1EayCqNhDREuhqDFWNoikxVFlHklVUSUOSFARSbefuBZX+bpBmsFwD17GxHAPLKmPaJQyrRMUq+LPozTxlI0vZyFKsTFKsTJAvj5MvjWLZ5VoEoFoeKEn+/AFJUi4xKiBwg2FGL22b7C9WKmYByy7T2LCYG9e8g+tW3097c50ZStiu9+ohpteN9I8eYM/JB9lz8gdkC4NoahxdjU+/CgLXc8iXx0lEGnn7rb/P1vXvA6BUyQx9+fFPK/2Z0y3peGvwvuc4cBOQu4KPDIDPvPOBK32XC4pQ7GfP+gef/4tHdvc81BXX03N9Lq85qvl017PwrBK2WcC1y3iuGeTcX06o28OyKxhWCcupoMoRYpE0US1JTE/R2NBFa2o5jQ2LaUwsJhFr9QVdbyCiJhAvc47A5cRzTQyzQNnIUbYKFMqjTOYHmMj3MZY9w0T+LCUjS9nMUapksewyqhJFU6NoSoTLG54VWE6ZYjlDY6KTdUtfx/Wr72dFx02oSuC3Xl8bETILPH8HHyxiDatA9+Dz7D7+IMf7niVbHKQh2oos+wWW9QghYVhFipVJ1i/Zzv23/RGdLZsBKJTHBr721B9pfZnjLcloS22gVSj285cwjD971q9uv75p5+kfMxWKDXl1mSqec20Dx8ziWPla5bwQEuIloiye5+G4Vm3nbjsGHtDU0MXStutoSS2nKbWc9vRK2tIraUx0XZqYX+mda7CbE5JGJNJEJNJE44ynZTJZ6Gd48hTDk92MZ7sZy55hLNfDRO4sHqDKem3nL0vqefPMLx0PVY6STkQoW3l2Hn2Afad+xJLWa7l25RtZ3bWdtsY107sXwh3/pSPO7/wYGDvE6YHn2Hv6JwyMHcawiuhqnHRiMdX0UN0N4LgWpcoEutbAW2/5NHdf/5vIcgTAniwO9339qT9K9GWOtzTG2macXBky/wjFfvbctLr9xlh7ajnjhQF/0Ego+K8aQgp28lYZ28xhm3k81wqMZl4qDy+wnAplIwueRyzSSDK+iPamdSxru47Olg00JZfSlOhE8r/4phOE2S9ohjMXnDubvp5aakMgZI3G1AoaUytYvyy4qlNhojDIRO4MA+NH6Bney9DEMQqVcfLlUfAgGkmhyhFe/nvaPz6iJoioCTzP5czIHo71PUVzw1KWLbqetUvuYH3XdtINS3zxqgpYWM1/Dh4gBcV2Pq5rM5nv5dCZxznV/xxnRvaSCb5/dDVWF66fet0EAheXQmkUWZLZsvKt3Lf1t2hv3lg9pHKsb0ffD3Z9sSVbHkk3xqf33YfMb8Iw/uz5P8BvPXvk3/nRnr+nIdpca1EKuYwEQu7aZWxjEsfM47n2Swq857k4ro1ll6lYRdLxRSxu2URny2ZWtt/EsrYtxGJtM1xxIYeZveniWkepPMqZkb10D+2if+QA/eOHmSwOEVHjqEok2PG/0ve3H/kyrCIVM4+mxEhEm1nStoW1i++gs3UzS5o3IinnLrQ8psbyvgYIFq7nvvdsq0jf+BEGRg9w9OzT9I8doFjJYNoVolrDOSNpp+N6LhUzj2mXWNV+M7df88tcv+Yd9YdMPH7gX3LPHHugybKNZCLaNOOOPgzjz19CsZ8lE9nev25Mdn7Cdmy+/Ph/4+z4YRrqclwhsyToc3cdC9vI4BiTeK4d7PBnFmKBwLQrlI1JFFknEWtmadt1bFh6F4tbt7A4yEtO47UeRp4hNAx+eLhvdB9Hep/k7Mhe8uVxLLtCLJJGUyKz2vlVCyCrdRLxSCOdLRvoaFpHV+sWlrVdR3NqOfI5fv7AAlqMXXjhZdtlxrPddA/voW90P0MTxxkcP0rRmCSqJVDkSFBsOfPiSwiBbRsUjUkUSWXpouvZtuH9XL/mHb6joo/ZP3506LEDX5EODzzX2RBpkhRJq1Xpn3e2odjPW0KxnyWP7Pv//tedG973aV1L0TO0i395+g9RJB1VvvAHJuTSEELCE+AYOezKBK5dqYXrZ8LzPGzHoFjJEI+kWdG+ldWLb2fzijfQnFwx/Xqh09tLMOW25v/qMpE7w4GeRznZ9wyz/NjdAAAgAElEQVQ9w7uCCu4mFFmfRX6/isB2DCpmDtuxiOlJInqKdKKTrpbNdLVuojW1knSik3S8fVpIe9o5e3X5ae/cXPVcUB1kxLS0yrl4rsFkYZjJwgAjmZP0jx/h7Oh+cqVhypUsZTOPIutE9QYuJsYwVY9SrGRQFZ3Vnbdy3er7uX7121CUqd2/aZVGnj/5/dKzRx5oyhuZZEOk6SVfx1Ds5y+h2M+Sf3zkt373g3f8j8/Hoy0APHvkm/xoz9+RiKTDYRGvGIGQZFzHwCqN4pi5C4p81dqzZEwiCZmW1HK2rHwT65e+nuXtN00/2LNfO6Hgy4kQtZ7tKj1DL3L87FPsPfVDxrI9eJ5DVE+d58b2SvHbHe3av5ZTQVUiNCeX0dywhMaGTppSy2hpWEJTwxKaG5agR1K8bPdqz6U2sOjlUA2zv9yUhudQqmSYyJ9lPHeWsfxZMrleMvl+xnO9TOT7sB3TL5aUFSSh1IomXwrLrlAx88iSQkO8jQ1L7+aalW9mbdf2+sNcYGJ/z6OFp49+K9Y/cbwtpiVRlRmiJzOdfij285awQG+WFIwJqW/8KOu67gDP5fYN72Oi0M9zJ75HOtZGWKH/chEIScIx85ilYTzHvEjI3iNfngAPVnXczHWr7mfLqjdTXXj5Dm7WBa4bcsl4HnjVojkPJJXl7VtZ3r6V2zd/lAPdD7HnxHfpHtqFByQijcz2OfdNghSmlssCz3OYLAwwOnkay66gKjoRLRl4GcSJR5pIJzppbOgkGW0lGV9EItqCrsWJKHE0NYaqRPxWw2rUQgQjgmf5FvEcA9OuYDllTMuvDzGtAvnSKNnSCNniCNnCIJlCH6VK1q9bsApUjCy2YwXnFSWmp4J20Uv5zvA9HwyrSMnIkY63sW7Jnaxb+jquWX4fjcll515h7PTQrsIzx76jnBx8oQ0hYumwCO81Qyj2s2Qkd4b9Z5+siT1C4m03/j9YjsmLp39KPJJGfYmwW0iAkBECrNIYVmXMD3ies6MRCBzPpmRkkRCs6byVbRs/6E9fq1Fv0xoK/eVFTD23kkw82sK2jR9i24YPcrD7IZ479FVODz6P4zrEImlkoVz0vS8JmYqZx3EtdDV+kR2s79an1xnDVM2HSkaWQnmcsWwPPcO7mTI+8hBCENHixPRGv1JdSxBR4+haHFX2PQZUJYIsq0hCRZE1JCHXjI4Q4LkOrufheTa2a+HYvlOi5VQw7XJQc+CLt2H6hkfF8gSGXZqaeVgzN/K9ISTJd1FMRFtmKHi88PPluDamXcZxTCQhoyoRli66jvVLtrO8/RZWdNx87lVsYOJQ7xPmnu6HOT64s1MIoUW0BhRJDYX+NUQo9rNEV2L0jO5nstDv97S6FkJSede2zyBLCs+f+iEJPX3ZwpsLlmA3YxVHsCoTM4bthZComHkqZoGVHTdx26aPcN2qtyPJwf4vzMNfWVwHcKjm9zevfBMbl93Nge6f8syBr3B6aCe6GieiNVygsttB11MsXXQtmVw/gxPHMOwSETWBrsVf0uVPEhLSJXgfuK5DoTxOrjSC69pBYaA/u8CfYeDi4SKQkCQZEez0fcdFagsH8HBcm+rCo3a8kAL740DEJQVZVkkoTa/oaT3//G0qVhHDLBDREjQmFtOaXsHKjltY13U7zemVaGoiOLpmSzw5WRx2Tw/tHtt9+uGmvsyRtOUYiWS0hWq0MdyAvLYIxX6WxPQUmcIQTx/5Jm+/6Xd80XItkFR+4eZPk4ot4olDX8Owy8SqY0BDpuGHLV2M4hCOkT0vbC8Q2K5FsTJBY6KD+7Z+ku3XfGyqSrvWlx0K/dwgaq+BJGtcu/p+Nq94Iz8/9K88se8fyeT7iUebUeRzd5KCXHGYVR038wu3/hFnRvfTO7SL/vHDQdV5xl/0eR5CklAkFVlSLyl/XY8vwJfmpOhdtKhPXIZCxAtTm69QN1bZ81xikUZWd26js2k9Ha2bWbHo+plC9NVzHDk1sMs8OfyidKj/aS1TGFotCVnS1SgxLVmzfA557RGK/Szx53u3sKfnUa5Z+nqWL7rebwlyTZA07tr8EZqTXTy875+YKAzQEG32dw7hBy7A372bpWEcYzII29cJvZAwrAIVs8B1q97K27Z9hsbkcv/C0Hzl6iN4TWRZ544tv8am5ffy4+f/nN0nf0BEjaHX7fKFkFEVnWcOfRUhJN51559x7aq3YZl5MoVBRjInODt2gIHxI0zk+4MZABMYZhFZVlGVSFDIps000PcVUT9j4dXE8zxs18S2DUynjONYRLUk8Wijb82c6KKrZROLWzbR1rSGxngHSr2vfZAyrP48lu+dONz/88kTAy80DWdOK9nKeFMy2kJDpKm2gw938q9twmr8WfL5B9/zGYH0uUIlQ1t6Ob96918Q1VJBSBl/6heC0dwZfrrn7zk6sANdiaKrMcKdqJ+Tt0ojfo5enFuIJyhVMiiKzptv+h3u2PJr/p8XTI/1QmZ6//jPD/0LP3r+zzGsEolIM/WjhR3XJFcc5U03/zZvuvl3Z7y1UnmU4cwJhidPM57tIVMYYLIwyGShn1xpFNd1aiH1qVHAIhg0JNX9Xs3Fi8u2QKiNLT5nlLHnubiB62Ltb7g4roMiqyRji0gnOmhMdJJOdNKSWk5behXtjauJRF46BdA/cYyB8aN0jx7gxNCLrmmVXddzFN8ASX9V0oZhNf78JRT7WfL5B9/zGRCfA8hXJti85A7ef/sfA9L0naekAh7Pn/gezx59gNF8Pwk99ap9KOcDQlJwjCxGYQAhTXcME0IiWxiiLb2C977uc6xcfLt/QZiXn2dM9et3D+zggad+j5HJ0zREW6kKfjVNUzHz/OJdn2fruvde0i1XKhnylTFK5QzZ4hAT+T6yxWGyxSFypRHKRhbbtbCDccC2a+E4JnbdTAQ/3+6/96qLgamRvyJ4BFN9+161+A8Xz/UjFP40QT/FoMiaP2ZY9r02ZFknqqdIx9tJxdpIJzpIJxaTSiwirjeSiDajX8IALdc1KVYmGc/3cbDvWcZyvYzkzjCW7yOqNhDVElckKhGK/fwlFPtZMiX2Ag+XXHmcuza8n/uu+7h/QL04BX33E/k+nj36bXb3PIztmES1BuSXmYec9wgZPBsj14vrmtOm0wkEufIoHY3r+PC9X2RR0/pwNz+vmdrlj02e4ssPfZzhieM0xFprRwghYZgFJFll0+pfYGX7VhKRNB3pVTQ2dL3M+3PxXAfTKlAoT1CsTFCsZKiYeUpGjoqZwzBLmE4Zyy5jO2YtX+4X8Lm1ccPVc6tGBGShIMsasqSgyBqqEkVVY0TUmD/WWE8S1VLEI2nikSYS0WZUJXpeeupSGM/1MDjZTaGS4fTwXs6OH8FxbcpmHtdziapxNCV6RcPzodjPX0KxnyX1O3vAnyZl5Lhzwy9y33W/7v9xWm5Z1Ny/+kYP8czx73Bi8AUqVpGqucVr4TURQsYsjWAb44g6wxYhBLniKK3pFfzG279OMrE4tLJdKATmPNn8Wf7xxx9jOHOChlhrXQ5fYNsVHDmCqzUgPI9FqeW0NHShq3E6GleyvHUz6Vhb0Jcef/mmNi+JVzdcKPgcTjPQucyLTc/FsApYtkGmOET36AFGsj0YVomRXA8juV5AEFFjqHLEX3RI0mVLQbzs0w3Fft7yGttOvvooskZMT/LE4X/DsCu85Yb/4jvpuXWmJK4JkkJX6ybe37qJk4Mv8uKpH3F88AVKpTwxPYkslFe18ndOETKuU8Exs9Q7ngkEplUiEW3iQ/d8wRd616KunShkPuN54NmkGpbwoXv+ir/7/gcomzmiWkOtvU2WVGQ8dD2FJEfIlkYZyfXieg762Rgx3Y+CqXKExU1r6WxcRTLajCLrxPU0jfF24pH0jF7zl4a4oFf9rHAtCpVJMsVBSmYe06mQL47TP3mS/onjtfRC2cxjWCUkSUFXY6RjiwiNuUIuB6HYX2b8LyyNhmgzO058j7F8H++8+VOk4x2AGxiSiKkeZUlhdcdWVnds5ezYYfb1PMzRgR3kSuN4eESr5hcL6MMuhMC2iv5o2jpLYdfzQ5Tvv+sP6Wq7IQjbQyj0Cwl/gl1Hyybedutn+NaTv4cqR6bSWELyzWvMHFosEpjo+H7urudi2SYmBmUvz0RhgD09j+J5Do7rkIikaYp3kow2EdESqLKOEBLxSJqWRCdxPU1MbyCiJlCVSNDKJ/smN+fku6v5+1ode120rZa39xwc18Z2fIOdslmkZGTJGxkm8oOUzCye52E5BmUzR648wXi+n5KZ9/P8Qg7y/H4RrxCCiBonqjWc/5yFhMySUOxfFTwkoZCMNnNqaDdfeeIzvPm6j7Nu8W1+sVJ9WD8w6UBSWNKykSUtG7mj0M/enic4MfQC/RPHKNiTxPVkMF50ngufEHiuhWsVzwvBFisZVndu46b176M21jQU+oWH54CQuHnD+9l78kecGnyemJ6qO0DCtUp47vTX3zfRmXrPqEyNwq0W+Y3mzzA4eRLHdfBw8DwPRdbQlVhQMKeiSGrgklfNxU/vABEI3xhHkvAQtWK+4OSnHkZQqOc7+QXC75pYjolplbFds9YJIAsFRVbR5AiN8TihgIdcaUKxf9XwQ88N0WYyhSG+8exnuW3tO7lr04fRq25XteK96Tv9dGIxd23+EHdteh/Hh3ZxcnAnxwd2ki2PYrsmEjK6Gp2Xg3YEEq5jBhPspkKlrmcjyxo3rX9PYEwUVt0vXIL3u6Rw64YPcKL/mWAXPVWd77kWrmMiX+IYXQ8v8NNPwDkfC8/zcKu7cNeiUm2V8y+86G1Wz+fCD2Wqcr9qsatIKlokcpGFeSj0IVeeUOyvAPFIGtsxeeLwv9E9sp+7Nn6Q9V13nL/LhzpPd79laW3HLaztuIU7N4xxduwIRwZ2MJQ5yVihj3w5g67G0NXYBWdaX50EFqt1X6KOa5OMtbG2847gL6HQL2x8wVu26DoaG7ooG1mUqiOi8C/3XBOIzvqehBDIIvyqC3ltE34CrgCe5yJLKqloK0OTp/n6s3/CxsV3sH3D++hq3lA9qk7ood6CFEkhEW1hw5LtbFiyHdPMcXr0IP3jR+mbOEb/xAlKVt6/DY9aqPJqbedznfOd71zHJp3ooCHWMsM1QhYq8WgzbemVnOh7bkrsATwXz7XD2rSQkMvE1akGCxJ/AldUa8DD4+DZJ+kZ2cc1y+5m2+q305Ja7vfhz1R9Pm0RAJqWZP3i21i/+DZsu0ymMMjA5EnOjB9hOHOafHmcQiVDvjKBIk3Zil4tu3/Pc86rr/fAT0vM95qEkJdFtV99WgGc5+fnZUl92WPmQ0JCZiYU+zlAIEhFWzHsEs+f+B77zzzGlmWv59pl97CkZdPUgdXivXOp7viFhKJEaU2vpDW9kmuX3weew0i2h+HJHkbyvYzn+5ko9DNeGKBklJDqenSr7mHVYiUpKCZ6dR+8QFEiWJ5bm3QH/pf+ZH6AYnmCRLz91T2HkKsGwypRKI8jy/WJdg85aGEtuW6Y0AkJuQyEYj9HeHhoShRNieK6Ds8e/Q77zzzGqkVbuWHlfSxt2VSb233BXvOa+UcV3/ijLb2KtvSq2l9LlXHylQyTxWHG8/2M5wcYLw5QrExi2iUMq4Jp+7O5bddClmRkodRmbtf+vQyLAYGgsWEJQ8UhHM+pLTwkSSFXGqVneDebV75l5scbsuCYyJ9laOI4mjqVm3c9B02Okk50kJ/sQblK01EhIfOJ8FN0FSBJMo2JRRhWmQNnH+do/7N0NK3hmiV3sGrRTbSlV0y/wgWnvXl1trJQdeuLRZqJRZpZlF497VjLKjJZHCZbGiNfniBXmaBoZCibecpmgbJZwLCKGHYZwypRtgrYjuVLsJCmqpCDuzpfnIMuZW/qZxdY3rIBN72C3tGDaIr/JS8LmaI1weHex3yxF3LomreQCRaNB7ofomIVSSqxWvW76zpoWpzW1Eq6x4+HYh8SchkIP0VXCZ7noSkRtKDVaChzmpNDu2hJLGZZ6wbWdt7KmkU3kIi11Tz2/Z19YNIz862evzComYcIVDVBazpBa10UYOqqNoZVwrTLWHaw83cMHMfCtMv+3wNPcdu1cFy7NuXL81y/t1hS/AiB7PcZ++kCmY6m1ew85HL07NPoieBLXghiepI9J37AbRs+SNeiG0KxX8gImYlcDy8c/RZandCDwHZMFjdvJB5twvPsi95MSEjIpRGK/VWIEAJdjRLRYlSsEvvOPMmxgReJaglWtF3Lmo4bWZRaTXvjKhDa9Ct79kV7hwl6jP2fnRkOECDJIBR0LYmuJS/Xw6pRNrKsXnwbzxz6VyzHQJH9x6AqMSrmKD/Z+QU+9pYvIUta2G+/4JiagveD5/6MTGGAZKxt2uWuZ7Nh6d0MF0cJX/uQkMtDKPZXMZ7noStRdCWK67mYjsGBs0+y89SPaU500NW8gVR8ERs7b6WjcSURrQGEMv378UJFfhe+1/Oq/2dGXCB0f5HbReC5NgOZY2xYdjdrF9/O4TM/IxVvr80BT0SbOXzmMf7jyd/nva//i5m9CELmKVNC/8jOL7Cv+8fThF4gyJdHWdV5C2uX3MmuZ/90XhpHLWSECMNt85VQ7OcJUlAtr2gqcT2FaVc4ePZJQHCw93EUOUJ7egXrO28hFW0lFW+lNbWyNmFvimBn73nTd/kvGy+46su7vpAUxvMDNCY6uXfrJzkx8ByOZyHVTE8EiWgzzx/9Fk0NXdyz9b8GLYnhDn9+MyX0T+//Jx7Z/TfE9TQSUi2Ebzkmrufxhut/E9u16c8cv2q9Il6zeJQAc65PI+TlE36S5iGe56HKOqlYG+BhuzamneXk0C6O9D+H41g0JtpZ0ryBuJ6iIdbMypYttKaWElHjSJIWTPa60B2cM+LzciJkxvN9TJZGue/a/8Qdmz7KI7v/lsaGzqDUz0NVdCTRyA9f+HPy5Qnesf2z4Q5/vhMI/WO7vsiPX/hLdC2OWmeFK4SgUB5j24b3s3rJXTxx6KuUjDzxSOpitxpyBRFComIVTtuOUQkX3vOPUOznPQJFUmtFexE1jkBg2QaH+57FdAxUSWVntIWInkBCIhltYWnzBlqSXcT0NKqsEdeTJKJNaGqDXyl9SS123tS/3rl/P+fLoG6qWCLSyI4TP+ANmz/KW2/5XU70/5y+sYMkY63+tT0PSVJJRFt46sCXKFbGecf2PyUeaarrNgi/bOYFQgIhY1pFvvfMH7Pj6DeJ6SlUJTptjn2hPE570xretu33cD2H/b1P+q2e4et8lSCoWEUWN6/ta0504Xjh5n6+EYr9AsTDn/SVCArfPM/DdCpUCkU8PMby/Zwa2VObIS6AZKyFpkQnyWgzUa0BTYkgCQlNjZKMtpDQ08S0ZDByNHDkk5RaeqE2l772c7UI0I8QeJ6H67pIsoIQEkOTp9lx4kFuW/8+PnTPF/jHH/8Kk8UhGqLNwW7PQ5U0krFWdp14kP6xQ9x/2/9g/bK7g0E5L7cWIeSKEyxATw/s4AfP/U/ODO8hEWtBkdU6oZcolMaI6A18+J7/QzzWynNHv8lQ5jTJWPNcnn1IHY5r4TgWb7jmlzYva71OAcI2iXlGKPavAYQQqLIO8oWPMawyvWOH/Q91XRudIqvoagxNjqIquu+5L6vI1RGhwdzv6mjQ6Xa3XvBf/z94HggoG3nS8TaeOPLvLG+9ls7m9Xzg7i/w5Yc+TqE8QSLaFIwP9RBCIp3oZDx/lq889HHu2PxRXnfdr9MQRAHC0P7VhheIvKBi5Hhi3z/w7MGvUDaLpBs6agtM8IW+bGRRlQgfvPt/s7jtOsZzZ3jm2H8Q0xsQ9YvGkDmlbOZZ0ryezvSazeClPdcZu9LnIML6jVkRPnshACiyiiKfX/lcHQ9quxaWYeB5blA5P1XcV///036s0/36cKwq6+hqjHx5nB/u+hs+dvdfsLLzVn753r/l6z/7HfKlERLRFqpTUDzPJR5pxLTKPL73HzjY8whvuOETbF33ninPgVD05566yvm9J77H43v/nr7RA0T0JMloy3mjanOlYWJamg+94a9Yt/RuPM/hx3v+nlxpjIZY88VbSEOuGNVOmWuW3ImqxpOOY2hzkV4JEzqzQ1zKrOiQC/P5B9/zGRCfm+vzmI8IBNnyGLeseiv33/wpAAZG9/P1n/02A+NHSSUWnZezFUJQNvJYdpnVHdvYtvkjbF5+L4oS8Q8Iq/avMFNV9p7ncLjnUXYc/hpHzj6FIqnEIukZ59HnSiO0pVfyi6/7PCs6twHw8N5/4Mkj36Qh0vjqz2gIuSSEEJQqORY1ruBXX/+/0BTdLRr5FZIQvVf6XKJ645W+ywVFuLMPmTM8IK6neOHUj0hEG7n7mo/R2bqFX33Ll/nuM3/Ege6HSUSaUJUoU9a7HlG9AVWJcGroBbqHd7GifSu3b/4Im1bc53caVAl3+68e9f3vnseB7p/wwtEHONH3NI5rE9NT502zEwhMp0yxnGFd13be87rP0ZJeCcDPj32bp45+i7ieQpLkGRcIIVcageWY2K7F6zd8EE1NUKlMuqZZQpIukhN8lYjqL31MyIUJxT5kDvFQJJWonuSxg19HkVTu3PQRmpJL+dib/5lHX/xrnjzwT+RKQyRj/i6/mkKQJYVEtBnwOD20k1ODz7O07Vo2LL+HG1ffT2Ny+Tkh/nCwzuyZ2sUD5AsD7D71Qw6efojuoRcRQhCPNtWiMeeH7UdQlShv3PpJ7t3628hBAenPjz7AT/f9IxE1Hoy1DYX+asDzXPLlCV634b2sX7IdgLF8X2Fw4pSp1w0uulJsSXRc8ftcSIRiHzKnePieAZ7m8fD+r1AyC7zp+t9ACIV7b/ptlnds5eGdX+DU4AtEtAZ0Nca0an8EiWgTjmPRO7KP3pF97Dj0DTYuu5uNy+5hRect6Gpi2j1emkNgCBCYMk0tkhzb4OTgDg73PMLRs0+Syffhei7xSBpZnlmoTatMyciwvP0G3rj1U35HRcCTB7/KIwe/SkSN1eZChMw9Apgsj7G+8xbesOXXan/vHtk39vSRb5fS8UVX/Jy2rLzvit/nQiIU+5A5x/NcNFlH0gVPH32AbGmEt97wX0hEW1jTtZ2VHTfx9IEv8dzBrzGW7SGip4hoiVr7lt+X7+/0Pc/DsIo8e+hf2XH43+hs2cCKjpvZtPwNLGu7AVWN1YWgq4OCwh3/FFPV9FUsq0jf6H4O9T5O9+BOzo7uw7ZN4pE0Mb0RIc7fyQshYVhFSpVJmhqW8PrrP86dW34VLVh4/f/svXd4XNd5r/uuXafPoHcS7E2kWCSqWBQlucqSndiOE1uOkzhOnCdOfM5NfVJveuLUc1PsnHPTc20ndtxiW3KVZMlqlkhRlFjFTgJEb9Nndln3j73RSFAiCYAAifU+HAKYvWfPN2Xv31rf+kqlmudre/+GF099m1gkjaFZSugXEaPFfpbXb+R9d/7mlGU0wbnho+5oqd/3mKmvhmIxo8ResSgYrw2QjNSw/8zjDOd7eHDHz9FRvxldj3DP1o+yecX9PLn/H3nx+H8zmu8hHqkJMwgmhUkIgaFbpONNeL5L9+Bhzg28wp6jn6cu3cmq5p2sbt1JU90GalPLp7mlgzzB8eqBS4SJAkrTBzxj+W56hg5zqncvR7u+x3D2LMXyCAiNuJ1Bj1za3e75DvnSMFEryRs2/Sh3b/lpGmvXTGzvHjrMIy/+PacGXyYRfoZK6BcPY8UBltVt5H13/hYROxMMiDWTvpFjHOvZo2XizZqmAiivO1Q0/ixR0fjzQ7GSRdcNdq17L7s2/AiGMblG2DN0mKcO/CsHT32LbHEAy4gQtdOMp+pdSJA+6OJ6Do5bxPM9GjOdtNdvprluA8sat9Bet4nYeO7+hdxIgX6XaCxTKY/QNXiQ0/0vcX7wID1DR+kbPQaAbSYwdBNNGBOz+JkoV3NUnALJaD2bOt/CnZs+SHvjlont0nd45ugXePzQp6m6ZeJ2GlQu/aJAIHC8CoXKKOtb7+C9d/wGUTsVfPeFAULwlRf+iuePP/JqMlp7q5Qye61t/LV3/de1fsobCiX2s+RPv/xDvwHijxbajhuNwA1cpFzNs6JxC/du+lFWtdw6bZ/eoUM8e/g/OXzmUfpHTxANK/y9dtqWAHwqTpFSJYuhm0QjGeJ2DY2ZVSxv3EpL3ToyyXbSsUZi0fqZDzO1d8CsGgrNJVOLGo3/frE4VyojjBT6Gc2dpWf4Vc71v0LfyDEK5WEK5WFc3yFiJrGt+LRGNTMhpR+syVdHqU8tZ9OKN3Pr2vfQ3rht2n5nB17m0QP/zvHeF4mYMWwzPrEMo1hYBIKKW6TiFLl9zTt5+7aPoulTelFoJucGXuFfnvg1dGG+qmvmrYAS++sMJfaz5ONffu//EPC/mKgXq5g7BFJ6FKs5NKGzZdlu7lz/QzRnVk/bayR3jldOPsL+k1/n/OAhXK+CpplErCS60F9XrMarBvq+F/yUDolIHXXpTuqSHdSll1OXXkZtoo2aRBuZRDOafqXRyONLBFc6MAhFewZX++viOYwVexjKdjGUPcdw7hzDubMM57oYHDtNtjiAEDqGZqBpBrpmoGvmaw6WBAJfepSrOVyvimlEaK5dx7bVD7Cx863Up1dM239g7AzPHP08+88+iuu5RK0kmtCv8D1QzAdCCDzPJV8eIR1v4M1bPsS2FfcHG8czWDQL1y3yD4/+It0jx0jata9KUGJ/HaLW7GeJ58l+QxdVILLQttx4BOVyE5EMnuey99Q3Od63l83L7uP21e+gJtkOQE2yg7tv/hlu2/AQp3tf4KWTj3CmZw/9oyeD6nvR2kv2RRdCw9BtDH16Eq/nO5wfOsTp3r340iNqJYlYSSJmAttKkIo3UZ/qIB1rIh6rJxmpIxGtw7ISRIygo1twXGsyov21Og1ewXviuWWc8BMerQMAACAASURBVFZ1i5SdIuXKKNlCP9liH2OFfobzXYwV+qlUs5SdPKVKlnI1hxAalhHFNKLTeslfDp7vUCiPIKWkqWYVy5u2c/PKB1jReisRa3p3upF8D3tOPMz+M48yUuglZqeJmIlplRcVC4dAUK7mqbhlNrXfxRu3/ARNmVVMC1oVwTnz6IF/p2v4aFgFcUHNVswCNbOfJX/ypbfcBbEvacKqVxex+afqlqm4RVLROjZ37GbbyrdeNNMHyBX6ONr1JCe6n+P4+WfJFnvDj0cEQmzYV9BRTeL5Hr7v4ksP3/eQTHdBBxkBOjE7TTxSR9RKYBkxLDOGZUaxjTiWGQsbCOkIYaDrOpow0DUdEc52fd8PvQ0unl/F8x1cr4rjlKm6JapesLRRqeYpV/MUK2MUyiN4vnPRerpAIISOHs7cNU2/zNccLHU4bgXHKyOljxA6yWg9q9vuYFXLbazt2EU60XbRI3tHT/DKmcd46fSjjJUGsI0olhHlUvEUimtPxS1RcYo0JDvYteG97Fj1YLBBepPBqeEA9fuvfoGv7P0EcTs9XgPhVdTM/rpEif0sOTv44trvvPypb3cNHV0W5IAr5pugEluZYiVLJt7Iyqbt7Oh8M+31G8M0oemM5M7S1b+fw+eepHvgIKP5brLFAXTNIGIF1fjmAonE910838H3PXzp40sP6Yc/ZXDfeBqTCDsGivBG2PwnaBbj4YetfKfupwkdTdOn/Bx3vc9N+qDjlilVs/i+SyrWSCbRSkv9RjZ27Ka9cSu1qWUzPu50/z72nXqUY73PM1ocIGYlsfTIay6hKK4dQghcr0q+PEo6Vs+W5W/i7vXvJR4NOwtOKzOtgaaz//S3+K/n/oxIOGALvpsosb9OUWI/e7Z/7+BnHv7Gy//QnI41qBSia0zFLeF6FQzNpL1uPZva72J1y63UJTtm3N9x8pzue5Gu/lfoHjxI99AhhrLnAD8QXbQp69fGPNdon+wAd1HvoIlugvPwrFJOiVNwkfhhsJygLrWMtrqNtNZtoKNpK8sbb8ayUjMfx6/y8tknOdG7h4NdT1N1S5iGjW2oQe/iQAQBlF7gFYpZKW7q2MWtq99BS02YCind6Q2HwuWuvSe+xn/v+WtMPYJtxqbUtFBif72i1uxnz5a1rbfWP3HkP3E9B121Ybym2EYUO5x1nB08zIm+fdTFW2iv28CGjrtY2biNeCQzsb9pJljTfjdr2u8GYDR/ntHsWboGD9I1eJC+0WMUSkOUKlmyxQF86WGF6++BC34uP18xMSOfz7I+vu/ieBVcr0LVLaEJnZhdQyJaSzxSS1PNatrqN9Jev4ma1HIyM7jnxylVsgznzvHSmcc5N3iI7pGj+NInGanDmiMPiWJuKFbGcP0qdYk21q14GztX3U9DZlWwcaZ00lDonzj4ab71yj8RNeNYelRlTdwgKGWaPeuaalYb61puZd/pR0lfKldbMa8IRBBER5xcZZRXzj3Bwe6nqU+2c1P7XTRkVrC2aTuWlZz2uEyilUyilc6w85r0KgyMnaJv5Dh9oycZyZ5lrNjHSO48o4UeSqWhiTX2Sfe6QDDujhehh0CEs3MtzIabCzkPXfzIKS5/P3T7++EMXeLLYKY+Hl8QtVLUJNrJJJvJxFuoSXbQmFlJc81q6tMr0PTX7jDiOkWO9b3IwOgpDnY/w0DuHJ5XwZcQszPoqnHNosCXPq5XxfWq+NKlrXYdG9ru4OZlbySTbA33mqFqZLg+XygP88iLn2Tf6UeJ2amwfLES+hsFJfazxXcsNJM7172Hoz17cNzynK0BK64UiUAQMeNgxpFIxor9fPPlf0bXDDrq1lOTaGFV41ZWNt5MPFqDbU4Xf6HbNNaup7F2PZvD+3yvTLY4QL40TL40wEi+m9HcecaK/YwV+8gXB3DcMq7n4HoVXL+K57mhq9wJXOVSTqzNi3EX/Yyu+nCVe9r6vR8GyYlwicEMbrqJoZlh1L+JaURJxOrJxJpIxZvIJFqoSbSTiNaRjNaRjNVfVspgxclTKo9yov8ljvftYyzfR9fwUapemYSdwdJthBFhXDCU0C8kAscrU6xmMTWLVKyBzvqbuGnZLjobt2Gb8WC3ae76qUIfzOZfPf8c33jp7+kbO0cqWosQmhL6Gwwl9rPkYPezsXUtt9BWt5HbVj3IYwc/RU3oVlYsLAKBqdvUxpvxpc/5keOcHTzE0fPfx9JtktE61rbcSlN6BZl4I62ZVRjjF8cpaHqETLKDzAxxANJ38LwKxcoo+eIQhcowxfIYpWouSHdzclScIq5bCtqFeg7++Hq59MIZuQwHA2LCS6CFUfQToq7bmEY0LEiTIGqniFppYpEU8UgtiWhdMMvWLcQl0gwvhe+V6Rp+ldFiL0PZHg6ff5ZscQDHK1OqFjB0i6idIiFq1Pd6gZFIpO/jSRfXq1JxS2RijWzu2M2yhs3c1HYn6UTr5AMuVf0x/I6Uqlm+e+BT7Dn5CFW3TDparz7jGxQl9rPkpVPf7F7ZcBOGEeO+LT/OuaFDnOzfT3I8ylWx4EgCIQ3KsxJGyfuM5Ht58vDnqLolEpEMrTWrSUbqiEXSrGzYTEvNauJ2Cl2z0S/hrRFaMLtOmQlSifYrsmq8Dv+FYg8z16ufLb5XCaLtnRy9oyc52f8KhfIIufII3cNHyZVHJmIgNM3A0COkY5PBdkoEFoIgyM7xKlScIkKAbcaI2Rk6atezpmU7LbXraEqvnPIYH/yZGtVMb1G89+TXeerIZ+kdPRV4foyY+oxvYJTYz5Kx4kA1Xx4jGqlF1yzeeev/5F+/++tkS0Mk7Iw6eRYhWtj8RdcMTMNGUIPrO5wZPITjVhBCsP/0Y0SsOJrQSEXrWVa/kfpkGzE7jalHyMQaSMXqMa468ny8yI7OzEVtrx7PLTFWHGCsOIjjlSg6eYay3ZwdOshIvh+QlJ0Chcoovu9hGhEiZpz6RNui+b6Ol3D1fBfTiASxERMBjTdql8LJmIzx9feqWwIEtfFm2mvX0ZxZyfKGTSyr20BiWlGk1+ngKPRwAAmn+l7kqSOf51jPCyAENbEmwkWj+X6BigVEif0sGcid0w52Pck9mRXgO9SnOnnfHb/BZ57+fQrVMeJWWp1EixyJRNeMYOYfxqp5vkupmkNKSa40zJnBg/gyKKerawa1iRYysSbidoqIGQ/X0S1qEo1kYk3ErAQRK4ltRjF1G0Oz0McbyQgQU6orTw3gm7r+PV64R/pBIx/Hd/C8aliLPkehOsZYcZCRQg+uV8XzfSpugUJ5jJFCLyOFHjzfm8jJN8JSuEIINKGTjNZNixlYLN9TKSUeHp0Nm7HMGN1DRyhV83hhVoGUEkMP4haCBj36Qpt8Vfi+hxvGdbiegxAapm6hawZRO0lTegUt6ZU0Z1ZQn15G47TZ+/hBXGZI3AyZPpM/dv4F9p58hMPdT+NLn5idQhPGovncFfOLEvtZUqkWOdrzPLs2vj8oyeq7tDds5r13/AaffeaPyFVGSNpqrfN6Q9cM9Cmnx2S8elBdrlAeY6wwMLH27ksPgcAyY9hGFEM3A4EPC+AE0ftTAvImfmhomo4uDKT0cX1nsjrfeJ+diRmfHxTr8T1cv4rjVYOKgk4hXKrQ0IWOrpmYukU8UjNvufrziURScQqsbdnJbWt/kHxxgIFcF/1jZ+gbO81IoZdieZR8ZYx8eYSKW0LX9PD9NiYqBk5pfDz+j/n3CowHWE78FxZb8sKqiG4o8C4RM0Y8kiFhZ4jbaWoSrTSlltGUXkFd6EXSdGv64S+nA6MQQac6wHVLHO/by56TX+dU38sUqzlS0Vp0zVCli5cYSuxnSSpWx9nBwxw4/Rg3r3xbcKfvsqJpGz+x+4/5/Pf/jPMjx0lGa4MLujq5rnOC6neWEZkxr9wPq+RV3TIVWWJ64Zyr/+wnBwliwp0thIZtRolaias+7uJF4oUVBBOxRhKxRlY0bZ/YWioPM1LoY7Q4SK40SLY0yFhxgFx5hFxpkEJlDNdzJ9MTGU9RlBO/IwQaQZOh8YHA1EqE4+/51M9tXCADLffxw78n0y8FU1MxEQJDM0hF60lGa0lGaklHG0jHG0hEa0nHGqiJNRGN1FzibfCDMrav816NLwmNM1bsZf/pxzna/QxnBg+iayaWGSw/Tb4OxVJCif0s0TQdy4jw1NEvsq7tdiJ2Jig96bs0167lx3f/MV9+4a841P0syUgthm6qE+0GRhP6detWXlyIydSvC2ezQiMaqSUaqaV1ahys7wb9A9zyxHJGoTpGoTxKsZKl5OQpVfOUnQIVpxT0HvBcPOlODNKk9KYMCmQg9+FgQCAQ46WKw5gPXTMwNAvLjBA1k0TMOFErQTySJmaPz9pTgcdHj2CasWmiPMHUuvRXwniTJSBXGqJn+FX2n32Mc0OHGcp2oetW0MAmeJIrP77ihkGJ/SyRUhI1E5wfPcbjBz/D/ds/GrjQpAu+QzLWyAd2/QFPHPoMTx7+LKVqjridRnud1qsKheIShFkMkwjQNNAMLCuJZSVJ0EDdzFV+p+G75SDeQTq4oZt9apEiIFiCCWf9gbib6MLAMOzXLUh0iWe9RLT86zDFPT+O55Y40vM85wYPcax3L31jpyeWjpLRejShqeuMAlBiPydIJDErxdNHv0hb7Vq2dL4JpEYQIVtF0yzuvenH6ajbwOMH/p1TAweIhsFbapavUMwWGYrn5QjoePe9oKiRZtizKPMrwxm5nH7fXHKBwHtehdFCH/1jpznQ9T0Gs10MZM9QqGRJRmtJRWqnLzsooVeEKLGfI0zDxpMeX3vx76iJNdDReHMYKUvg1tcMVrfsZFn9TTx95LM8d/yrZIuDRK1k0PNcoVBMIKXENMJZ84VFgq7W5R08ePKnlLM4zhwjtJnd+0C+2M/JgQNkC/2cGTrI6f5XwqI6FQgrRtYlWydLKSsUM6DEfo6QUhIxYxQrWT773Md53x2/RXvDpimCH8w8LDPGvZs/xM3L38h3D/8nh7ueZqw4QCJSo9bzFQpACI2omeD7x75K3+hp1jRvpzG5HMuKkojUXhSMBsxyAHCNuYSwS9+hUB6l4hToy57m6PkXyJYGyJdH6Bk9ieNWgv4PZgwdA3tKO2d13VC8Hkrs5xApJVErRa40zH8+8wf8yBt+k476zQRuximzfKFTm1rGu2/7VU517uOF41/j8PlnKVazRM0Eum5elylTCsVcIABNNxnO99A/dpqXzzyGJnQsM8ry+k20ZlYRtVPE7BSNqWVk4s1BieDLDowMZ/WEN3nBtte1buqvYZGfKyz243sVhvM9DGTPUXbyFCtjdA0f5dzQkaCZje9ScQr40sfUbRJ2Bi2i4nwUV48S+zlHEo+kyVdG+fcnfosHtn+UrSveGrgixytcjQcYCY0VTdtY0bSNrsFX2HPym7za8zzZwgC6bhGzk0C49q9QLCGk9ImYMTCj+OGMveIUOHDuSfad/jau52CZEeoTbaRiDUTMOIZmkIjU0pxZSW28mXgkg21E0XULTWiYuo2uW6Fn4ELRngujvaARkldFSg/Hc6g4BfLlUYby5+kdO02hPIIvPUrVHKOFAYbz3Ti+g6GZmLqNZdgINHRNJ3FBOp4SesVsUGI/D0gpidkpStU8X/j+nzNS6OXeTR8MBH9q96nxHFrNor1+M+31m+kfPcH+M49ztPtZesZOYmgmthkLC7Nor/3ECsUNh5hMZRQ6UcskShKBwJceY8VBBnPn8aWLL30MzcAyYpiGjaEZYdZLmOseqycdayBhp7HNxEStBF2z0LWgXbGGzkQRHjFZ1dAPWwbLsIqiE5ayrTpFytUiRSdHrjzMWLGPbHFoIqrfn9i/QtUt40sviOjXLSwjim3EiFiJoITzeP0EhDrXFXOOEvt5IljDT+DqVb798r9wuv9l3r79ozRlVoVF2KpMuADH84g1ncbMKt6cWcVd63+YE717ONj9FGf6D1CojOH5DrYZn0X0sEJxYzBeMdA2Y9jm9GY9Uvr4vkvFc6bFpY8VBzgjD4T59JMNiILCR8E+4zheBSecpQuhYek2hm4H/RR0OyiQE60nZieJWklidpq6ZDumHsEIBxq6FhTR8nxvok2x61UpOXnKYb5/sTJGtjhIsZqdrIzoBs+raTqmbmHqETRN1W5QzA4l9vOKDHpMR+s53rePf3vi19m1/oe5fe27EJp1cVDRRPqQJGqnuGn5fdy0/D6Gxs5w6PyznBl4mfMjxxgp9GPqNhEzHjZ1makvukKx9AhmxTME8AFcQi8DIZa4fpWKEzTfGe99kIjUkIk30ZBaTm2ylXSsnkSkDlO3MXV7WsW9q8H3XapehYpTIFscZKzYz0D2HEP5LrLFQXKlYUYK56m4JSw9imlEMDRDnfOKK0aJ/Twz3l41Fa2j7BT56t6/43D3M9y98SFWN98SXpT8MIBv/OSdOts3qUsvZ1d6Obs2vI+ekWN0Dx3mVP/LnB08RKE6huc5E4E8pmGjCYPFvM4fzKpAV4WFFDMiQpe5j6GZc/4dEQhc36HiFPGlh6Fb2EaUlpo1tNWuoymzgoZkB3XJdmL2ZVTmmQWaZhDRDCJmnHSskQ42Tts+ku+lP3uawew5ekaP0zNynLFC/0QDHVOPYBnR0O2vziXFpVFifw2xjRi2EeNk/366ho6wqWM3d617D001q4PuVDM1uZi4T4IwaKlZQ0vNGm5Z9Q5yxT66Ro5zqn8/vaMnGS30MVrsw3Gr2GYUy4hMaQiyOGYBUvoYuo1pWBQrWVVaVjEDPprQsMw4Facwp+vXjlehUBkjYsZpTHfSlO6ks3ELKxpvJhmtw5qSzrYYqEk0U5NoZl3r7QAUKqMMZM9yvGcv50eOMpA9x3CuG103iVpJdT4pLokS+2tKMPJORepwvAr7Tn2Tw93PsKVjN7esfoDW2nWTu14k/CJ0+wfNQdAMkvFmNsSb2dB+FwADoyfpGTtN/9gpBrJn6Bk9Rb48jPTDjmnSDzqjheuJ+gIE/Tlehfa69cStFC+e/g7JiOoIqJhO1avQ2bCZukQbL5x4mIgZv8ojBfX1K24R33cRQqMu2c6OlffT2biFlY1bsa/62AtD3M4Qb8jQ2bAFgP6x05wdPMCxnj2cGXiFYiULSCwjqop1KaahxH4BkEgM3SIVq8fzXJ499mUOdT/Nyqbt3LbmAdrrNgXtcuESLS3lBfcHXa8aMitpyAQ9r32vQq4ySq44QP/YafrGzjCQ66JQHqFUzVOq5shXR3E9BzPsDR4MAsww8n8+PAFBsNKalltI2jXsPfWtoDWsijxWhAghqDhFblnxFjwpeeboF65a7IuVMVy/Sl2ijc7GLdzUsZvW2rUXpbRdzzSmO2lMd3LLqgcZyndztPs5jp5/lu7hVxkr9hO3M5i6rQbUCiX2C4mUEk3TqYk3U3GLHDj7XQ51PcXKpq1sbL+LTe1vIGpnpjzgUlXCpuTuAwgNTbdJx5pIx5por79pYk+nmmO40BO2Bx0iVxogXx4iVxqjUBkhXx6lVM3i+d5lCr64aD+BmKHLVpC+VHaK2HqUta230ZzpZCB7jpidvrw3THFDIxCUqwVqYo2sa72TE3178V+3vet0xlPcBNBRv5GNbXexvv1OahOt82P0IqIu0cad697Dnevew6s9z3Ps/PMc7nqa0VL/RFzCYo/nUcwfSuwXATJ0u42vF57o3cuR7md59ugX6KjfxNbl99GUWUnUTk9GGU+k7s10wAu7gjGxr2klabKSNNWsnbbVc0uUnQJlp0jVLVKq5MhXRilVc4EnwMlTqRaoemUqTomqW8L1nTDNyQvSmMLKZBOtQccbgwqBJoL+3p7vYptRDCPKzlUP8JW9n5ijd1FxveNLj5KT576bfhRNtyhUxricWBMhBK7nkC+PELfTrG+7k+0r38qqpu2YV9WV7vpnbctO1rbs5M517+Hls49z8NwT9I6cBBEsBUw2BFIsFZTYL0JidgYpfQbz3QzkzrH/zKM0ppaxof1OWmrWsa55exDQN5WpxXpmJNx2UW/woKuWbkSJG1HilxWfNFluVPpu2CLUmyg+Aj5hEhRCaGiajiEMdN0EIRgr9IKUbF/1AAe7n+ZE376g57aq771kEUKQL4/R2XATO1f/AABVt8zrib3rVSk7eUw9wq2rH2Rr5xtZ0bjtGlh8fVCTaGH3xoe4Y+27eOn0t3np1Lc5M3gQU7ewzXgY0KfOu6WAEvtFSZCuF7OCtB8pJUO583z9pX8gaiZor11HbbKVje130lazhnikFk0zJ6+LV9IUREqQM8UFwHglsYnfufB3gdCtIOXvMl+X9B1GS4OkY00Yus0D236Wf3zslylWcsSspFpbXIKMr9PbRpQHtv4sVlgkZzB7DkO/+JslEHi+S6E6StRMsLXzzdy29gdpr11/rU2/brCMKDtXv5NtK97K/tOPsufEw3QPH0HXTGJWSp13SwAl9tcBQghMw6bOaMHzHc4MHuDUwH4Odz2NoZu0121gTdN2UrEGWmtWk4o3z1xUZKL39uWe2FObhFziMVd0jQhiCyrVIlW3jGXqNGZW8+D2n+Pz3/8zql4ZS4+oC88SQiCoumUqbpF33fILtDcE8SWuU+Bk//4LqkUG0fUlJ4fnO2xsu4s71r6bFU1bF8b46xBTt7ll1dvZ2vkmnj/+Vb5/7L8ZyJ4hbtfMOLC6GFklcN0prjOU2F9HSCSaZkxEEwd1tz2O9+7lwLknEQhaMquoT7UTtZKsbLyZ9tr1xOwUthkNqvZd5BWVUwYB84/QbfqzZ3B9h40du0H6bOl8M6Vqjq/s/TukJbH1qBL8JYAQGlW3TLGS4/5tH2HH6ncE30Wh0zt6irHiAHo4aBUiCN6ruiWW1W9k14b3TaScKq4cQ7e4c9172LzsXp559fPsO/lNsqVBEpGaoMzvDNcDIQSOVx30fKcoUBk01xtK7K9jNKGDAF0ziJgJwGe40EPP6AkkkgPnniRqJhFCUJ/qoLP+JmoTLdhm0Be8LtGCZaVAGJcRByWnDAgu+Hm5uhy2Ac2Vh+kfOxuIffjg29a+m6pb5psv/xNIsA0l+DcygsB1X3YKvHXLT7Jrw/uDDdIHobPvzHcoVXMkonVIKcmXhohG0tyz6Ue5Y927l2zg3VyTjNby1ps/wqb2u3ny8Gc4dO6poEHPlH4D43i+h2VGjlhGxvf8K8uSUCw8SuxvGCQgiJjxibxkz3cpOTkATvXv51jPnqA7mO+TitXRkOwI24PG0IRBOlZPY3o5qWgdcTuNbcYwNHsimh7tEm6+K0zJr40388ir/y/3bHw/tallQWaBZrFr40PE7QwP7/sk+coIcbsGFTx04yEQFKpZNDTeuePnuW3tu4MN4fdgJNfNwa6nsM04lWoB16+yvv0NvHnLh2lMdy6o7Tcq7XXreeiu32fvya/z5KHPMJjrIm6nMTRrPM+GYnmM+7f9dGpDx124bnmhTVZcIUrsb2B0zUAPP2JTt5kaRef6Dl3DR3EGXpmoQ24ZEaJWElOPYOoWmqaHLUIhbiVJxxuIWiliZgLbjIf9wY2JgjxivEWnEOFyv48vmWgL6vkO0pecHjhEqZrje0c+zw/s/MXAs+BXQRhsX/V24pE0X3vxkwznz5OK1qPShG4ssqUhUtFa3rHjf7ChY1dwZ/j5Azx5+D/IlobQhU4yUsvdmx7i9jU/uIAWLx12rLyfVU3b+fbL/8T+098hYsaxzCjlap5UrI4ty+67PRFrSAHZhbZVcWUosV+iGJqJYZlMzbST0sfzPcp+nlLVn2z/CQwBcvBgILlSXuBil9N+Hf9LTPzH1HuwdJtMvIm9p77B2pYdbOjYDVIE6YPCYF3bG2jMrOLhvX/Lke7nMA2LqKki9a9nBIKyU6DiFFnXdhsPbPs56lIdYU2IsAmU0Djc9T2eefXL6JrBqubtPLjj56lPLVto85cUmXgT773jN1jdfAvf2v8PjBUH8H2PLcvuIRFraET6CaR/7cVeU3I1G9S7p5hACA1DvzaBN0IINE/nqy9+gubMSmqSHUENgLDNb028mQ/s+gOePvo5njr8ObLlIRJ2RpXWve4QgM9YaYi4neLuDT/J7k0PBW1oJ2o+CNBM8sUBvvj9v0AgePOWn2T3pg+oxi4LyLYVb6Eps4KH936Cs4MHuGXl/QARxysaCxGgZyixnxVCFTKZHX/65R/6NRB/stB2XI8IoZEtDbGqcQvvv+v3iViJ6UV/whiB3tHjfPfgpznc9QwIiBjxIGJYzfQXLQKBJ13K1TxSSta27OTemz5IW12YC3/B51xxcnzyGz/LWGmQH931B6xuuXVhDFdcRMUpcrz3eTa13YXrV/1CZXSFQDs7P/0zLk0y1nRNn+9GQ4n9LFFiP3vGigNsbLuTD+z6fYRmXFzlLxT9w13f4+mjX+B0/yvoukHcSivBX4QIBMVqFter0lG3gTvWvostnW8KNs7w2bpehf/97Z/D9Rx+4t4/I6Mu6ouWwdHTxYpT6rCMyHAq0YSuGRel7c7XIEBXXfxmhfKLKBYYQSpaz8Gup/mPp36Pd932K0TtFPgu00r8aiYb2nexruU29p3+Ds8f/yrdw0fRdQvbiEx2CVQsGJ7vUnVLeJ5Dc80qdq5+gK2db8Ec7xE/TeiDNs2F8jD/9Ngvk4438f43/N+Lrp+8YjqmGdcSsYbGiBUfXmhbFFeGmtnPEjWznzuypUE66zfx7tt+lbrUsrDef1Bnf4JQ1CvVAoe6n+LFk9+ga/goFacYtPM0LFVj/xoiELh+0ITGNqK01a1l6/I3sWnZbqJhueeZ2jEjdLqHDvO5Z/+YlU3b+YFbf2FB7FdcFceB9wIvXar4jmLxocR+liixnzskkkJ5hJp4M+/Y8THWtN4ebLjQ9QuTOf++w8HuZzl47gmO975IoTwa1AfQLXRN54qLACguC893cf0qFadIsggLpAAAIABJREFU1EqwuukWNnbcxeaOXUGlRgg/t6D+wwTh53bw7GN8de8n2LnmB7nvpg9ec/sVs6Yf+BEp5Xcv3KDEfnGixH6WKLGfW8bXe6X02b3h/dyz6QNouhWW9PW4SLw1Y+K+3tETHO1+jiPnn2Uge5ZSNYehWUStRFgvQH3XrxaBwJc+pWoOx6sQtZLUJdvY2H4na1tup7V2vGWyDDMqLkjNDGfzSJ//fuEvee7E13j/nb/DluX3LcCrUcwRvpTyg8Bnpt6pxH5xotbsFYsKiSRmp6m6Jb5z4F85NbCft97807TXbwrF4oJWvuNr+5pJc2YVzZlV3LXuXZzo38+r55/n7NAhekZO4EuPiJlA1ww0oakUvstASh9f+ni+S9kpIISgOb2KZXXrWdu2k9WN2zDCao1AUBjnwsGYECCC2fzZgVf4yp6/pmv4KB/c/cdsat917V6MYj7QhBCfllJqwKcW2hjFa6Nm9rPk4196768KwZ8utB03HkF+dqESlFXdufrt3LX+R0jFw0jtmVz7AEKb1vGvXM3RNXiI04MHON73IiP5HipOEcerYOo2lhENg/vUeQACz3eouqXJ98eMUhtvYVXTNpY3bKK9biMxOzP5kNdqpxy67McKvTxz9As8dvBTRMw4H3nT39BRv/EavB7FtUJK+XPAJ0HN7BcrSuxnyZ99+T0/JdH+HuUlmReCzmglSpUcdckWdq55J9tXvG1ScKZG7U8jXCueEqVfdYsMZs9wsu9luoePMJjrYjjXQ9HJYuoRLN1G100EQcOeG/miJcPGRhKJ57s4bpmqWyZiJahPtFGbbKOtbh0rGzbTmF6BNW0Gf4mBFjAeZQ9QqmTZe+rrvHD8a5wZPEh9oo0P3P2HrGi8eX5fnGJBkFJ+CPjXG/m8uZ5RYj9LPv7lH36nQP4HcHGbKMUcIZD4VN0y5Wqe5swKdqx6OztWvIWIlQ52udSa/sQh9GDWP4VieYjesTMMjJ6iZ/QkPWMnGS304XoOnu/g+g6a0DA0K+gzoJnX5QBAIvE8d+I1+dLD0MyJngaZeBPN6ZW01KygId1JS3ol8WjdBUfxw7X4mZ8h6JwYvL+Vao4XTnyDfae+Qc/oSUASs1N8YNcfKKG/wZFSflAIoVz6ixAl9rPkdz/+6zfZq04/rEcqy6SnSnvON0IIiuUsrl+lMd3J1s43sal9V1BnHV7brTyBDN39U5wxUlJysuSKg/SPnaF37DSD2bPkSsMUqmPky6OUqll838PQbQzNQNOMMAYg/NzF1B/XYlAwJeRwvNtwuMbuSQfPc3H8KgJBzE6RsDPE7DTJSC31qQ6a0stpSneSijUStZLTB0MzpT3OxJRlk6FcFwe6nuSV04/RO3oCXbcxdQvf9/ihO36djar//FLhHcDXFtoIxXSU2M+SP/qHn4nptaP/opnuD0tfBX1dC4JSrB5Vt0TVLZGK1rOpfRfr2+64uMzqa7qcxw8opgv/1Id7FUYLvQwX+siWBskWB4OfpSFy5RHypSHKThGQyNAtPv4T6U/IsUALvQICIcZfxaWFNHicDGMRx4/pT7x+hDbZZXBiyUFgGVFS0VqSkRqS0TrS8UaSkTrSsXoysUZqEy1oeuQST3pB8OOluKCA0fGeFzjU9T2Onv8+Y8UBTCOCbcbwfZdSNce7dv4K21e+7fWPq7ghkFIWgTcCz4Faw18sKLGfJX/ylXeCaz2kadqnVZDXtUcIDderki0NkorW0ZRezsaOXaxuvoWGVOfkjpcj+jNxicp8nluiMn6r5shXRsmXRylWxihWcpSqBcpOjnIYDOj5Dp7v4vsePj6+7wXiPTFAYEK4x19X0GJYQxN6uIxgYOg2UTNOxEwQtYJbPJIhbge3qJXANqLYZhTduMTK0lW9F2Ja17GB7BlO9O7h4Lnv0Tt6klx5hGSkbqKokS898uUR3rz5Q9xz049dxfMprnN6pZS3Al1K7BcHSuxnyW9/9iEEImUb3jHTcBulVF/shUAgqHoVqm4JAVhmjHUtO+mo38ia5h3UJjsueMRrrUG/1hNNj/a/XKRXxXHLuL6DJ93A1e67odj7+FKGKYHhTF3Tw3V1A0OYmEYEcTW1wS9rWWMGZohxGM51c6x3D+eGDnL0/PNUqgUQgTfB0u1pdQzGiv3sXP1OfnDnL135cytuCKSULwK7hRD5hbZFocR+1pwfCQKZnj++9pf3nFj758lIcYEtUkCwdl2ojOF4FZozK8jEm1ndtJ01zTtIRhuIRaakj12t8M/IDIM9QSics1nm8UMXu5zBgTRH5/CUAkUAhfII+dIgx3r3cLx3HyOFXvrGTmNoJonIzO2GBYJceZjlDZv5iXv+FEM1L1nSSCk/L4R470LboVBiPwcEF8dnXl0f++L379zXkMyufZ0HKK4ZApCUnQKOW8E0LITQqY23sL71NmoSzTRnVtJWd6mc75mqwV3nCBF6Jmb2QHUPHaZn5ASjxT4Odz/LaKEPX7o4XhVTt4mYcQRixmqEQfXDMWJWmp98419Rn2yf5xejuB6QUv6KEOIvFtqOpY4S+1ny2Sd3AzCUSzJcSNxtWu4Tqh774kSGM2PXdyhV87hehbpkKw2pTqJWgo66daxs3ErCriFixTHNxExHuY4GAAIu0R+g6hSoOHny5RFO9r/E2cGjVJ0CfWOnGcx3Y+oWUSuJoZlcTs2BoCFOFcer8P67foe1LbfPz0tSXHeEGvNW4Ftq/X7hUGI/S37j334CgKjpELGreJr8LSHEHyysVYrLxXErlN0Cvu9hm1EiZhwJ1CVa6WzYTF2iFcuIkYk30JDswLbTV3B0Oel6hwsi3S/nvJtyYZy4SIrw98u/aFYqWfqzZ8kW+6m4JYYLPZzqf5nhfA9SSipugYpTQtd0bDOGealo/ddASkm2NMh9m3+cN23+0BU/XnFjI6U8D2wSQowutC1LFVX1bZakY5Nr9L4UgPxDJB0IPrJwVikuF9OwMQ0bGM9RD9bue0dPcnbwMK5fxfd90rE66hLtJCM1mEYEQ7eoT7bRmF5OOlpP1E5i6ZGJyHnDsIKa8FNnMnM5qfEdXK8aRPhLj6pXplTJM1YcYCB3loFsF65XpeqVyJdGGcx1kSsPIYSGoZlYRiQsEwy2ESMyoxfj8hAIsqUhVjVv595NKvJecTFCiFbg34AfuNoJpvIKzA4l9vOC/BkQCeChhbZEcfkIoaGHQWe6ZmAZ0YltrudwfvQ4nhdE0wsIotCNKKYeVNgLAtYEUStBJsxvj1lJbCOGZUYwdTssxKOhoQPaZM59EF4QZNKPR+jj4fs+vu/ieBWqTpDqV6zmyJWGGC32UqqO5/gHAxUnzEiouKXgdQgDXQ9eS028ee7fMwRVt0wyWsODOz4WthVWKGbkncBPAf+40IYsRZTYzwsCkB+QUpSBn1QD0usfQzcx9Ok59770kTIo4yunuOrz5WH6Rk8F2/GnFNkZ3+vimY0MS/lf/FUJM++nFM8RaEH+vaaHBXbExJ5CaNhmPKiIdw3wpEexmuVdO3+JpvSKa/KciusXKeUngO8KIY4vtC1LDSX284iAD4M8JhF/ovT+xkMT2kW56EuNQmWUNc23cOvqdyy0KYrrACGEJaX8PwQV9hTXkKV9pZpnJCAEHzfwfwApuxbaHoVi7hA4XoWYleJt2352oY1RXEcIIe6TUv7kQtux1FBiP89IQEd+BeQbXF97pFCOIITKgFBc5wgoVXLcsfZdtNSsWmhrFNcffwI0LrQRSwkl9tcACXi+fjYRqTywbeWJDzuu0b/QNikUV4tAUCiP0pju5A3rfmihzVFchwghGqWUKkX5GqLE/hrhSUEyWmLripP/LF22CSn/N5LqQtulUFwpru8ipc/uTQ9hmZdotqNQvD4fAbYstBFLBSX21wgBeL5GoRxBE/554Gd9tN3AFxfYNIXishEIyk6e1c23sLXzTQttjuI6RgiBlPLPF9qOpYIS+4XlOQnvQfpvQPpfBMoLbZBC8Vr40kMguHvj+1FloRWzRQjxFuBBKSWvd1PMDiX2i4NnhOA9QrBLIv5ZSG0U1SpXsegIOtqtbd3JisabF9oYxQ2ClPK3F9qGpYAS+0WF3KNJ88OOVdrh2eWPCV97eaEtUijGcb0KETPOG9apjqWKuUMIsRN4cKHtuNFRYr/YkODr7klfc/8OIbYheLOEf/alOFms2AttnWLJIqi4Rda27KSzUcVUKeac3xQirBB5iZtidiixX4QIKRCBG98H8R0pxYcjVmXHXesPvkNK+XcSzk7Ze6HMvGqCNTif69H2pYtEoLFzzTsX2hDFDYgQ4nYp5dsX2o4bGSX21wFSgmW4o6tber4GfExIsUkidksp/wb8p4D8Qtt4JQQjdZ3roye8QghBvjxKZ+MWljeoWb1i3vifC23AjYyqjX+d4EvBFDd+HimeRMgnhfBBmut9wVYkO4T070JwC4hF+dm6fpVMtImYneLc8BHsKZ3lFIsTzwu6/O1Y+bagH4BCMQ8IId4kpbwF2HOJ7dfYohuLRSkIiitFHgHtiIT/FAgL3GaBdpMvtV0iGAS0I1gGpHzNR/MX7oLteg6rW3YQNWMc69uDbcRQM/zFTdkp0FKzmvVtdy60KYobGw34MJcQe8XsUGJ/41ElWNM/i+ARJAgfpM5GKeXaSNHudGx3lY+/VsAyKVgZDBDmH0mQL9uSWUF77Tq+d+TzVL0Slh65Fk+vuEp86bGu7Q4s5YVRzDNCiIfCVLzBhbblRkOJ/dLhEIJDdjmCa+WD2DhBBkktklrNoNPzWYakA0ErUjYLRC3IGELEgBgQAWY1MBBCUHVK1KaWs77tdl489S3saHSyH7xiUeFLn6iV5KZl9yy0KYqlQQr4YeCTC23IjYYS+yWGr/lT/xwFRpGc5ELXmRDgCoTwYmiiVqJlpCAlkAkpRUIIEhIZEQgLKSNSYInADadJ0AUgJV7gV8AVyDLIKlA0DPvHgXt2rX8vr55/gapbxjIiSvAXHYJiZYybOnbTmFq20MYolg4fRIn9nKPEXvF6FMNb12wP5HkuyUgtY8XBVcA9jZnV3LvpA/z33r9F0w10oc/aWMXcIaWHlD7rWm9faFMUSwghxE4p5VYhxEsLbcuNhAqtVVwTJGDoBtnSAMf79ubG77993bu5edk9ZEuDal6/yCg7ReqS7axq3r7QpiiWFhqqot6co8RecU0QIvhPCI1scVAbyZ4b38IP3vqLrGu+hVxJxeQsJjzfob12Pclo3UKbolh6vAfleZ5TlNgrrgGTc/aIGaM/e5Yj558L7vBdInaKd9/2q7RmVpMtDqq1+0WAlD6GbrK2dedCm6JYmmxF9bqfU5TYK+YVISTTa2EIIkaUl889geuVQDPAd0jHm/nQPR9nTfN2xgoDE61UFQuDL31idoaVTVsX2hTFEiTsdf+ganE7dyixV8wLkktXvo/aSc4NHuLlM49O3uk7xKJ1PLTr97h5+b3kSsM4XuU1jqKYT6puibaadcqFr1hI3qwa4cwdSuwV84KY+O9ipJSYRoTHD3yGfGkQNJOg3Z+DZSZ4312/w9u2/jSedMmXR66h1YoAQdkp0tm4mcsdbB0e2U/RLcyvWYolhRBii5SyXc3s5wYl9oo55bVm9FOJmHGGC708vDdMp50i+CC4e+MH+JE7f4vmdCejhX48373MIytmi+dXSUTStNWuvaz9RypDfOTxH2P/4N55tkyxxEgB96mZ/dygxF4xp1zJKZmM1vLSmUf57sF/Dx6pWUwIvvRZ13oHH37jX3LPpoeQ0idbGsTzXXXizzMVp0h9soOWmlWXtf9vf/8XeKr7Zf7ulT+bZ8sUSw0hxG1qZj83KLFXLBgCQSJaw+MHP83eE18N7wxb30oPfIeIleKtW3+GD+z6PTa230HJyVMojy2o3Tc6ru9Qk2jGMmKvu9/Hnvwx/vPV/481NRm+eeZhPvHKn18jKxVLhK0onZoTVB6jYk642rm2qVl4wuFre/8eXTPZuuJtgeD7TrCD74Bm0Nm4lc7GrRw4+zjPHv0S54YOgxBEzDiGZqp0vTnCR2JoFs2Z157VZ6tj/PyTH+S/T36V5lgNlm6RsZP80Z5fpyXWxrtXPXSNLFbc4GwH2gmaeylmgRoxKWbH5S7SX/LhkoiVQNN0vvzC/8PTRz4bbNDMyZ18F/wqILlp2b38xL1/yrtu+yWW12+i6pSC6nvSV6l6c4D0PWwzSmvNa6/X/19PfYgvnfgq7YkGDM3Alz4RPYqhGfzK0x/hifPfvkYWK25wIsDGhTbiRkCJveLqmaXQTxxG+thmFF0z+fq+/8MjL34C33cCwRfjX1ERir6DaUTZtuJtfPi+P+fdt/8qG9vvouqWyJWHqThFfN+bG8OWJBJTt2lKd15yj799+U/5/LEv0RqvmTbAkkhSVpqyV+ZjT/4Yh0deuQb2KpYAqtjDHKDc+IqrQ4YlcOfIfS6lxDKimLrF9458jv6xMzy446PUpzoDwQ+j9IFJF79msGX5fWxZfh9dgwd55ewTHOt5geFCD1W3TNxOY+q2cvFfAZ7vUZ9sJBbJzLh9/+Ae/nr/H9EYS2LOsHwipaQ2Uk9voZefefwhPve2b9Ica70WpituXDYvtAE3Ampmr1hESITQSUfrOd63l39+/FfZe+JrTETqX9gVb8K9D+31m7h/+0f5qTf+JQ/u+Bg3L78Xw7AYKw1QquZw3HI441e8Fq7vUJ9ahjF1GWUKf7Hvdxku54gY0UsOonzp0xBp4MWBA/zhC782n+YqlgYbVQbO7FEze8UVIREIMZ8zZYkQGslIHeVqgS89/7840v0s92z6UdrqNkyZ5Y8jJv8WgliklltWPcAtqx5gIHuac4OHOHr+eXpGjpMvD1MuFzF1G9uMqcC+GfC8KvWp9hm3PXL2y3zj7MPUR9OvnwoloD1Ry+dPfor3rv4gu9vePA/WKpYCQoh2KWW9EEJ1ypoFSuwVixRJxIpjGjYHu57m3NARtq98K3eseRfJWEO4iwtTRUdKkA4gQTNpSHXSkOpk+8q3ky30crxvH+cGD9E7epK+7BlypWEsM4qpmWiajhBacFtS6/0SX/pI6eNJj1x5mGSk9qK9fOnzTwf/Bk2ApUeQ0n/dI5uaie9LPnngL5TYK2ZDRgixFlBiPwuU2CsuG3GNZ8FSSjShk4414Pkujx34FAfOfJdtq+7njtXvJGKng2V83wV8JoPywmA+CAILhE4q3sz2lfezfeX9VKpZesfO0Dd6gu7hV+kefpV8eQTHq1BxikjAMmwMzcbQZ3ZnX894voPjVXHcChKJbUYx9QjpSC1rm29hRePFzcYe7/4Gz/Y+SX2k/rKEHoIBQsZK82T3d3j49Bd4oPM9c/1SFEsDQ0rZrlz5s0OJveIyWVh3t64Z1CZaGCsP8+jL/8IrZx5je+db2LTsHmoSLaGJflCMZypSBh6A4A9Aw7ZSLG/YzPKGzYCkUs0xlOvm/OhxekdOMpzvIVsaJFscYLTYjxACU7PRdQNdmGhCA0HoARBhoOJiuBDJ0NEhJ5YnfOnj+S6e5+D6VXzpE7fT1CZaSEXrqYk305JZRWvNKuqT7dh2esYjf/74p/B8jyDM5/K/C5ZuUymP8emj/8TbO9+9xLwmijlk5rUlxWWjxF7xushFcn2W0idmpZDSZ6w4yMP7/p5nj32FTR1vYGvnm2itXT+Zqie9UPinGi+YrL9POOs3sK0UrXUpWus2TOyZK/QxUuxjtNDPSKGX4fx5Rgv9jBb7KDsFfN/Dkx6+7+L5bpDnLzQ0TUcTwZKAJjQEWti1S0MTgqsbFATlQn3pBzIu/QnXuy89fN/Dlz6a0NA1A00z0EVgR9RKkok2UJNoojbeQk2ihVSsgdp4M6l482U9+9n8Kb7f9yS2EZYzvjLLaYjV8N3z3+LF/ufY0XjHVbx+hYLlC23A9Y4Se8WlkYB2tQI1X0iEEFhGBNuMUXJyfO/w53j5zGO01a1ne+dbaK9bTzrePFl61/eYUaQm1vgvQNNJxptIxptY1jC+r4/jFKl4ZQrlEUaL/WRLQ+RKQ2RLQxQrY1ScElW3RNUr47gVHK+M4zm4XjW4+c5k8R8hpsxyA+/A+Kx8/HVKGczQhdAwNBNDM9F1E1OzMI0IpmFj6jaWESVixojZKZKRWlLRelLROtKxRhLRGiw9imVGL85mQE4ud0wgQJt+WXi06+ucy3dTN8Na/uVgaiYVz+Ph019UYq+4KoQQ9Qttw/WOEnvFzEgJOkhtMQn9dKT0sY0othHF8Sqc6N3Hke5naUh1sKZpB51N29jQuhNNj0x/oD+DwE/b7gFTlgOEBkLHtBKYJEhE62mqWTOTQVSqOcpunopTouIUqLplHK+C45apelU83wnd6oFLfXy2jvQhDA7UwkBBQ7fQNR1dMzH1QNhNw8bWo9hWDNuMETHi2FZySvGh13rDZljmmL7DePGEaezpewbXB0MYV5W9IKUkYUZ4tPsRftn9XWJG/IqPoVjyzFz4QXHZKLFXzIgQgCYXeqn+shkXw5hIki+P8uSR/2Lf6e/w3UQzHfWb2Nh6J3WpdmoSrZOleF9X/Jiy32UEpWk6tp3CtlOzezFXjP/6A5jLZrrYD5cHeWVoHxnr0nn1l4OlWZwvnOOF/mfY3aoi8xVXzLU+qW44lNgrLkBOXu6vE6GfipRBude6RCuuX6U/e46B7Fn2nHiEVLSONS23Up9o4/9v777jpKrOx49/zr136vZOkS5NQEVEsETFLtg7RmPUGGOqxqBJTH6maKKJyTeJfjUxkajha8GE2CAau6IioBTpZelte516731+f8zuwrKzy+IuzJbzfr1GYefOmWdmh3nuOfec5wwsGMOAvKOa1+BvamS/JX3ttf+IQKtUkh50w3yC5i+m5c86U8OchbZsqd3Exup1ZHk71rGyTA9l4XI+2f2BTvYpUrJjE+G6ajxeH15/WuIj2FTyWmHHojhODMO08AXSSc/Kw+P1tavtWCRM6c5NiOvi9QfxeH17azEocB2HeCyCUgamaeHx+vD4AqRl5rQ3fN2z7yCd7LVmesrqFkEwDQ9B795kHrMjLNrwKnEnRl5Gf3LSisgI5DGy7yT6Zg8l4MskK1iYSID7vg/itK9nfxDRfaGTiY5quByxfyw19SWEYzVs2P0pPm8mxw+b2nTvptr1OGJjKKNDPXsDg7gD66vWfOE2tI6pLt9DybYNbFq9mLKdW/D4/M1OMT0eH5bHSywaJhquQymTwiOGUDRwOMOPPpEjjmy9aq1txyjbuZnSHcWs/3wBdiyK6fE2nbAahoXXHyAeixKurca242TmFuD1B8jM7cNRE6cw6rhT2wo/vfPeid5JJ3utIa9Jl5qGdyiYhkVGIA+AaDzE1rLVgLBu1yIUioA3naGFx1KYNQi/N42CjAH0yx6Gx5uRJEnuR1z2JvHDmcgbRwlUu67bx+N17K7aREnNViKxOkprt7Jxz1LqI9VUh0s5dfT0Zsl+W+3mDif6Rj5LsTu0k7gbw2N4O9yednCGHz2Z4UdPZsSxpzDroe9RsWc7Hq8P13WxY2GmXH4rI8efSm1VGaU7ilm7ZD7LPnqdwNIPWfjmPxk8ajynXnwTfQeNbNF2MD2LY06ZirguHn+Qd/71OF5/AMMwCdVVM3DEMUy74S7CddWU7drCms8+YO2S9/H6Aii1kpUL32TMCWdywQ134/UHkoWvPzAdpJO9htDJHdduwGv58VqJiXuNw40xO8KyLW8TsyO44pCdVkheen8C3nQs05tI/jnDyUkvIuDNwDQ8+KwAXm/63kR7UGdMDScG++bRZkMrB3/6FY/XEY2HcFybcLyOqrrd7KwqZk/1ZmwnQjhWT0X9Lqrq96BQeCw/fk8aHtNLwJNG0JfRrL2ySOkXiiMZn+GhMlpGWbiEvml62XSqFPQfTN/BI9m0+lN8gTRcJ3HZqvCIoU23YWNPYPK51/Dhq0/z3st/x7Q8rFvyIZvXLOXca7/LsadMS9q2MgyGjZ3EZ++8iGPHMT1eYtEI6dl5FA04EoDBoydw/BmX8cbzj/DJGy+QlpGF67os+2AeXm+AC268O1nTOld1kH4De7PGyddmN7w434kaK3OZyiLoyyTYMMEu7sTYUbEOx40jCJbhxWv5MU0PisQ6+pz0PhRmDCQjmEvQl4XPCmAqC6UMgt50Av5s/FYAnxXEY/mwDA/KsBpGChp75K0EJg7SsI4/ZkeI2mGidoj6SDXhWG1DiVubmB2mPlpDXbiS0tqtlNftRFwXwcV24onVAE4UUFiGB4/lI2e/NfaNdQLM/a7hh+y6TnufTWVRb9dTF6/ttDa1L8YwzGYnmUop7HisxXEnX/AVqir28Ok7L5KVW0R9TQVzn3wQfyCdURNOS9q2SjxBU/NKKcRt2Zs4/ZKvUbxyERV7tuNPyyAzp4DlC15n3EnnMmhki11tdc++g3Sy7816+rh9B3lMLx5z73dMYt2727B7noODsKtyA9vKVuOIjduQYBtHCgKeNAK+zIZRhMT2vabhwdyn8M7+tfgFN7H8XVxcsRPFe1ybuBMlZkeIOWHqIzVE4vVA4otUYWAYBqYyMU0vlmHR+Ms1DBO/kU7A27zHnkyiKFDzr4QDbnhzEJRS2G6ceKetHNAOhy9d+FU2LPuYSKiOYEY2kVAtr/3f/1A0aAQ5+X1bHN/eT4zH56fwiKHs3rIOfzAdZZqI47B++cfJkr3OVR2k38BeqqdMxDucEonVbHaSZBoevFbSa4y4rkMsHiYSq2uqeNd4MiBNw/fNr4Y3Jf6GcryqofhOogJf4iTBZwUIeA/FfCVpUfc+YAU7s/VElb825j/U1lQTDoUo7LM3iUTCIXZs20pObh65+QVJH1eyexd1NdUMGDIUj6f9ncDtWzZTV1tDWkYGAwYNaffjdm3fRlG/fokecoPNG9eTlpGyakLmAAAgAElEQVRJQWFRu9vZsW0rJbt2EkxLY/joo5q11x6xaJQtxRsRcckv7ENufufXnsnMKWDY2EksfvdFvP4A/mAG1eV7WPDac5x/3R0datu0vM1OKEWEaDjpaFIvu9DY+XSy740al9v07tH7Q84wzIP+8k4dlbgssF+vuzBQRGd9UFzXIWAFW5xARCMRNm9cz7uvz+O5v8/k4muu4fZ7fk44HOJ3P7uHt+a+TDQapahvX86YeiFfv/0ufP7EfIvPPvmI/33wPlYuX4rH42XA4MF85dbvcN4lbW+68+9nnua1l+cQj8WJhsNUVpSRlZPLtMuu4tqv3dri9yYilO7ezfx33uCf//g7GZmZ/OX5lwCY9fijzH7qb5Tt2UNeYRGTTzudO37yS4JprRcP+nTBR/z9kf8hLSOTgYMHs271KrZtLubsaRcz7YprCAQDRCMRXFcoKCoiEGzeVnlpKU888jvWLF+OINTV1FBbU8NRxxzLNV/9GiecknyI/YsaMOIYVnzyJq5jY5iJmfUbP19AbWUpGTnJT8DaI1RbhWEm3msFiOvSd2DLCYBAy2sM2kHRyb4XUShCGfWI6j7FcrTDRwSc/YoMDUwfitNQ4rejM/LjEifbm0NeYG9y2LltK0899jDvv/Ea27ZsYldpPV/NyaOsZA9333Yz5SW7GTpiFFuKN7D68+UsX/IpsWiUO++9n38/O4vf/+Ie8guKGHP0eNasWMYnH7zHulWrSM/M5JQzWq7nt22bX/zgu8z91/Pc/N07ueSa6/B4PCz7dBEP3PMD7vrGt/jo3be4/+G/kJOX6CVHwmH+NetJ5s6Zzcqln1Gyu4aLrryIcCjEA/fM4K25r9B/0CCy8/IoXreGFUuX4LG83PXLB5K+D3PnzOauW2/k9HPO485776OwqA9VlRXce8e3+fU99zDv3y8gAmWleyjdtYvfz5zFxVd/uenxq5cv5bs3TMcfDHDXLx5g5JhxOI7Nv2Y9xW9++lPe+c9cvvuj/8eN3769Q7+vfRX2H0IgLZNYpL4h2QepLt9N8apFHHPy1AM3kMTuLevYsXEl/rQMRFxqK0s5Ytg4Rk88Pdnh+9d11g6STva9RsMuaIagusrONlqXoVRivoDrNP9OHZY9Eq/hwxWXjm4xGrZdCgJ9SLP2XoKwLIsLr5zOsJGjeOhn9zDE72fp4k+IRiNccPnVXHrt9UBiiPyH3/waK5d+xntv/AfDMNmycQP3/fHPnHbO+QAsmv8+937/26xbtYJn//bnpMn+wZ/M4NE/PsbM55/hoqumN/38rGkXcczESVw/7UxeeWEO4VA9j8x6gbT0DFzX5egJExkxZiy/mPE9LGsLkUiYn/3g22Rl5TLrP28xeNhw9uzawc++/x0+ePN15s6ZzaXXXs/w0WOaPf/SRQv46fduIzcvn/sf/ivZuYn9BrJz83jwLzPZsW0LyxYtYOLJp3LbD35EqL6O4yad1PT47Vs3c+vVl+Dxenj2P++Snrm3sNy37/4JefkF/GLG93jgJ3fhC/i59uZvdOh31igrtwiPz0cknJhcaZoWsWiE0p2bD/hYEWkxUrJ94wr+8/TviITrsCwP4WiEYWMnc+FNdxNIS1osT/fsO6gdBbW1bm+fvWx0oteSU7jiEnMizX46KGMoI7JHUW93bAa9NNRxGJJ5ZLOfF/btx9jxx3Hm1ItIz8jAdRyqKiu4dPr1TYkeYPCw4Vxz4y2YpsnuHTvYWryRBx57oinRA0w85VSmTL0AZSh2bNtK6Z7dzZ7r43ffZuYjj3DW2V9i2uVXtYixoLCIm75zB4V9cvn4vbf5x+OPAhBMS2Pccccz8aQvMWrs0di2zZbijZw85Wx+/OuHGDwssU9CUd/+XP3Vr+EPBAjV1bHs00X7vQnCczP/yu7tFUw+bUpTom/k9weYct40RKC+vo4zzpvGlV+5iQGD984leOy3v2btmi18/fa7miX6RtNvvpVTzz4XwzB4/Pe/Yf3qlW38VtrPF0zbp0hOIoFbHi+h6soDPtYfCFJTUcJH/3mWt154jOf/9ENmP/JjSnYUk5aRw8jjvsRNP3mc62b8gay8lhP+GoQ65YX0YjrZ92BKEv+RblTjXksdhSIab/6dmuXN5rjCSVTFoh3ai952bTK9ASYUTEp+fzxGWloalZVVTDjxZAr6tPzSHzx8BI5tE41GmXr5VfgDLSdGDhg4GCQxqa+6smJv+7bN8089QXW9zfEnnYJpJp9LMe2yq5uS97w5s6ksL2t2v98foKa6huGjRnPRldNbPH7Q0GH4A0Fi0Si1Vc0TYXVlJRvXrSGYbrS4Bt9o2MhR+Px+1q74nHf+O6/ZfZ9/tph3X59Hfl6AcRMmJn08wIVXTscfCLJ75w5emv1/rR53MJRSWJan2aUcwzCIxaIHfKxpeYmG69my9lO2rl/Ors1rqG84STAtC9PyUrZzM3U1FW01U9XBl9Dr6WH8nkzpDK+1n6EMYna4xc9P63cOz6x7iqgbxfsFK9/F3RgFgSJO6jMl+QEKlGmiFNjx5EvzTGVgmCYKCIfqk7+GhiTuui7uPmu7t28u5tMFH1KQ7SU7p/WtetPS0xk59hg2rFnNnp07+WT+e5x38d7Jfkrt3Y7YcZwWJw0enw9Uw2RHp/kE8rht4zguHo+HSDiUaGS/SyPBYBrSUEt+//dh/ltvsGfXDgYPG05aeutLKceOP56s7GwMQ7F88SLq62rbPL69ErPm1b4/aPWkaV+humr6DR3N9Nt/i2PHCdfXsGfrBj6cN4ttGz5n2fx5fPbuS2QX9GPiGZdx0tQvJ2umpsMvoJfTPfuepmFTC53mtYNlKJO4HWmx/O7MI87nqJyjqI19se9bpRT18RCTik6hINjasrTEMsO2PrjtWfMvIg2XrZon0fVrVlNfV4PX58XjaXtzl2EjRuLxeamprmLH1s37v5gDBND6+Ed2Tg4FRUXE4zG2bS4mHG45Mm3bDrFIhPTMTPr2H7DP63IpXrcGr9eH1+drM8nm5uXTf9AQQLF7x3YqykrbjrkdHMfGjsf2eW2KeDxGIP3Am9GJCKqhwqRpeUjPymPYuElc8c1fUth/KIZpkpFTQH1NJa8/80femfN4smZ0su8gnex7HAEaq7N1Wfpz1wUZhkkkXk843nydc8AKcuWRN+C48oUm6TluYtLf1cO/2hlhfiGV5WWJSWXxONFoy9GLfeXk5aOUwrVt4rGDLQDU+gmJ5fFw/qWXY1keVi9bypKFC1ocs+bzZVTVCZNPO4PxJ0xu+nksGqWmugpfIEAkHMa2W48rEAySk5ubKMYUi2HHOz6RPVRTiROPNSVtERdlmOQWDTjAIxsq6CWpxx3MyOakqddhGBbiOgTSMghmZPHJ68+zo3hVs2NFpKxFA9pB0V+6PYVIYnGUNFR6a9iTpYve9GSbLsg0LEKxGkKRlp2o6SNuZHTuUVRGKpu+8NtDodgTquC0fmdxUt/TOzHag+PxNO5+qKiqKG/zWJ8/sTmM1+8nIzOrU+O4+OrruPFb3yMcDvPgT++meP3apvs+fu8dHvvdr5g06RjuvPc+LM/eHRtN00pc3zZNaqoqqatpvaNrejx4vD7seJz0zEwCbaz3b6+q8j3EImGUkTjZi8ciZGTnMWD40R1qd8hRx5GenYvjJJZ8+gJphOpqKF61aP9Dd3ToiTR9zb7bEoXyxlGmg7iC2VRgqkv36BMTBl2jTOJJ9pHXUso0PNRHq6iPVpFP841qMjyZ/HDCfVz/xmVEnBA+w9+uNsN2iHRvkDvH/782K+cdakcMGoKIEAymsXnjBlzHabq+v79YLEY8GiUnL5/hR41JeswXpZTi7vt+Q21NNW+88hL33v5Nxhx7HI5js2ThJ1xx3Y1858f3kpvXvBKe5fHQp98RREIhPD4fG9etYez4CUmfw7VtHDtOqC7EoKHDKSjqk/S4g7Fry1pCdVWJZXFKEY2EGDr6ePoOGtGhdn3+NHz+IKGaxPw7EcH0eIiGWlTR29qhJ9J0su+2TAenPAc75kOUQbeZbu8aKE98u5VTBXoZYJdiGhZ1kQpCseqk908ddClXHXkNz657jiPS/Qf8xCkUZZE67jj2Dib3+VLnB3wQRo4dx4DBQ9m+uZgVSz9j66ZiBh85POmxleXlhOrrGTv+eI5uY9b7F/Xai//CcVxe/ugz7Fic9WtX4fV6ufX7PyS/jVK7xxw/kReefgJEWPD+O80K7ewrEg5TUV6K7cD4Eya3axLdgWxZswTHsTFMEzsew+PxcsLZV3a4XTseIx6LNs2FUChcO04wo8WIys4OP1kvp5N9N6VMl9iOvriVuShPYkez7kDiFkZW7QYrtyKEmJ1XeF3rFApFdX3rE7rum/wnVlV+zpqKlRQGi3Bb2RtZodgVKmFyn+P50YRfHfh5lcJQRmKCupH8MkHjfIHEjPjkn/fEz6XFMZlZ2Vx09bU8eM9dhMMh5s15gW/e9eOkbaz5fBmRiHDhVdPx77e3umE0xNhKDEo1VBpUCiPJ61j00Qd85ytX8+Cfn6Cobz8A+g8alDSO/Z1z4aU8O/NxlixcwIL332XD2tUcOXJ0i+PKS/ewbNFCRo0dzbQrrkneWIvYW39Pt6xdQvGKhaRn5hKPRairKufMq29j0Kjx7WybVi/9bNvwOXVV5ZiWhVKKSKiOtIxchhx1wr6H1QAbkj+Z1l462XdXtklgxCaQzamO5OAptuOaHwFnpToUrTnT9FJe2/rl0Tx/Ab8/+W9c+drZlEfKyPXntZglr1CUhEsoCOTy0MmP4zMPPOTv8XgIh0IYRusrRj1eL67r4jgOlpX8MlCiF6uwYzFMq/nX25XX3cgbr/ybhfPfZ/bTT3DG1AsYNbb5Ned1q1bw6j+f55QpX+KS6de1aD8aCWOoxqpwLROY5fFgKIN4LIbjOi3un/X4o0RCDm+++jIKRVZOLl6vF8vjwbQsPB4vfr+fvMKiFsPvgbQ0br3jLu782lfYtX0bjzzwS/7w92daPMecZ/9BWWk9P/3tnfTp1y/p+ySu2ywnu+Jimi3f03B9DW/OfgxXXOLxKOG6Gk6aeh2nXnhT0nYTjcve/Tca/p5sjwjXsflw7j+Ix6N4fH7isQihumrOuuK2/S8PlACbW39CrT10su+GlEosL1Jep7t06JsTEMd4QYSzumX8PZhpWJTWbm3a3z6ZCYWT+dsZs/n6O9dQHi4lz1/QUCFP4YjNnnAFo3NG8sip/2BcXiu9vwaOY1NVUcHcObNZv3oljgtvznuZqZddSVHf/mRkZRGNRKitrmbOM09TXVWH68B/5vyT8SdMJjM7m2BaOvV1tZSXljJ3zmxiUZcNazfw6j+f58s330pmdg4er5f0zEweePQJZtx6I/Pf/IBbrriQn/3+YU496zwc1+GDN//Lz+/8NiPHjOXhWbMJBBIDTyJCXW0NG1av4v03XsNx4NMF83l73iuMn3wSmVnZuK5LbXUVLz03i53btxEOubw192XOu/hy8vILCKYnSgT3HziIwr65fPDm67zywhxME5SR6AxbHgufz09aWjoFffpyypln8/XbZzTV6AeYcv4FzPjlA/zuZz/m+SefxbIsvnX3Tzhi4GDqamt4/H9+w1OPPcwP77+Xq264Oel7Ho9FqS7bjUhicyJB4cSjbNu4guHHnpzYijgWZe2S+bwz53F2FK8iI6eAzNxCpn3lLsZObvscvbJkO9FwHablwXUdTI+X0h0bKdm+kYL+QxFx2bRyER/O/QebVi7G8vqorSolkJbFudO/y8nTrm/Wnoisa/MJtXZRnblfdW/04Av7lN1UIGZi0xCUIKJQSvDgErI9FOXUcOKI1bz88QlYHhcHE6VclDScZSsFjo9YoAoFeCIZiOHiOJARDHHGmM95dfHERLLv/rIFYyWQvOuhpYTtxAj6MvnGOf9LwNv2Guq3t7/Gt967jspoOfmBIhCXXaFSzh5wDg+d/DhHpB94eLqsZDdPPvYwmzesJxaNNhWcKerXn+Mmn8QV193Isk8X8ersZ9iyaWPDToKJnnO/AQM547xpnHbuVN545UU+eOu/7Ni6GX8gSDwWwzAMho4YyZU33MyQI/f2FCtKS/jLH37LG6+8SKi+jn4DBpGWnk40EuHYiZO48977m3bVA7DtOC8//ywfv/82ZXv2EAgGiYTDZGZnM+KosVxz4y3UVFcz5/+eYv3qldh2HMuyiEWjFPU/gjPOm8ZZ0y5uau+H37yZRR9+wNARI6ksLycaiRCPx7BjMeJ2nHAoROmuEsqj8M3bbuT+hx/HNJv3y95+bS7PzvwLyxYuICM7h/zCIrxeL+K6XHPTrVxwxdUt3utt65dTU1nGigWvs3rxO1ge396ldK4LSpHfdyAer49IqI66mgq8viD9h47hyHGTGD1xSmt16wnX17Bt/XIqdm9nwX+fp2LPdrxNl0AUth0lLT2brPy+xCIhqkp3Eo9FyeszgGBmDv2GjObYU6bSb0jLyxIi8hvg7o7uzdDb6WTfQYcr2WcF6zn/mM/418cn96DKeOrbotTDPeXV9ASOa6OU4rpT72dAXssv3v2tqfycW9+9lg3Va3BFuHDw5Txy2tN4jbYL1zQS1yUej+P1NT/etm1EXDweL47j4DgOXm/z6n2NCd20rMS6c6HZcrXGY0zLSjrkXllWxsplS6iuqiQjM4ujJxxPdm5e0jhjsSiGYWLtc2nAdV3isVgiyYoQi8daXOOPRqMYSuFpiH3j2jX86dc/5/af/IIhRw6ndPcuQvX1TQk/bseJhEKUl5by35fn8NF7b/GX2a9w3D5r7ve1duXnbCneiOPY9Ol/BOMnJj8OYPWn71FVsgN/Wjq+QHpDok/861NKYdtx4tHE3giWx0t6Vh6FRwwjLTOn1TYb1VWXs2bxe7iOjS+Ygcfnb6qj37iddiwaxnVsBPD6/ATSs0nPyqWg76BE3f3WTQeeO2AQWpv0MH43oBDiYrGrNhfHNLvNxPsDUjyKuNcrOOHAB2uHg1IGcTvMzsr17Ur2o3LG8ZfTn+WclyeQ58vj/skPtzvRQ2Iy3v6JHmiWVE3TTDqj3LNP8m/tGr7H23oSycnP55QzW+6Ml4zX2zJGwzCaRgAU4Ddb1ur37fPaKsvL+O4N13DtTV9nSMNKgGR7ADSadvlVXHTKBEp3tT4RfeSYcYwcM65dr2H0hM7d435f6Vl5HH/mZZ3ebqL6nlrR6Q33QjrZdwOGcqlx03h1/Ql4fQdb0avrEmW4Hjt+vS8WXyJK6Zn5XYChDKJ2mF0V69v9mFE5Yzm+4EQiToSCQOEhjK77ch2X3/38HjauXc1l193Qrsfs2LqFrOycVtfT9wZKqTUiUtzw51SH063pCnrdhELwmjZK6EE3QcE6pbgl1e+vtpehDMprd+BKy9nkrRmYMZR0z4HrpPdWG9et5o1XXyKYls7zf/8brtP2e1tbXc2Pvvk1TjnjHPoPbN/SvB7qM/T2tp1C9+y1LkCeEVS+gj+mOhINvFaQivqdlNVupzCzfYkmzZOOoXtercrOzWPIkSP49OMP+cP997Jk4QLOmnYR/QYNIi8vH4/XRzwWZ8+u7Xz+2SJeeu4ZJp16Grd+/65Uh55SIvKp7tF3Dp3stS5C/iQQVKhfpzqS3s5r+ams28XOirXtTvb18To212w8xJF1XwVFffjjU8/x0L0/ZsEH7zDnmeeY9fRz9C0IkpmVDUAsGkPEJSsnl2/c+cNWl871IjHg3cZJ5Drpd4xO9lqX0DBh9wEXKTFQT6Q6nt5NYRoWW0tXcezgc9r1iLMHTCPHn9e03l5rqahvP377+JMsWbSAj955i+1bNlFeWkI8Hsfn89Gn/xEcO3Ey519yOT5/y8l+vVAxiWF8rRPoZK91HQLKUDOVK1sF/opSg1MdUu8k+DxpbC5dTiRej99z4F3Tpg2+nGmDL0+UitXaNH7i5DaXyGkJIvJuqmPoSfQEPa0Lkjdx1BSBN3XqSA3L8FAdKmFXZftn5QO6V691prmpDqAn0cle66o2gzpbufI9hNY379YOCaUUcSfK6h0fpToUrRcSkd1KqfcbNxzS1+s7Tid7rUtT8CfgRETmpDqW3kUBiq1lK7GdWKqD0XqfF0WkRkRovGkdo5O91h2sUq66XJScL4juah4mfk+QPZXFbCpZnupQtN7npX179bpn33E62WvdiHpNYIogNwC6hOYhZhoeonaIDbsXpzoUrXfZCry/b69e9+w7Tid7rbuJAU+LknEicr2IvA+gJDHsrHWuNF82a3Z8SH20OtWhaL2EiMxWSoV0z75z6WSvdVsCs0TkTOWosx3TfhHlVumvhM5lmV4q6/ewdufHqQ5F6wUaNr75e6rj6Il0ste6O1u5xpu2v/5S14xPEjHuFVislOC6BnHbQvWYLYFTZ8XW91IdgtY7vAms2n8IXw/jd5xO9loPoQDWuahfCHzJddVpXiv2p8y0+mLH1R/zjvBZfraXr2bj7k9THYrW8z0GsP8Qvh7G7zj9Laj1RJFIzPv+gPyy7506esXI6lBgGsgfBBaC6Cv7bVCA7Zi4omj8fvVY/s9Kanb+at3OhQ+lNDitp1sHvJrqIHoqXS5X67FU4j+2Qs0TkXkKDAd1nCBHWwbnI+okoBCwlAI9UgiuKDfoj5TYtrnQcYy5KFkajtd+NjD/GHvyiEsBpgJHpThMrQcSkf8FYq0N2evefcfoZK/1WAKINPuCcEVY7MJiYKYS149Sx7mo012X8YbiSGAsiNVsZn/DLj09jQMY4KrEMsYNIiypj/nenzph0eKlxUNCm/YU4fPGiTsx0v055KT3AXiYhqFWTessIlICPJnqOHoyney1XmefNB4BPgI+itsKryWWQo5ylTFQwVhwj0HU0UoYiCK9WRsC0oU7GkoJmA4S9ySCTQiJyGaFWqUMluQ4rKpVsllQq0SpGLgAWKaDYew9uzEwMA2z8a9PisgMpdTQw/l6tJ5NKfUg6LLYh5JO9poGjdenbWA5qOUgr4JgOpbfF/Zl1mXWjzBdNUIUw1AcKUoVKnELQeUDuTT8W1IiyOEabhQFlgPKhURSd4EylJS5jlUmIX+JCkY2KJeNKGOdmOY67HgViZMcggJ1quWghesaTSMiyjBw3Bhnjbsu8ZQiEeDXwF8Pz4vUeoHdwMxUB9HT6WSvaW2LGK4RAUqA+UoExzARS+GJ2V5XzEKgUCG5oox822PmWnE7X0Geq1QukKmQdBGVmRgdEL8S5QXxi8JSYAkYCgwBVwmuoFwUNhBRIhFRKgJSp0TVCVKjFDUCFVh2uVRllrm2VeHJL68Q21MmUKYMd7cT9cXsXfn4RxZDzEz6wpwDvHBDGVTWbWP8kHPpnzscaLpu+jRwN3Bk57zFWm8mIr8Dqg50nL5m3zE62WvaAUiydfqJH8WA7Q03AGzTxIrHE/fv/XIySPxb8+7zZ2OfW+MxbsOfG/9vN9zchuey97kPDBup9+NG/dCnBGzP3viUoCynQ3MN4k4UnxVk8vBLsEzvvnfFROSXSqmnvnjrmgYishV4NNVx9AY62WtaJ1LJZxI3JuvO3T5OFJhuQ1Lv/F5PXaSKCcNOZFDBuGRFTZ4WkVuUUqd0+hNrvULDZ2qGUiqU6lh6A73OXtO0FlxxSPdnc9qYLwPJi5wope5McZha97ZAKTU71UH0FjrZa5qWhGAaFrnp/do6aKGIPHO4ItJ6joZe/R3JyuK2dtM6Rid7TdOSUIgI0XhihLWNL+C7RaQipaFq3dGjwIJUB9Gb6GSvaVoLShlE4yFccQ906HZgxmEISeshRKREKfWjVi4NtXrTOkYne03TmjGUSXnNNk4YfglZwXyg1Wv2jbeZIvJuaqPWupFb0AV0Djud7DVNayYSryc/cyCTRpy3/5K7ttwC6FnVWptEZJZS6uVUx9Eb6WSvaVoz9dEqRvU/kX65/dv9GKXUBhG55RCGpXVzIlIM3JbqOHornew1TWuiGibmVdfv+iIPfwb4ZyeHpPUcNyil6lIdRG+li+pomtbEdm2ygwX07X9Vw5a/B7fkSURuBo5VSulSuloTEfmpUmp+quPozXTPXtO0Jq44BLwZFGQe/0WbqAGmi4jdiWFp3ZiIzAPuS3UcvZ1O9pqmNVEoHNcGqjvSzGISE/a0Xk5ENiilpuulc6mnk72maUkolDrgkru2bk+KiN7gpBcTkRgwHb3MrkvQyV7TtENCKfUtEdHLrHqvK0mM8mhdgE72mqYdMkqpK0VEf+H3PjMAfaLXhehkr2naoRQDLheRzakORDs8ROT3wEO6zG3XopO9pmmH2lbgXGB3qgPRDi0Rmam3Pu6adLLXNO1wWCciFwN6h7weSkSeA25OdRxacjrZa5p2uCwUkXPRs7N7on+SmHmvdVE62WuadjgtFpFpQFmqA9E6h4g8IyJXpjoOrW062WuadrjNF5GT9aS97k9E/gZ8WU/E6/p0stc0LRXWAdNEZE2qA9G+GBF5CF0psdvQyV7TtJRQSq0CThSR11Idi3ZwRORbSqkZukfffehkr2laKlUB54vIzFQHoh2YiIRE5GqllC6F3M3oZK9pWldws4jMEDm4LXW1w2o5cCIwO9WBaAdPJ3tN07qKh4BLRUTP1O9iROQZ4DQSCV/rhnSy1zStK3kRmAS8rXv5qScitojcA3yZxCUXrZvSyV7TtK6mGDhTKfVTwE11ML3YKmCKUupXqQ5E6zid7DVN66ruA84GVqQ6kN5GRB4XkZOB+amORescOtlrmtaVvS0iJ4rIA4Cd6mB6gRXAhcCt6GH7HkUne03Turo64EciMkVEFqQ6mJ5IRBqL5JwIvJrqeLTOp5O9pmndxXyl1IkicpuIbE91MD3Ii0qpY4AZJE6stB5IJ3tN07qbPwPjG3qikVQH012JyFIRuRq4FL2krsfTyV7TtO6oTCk1A5ggIo+KiGWiA1YAAAEwSURBVL6e304iskJEbgEmoAvk9Bo62Wua1p2tUkp9CzgGeBo9DN2WFcAdwETgb+hljb2KTvaapvUEq0TkBhGZJCIP6Cp8e4nIfBG5XkTGA39AX/rolXSy1zStx2jYSe9HwBgRuVtEPkt1TClSISJzROR8YAowSymlL3X0YlaqA9A0TTsESoDfAL8RkanANOBapVR2asM65BaKyAtKqTkkKhFqGqCTvaZpPd88YJ5S6tcichLwZaXU8UC/FMfVGVxgjYi8CvxbKbUUPUyvJaGTvaZpvcV2ErPPZ4tIIXCBUmoicCpwVEojOwgiYiul3hSRhcA7wLspDknrBnSy1zStNypRSs0UkZlAJjBKKXW8iEwBjlVK9QOCqQ2xSYmIbAYWKKXeU0qtEJF1qQ5K617+P8BcaOf04dK7AAAAAElFTkSuQmCC;fontColor=#000000;fontStyle=1;fontSize=14;" parent="1" vertex="1">
                    <mxGeometry x="720" y="430.5" width="114.11" height="79" as="geometry"/>
                </mxCell>
                <mxCell id="25" value="Mongo Express container" style="shape=image;verticalLabelPosition=bottom;labelBackgroundColor=none;verticalAlign=top;aspect=fixed;imageAspect=0;image=data:image/svg+xml,PHN2ZyB4bWxucz0iaHR0cDovL3d3dy53My5vcmcvMjAwMC9zdmciIHZpZXdCb3g9IjAgMCAxMDI0IDEwMjQiIGhlaWdodD0iODAwcHgiIHdpZHRoPSI4MDBweCI+CiAgIDxjaXJjbGUgc3R5bGU9ImZpbGw6IzAwOTFlMiIgcj0iNTEyIiBjeT0iNTEyIiBjeD0iNTEyIi8+CiAgIDxwYXRoIHN0eWxlPSJmaWxsOiNmZmYiIGQ9Ik04MjcuMyA0NjEuNWMtMS42LTEuMy0xNi4xLTEyLjItNDYuNy0xMi4yLTguMSAwLTE2LjIuNi0yNC4yIDIuMS01LjktNDAuNy0zOS41LTYwLjUtNDEtNjEuNGwtOC4yLTQuOC01LjQgNy44Yy02LjggMTAuNS0xMS43IDIyLTE0LjYgMzQuMi01LjUgMjMuMi0yLjIgNDUgOS42IDYzLjYtMTQuMiA3LjktMzcuMSA5LjktNDEuNyAxMEgyNzdjLTkuOSAwLTE3LjkgOC0xNy45IDE3LjktLjQgMzMuMSA1LjIgNjYgMTYuNSA5Ny4xIDEzIDM0LjIgMzIuNCA1OS4zIDU3LjYgNzQuNyAyOC4yIDE3LjMgNzQuMSAyNy4yIDEyNi4yIDI3LjIgMjMuNS4xIDQ3LTIuMSA3MC4xLTYuNCAzMi4xLTUuOSA2My0xNy4xIDkxLjQtMzMuMiAyMy40LTEzLjYgNDQuNS0zMC44IDYyLjQtNTEuMSAyOS45LTMzLjkgNDcuOC03MS43IDYxLjEtMTA1LjJoNS4zYzMyLjggMCA1My0xMy4xIDY0LjEtMjQuMSA3LjQtNyAxMy4yLTE1LjUgMTYuOS0yNWwyLjMtNi45LTUuNy00LjN6TTMxMiA0ODkuOWg1MC43YzIuNCAwIDQuNC0yIDQuNC00LjR2LTQ1LjFjMC0yLjQtMi00LjQtNC40LTQuNUgzMTJjLTIuNCAwLTQuNCAyLTQuNCA0LjR2NDUuMmMwIDIuNSAyIDQuNCA0LjQgNC40bTY5LjkgMGg1MC43YzIuNCAwIDQuNC0yIDQuNC00LjR2LTQ1LjFjMC0yLjQtMi00LjQtNC40LTQuNWgtNTAuN2MtMi41IDAtNC41IDItNC41IDQuNXY0NS4xYzAgMi41IDIgNC40IDQuNSA0LjRtNzAuOC4xaDUwLjdjMi40IDAgNC40LTIgNC40LTQuNHYtNDUuMWMwLTIuNC0yLTQuNC00LjQtNC41aC01MC43Yy0yLjQgMC00LjQgMi00LjQgNC40djQ1LjJjMCAyLjQgMiA0LjMgNC40IDQuNG03MC4xIDBoNTAuN2MyLjQgMCA0LjQtMiA0LjUtNC40di00NS4xYzAtMi41LTItNC41LTQuNS00LjVoLTUwLjdjLTIuNCAwLTQuNCAyLTQuNCA0LjR2NDUuMmMwIDIuNCAxLjkgNC40IDQuNCA0LjRtLTE0MS02NWg1MC43YzIuNCAwIDQuNC0yIDQuNC00LjV2LTQ1LjFjMC0yLjQtMi00LjQtNC40LTQuNGgtNTAuN2MtMi41IDAtNC40IDItNC41IDQuNHY0NS4xYy4xIDIuNSAyLjEgNC41IDQuNSA0LjVtNzAuOSAwaDUwLjdjMi40IDAgNC40LTIgNC40LTQuNXYtNDUuMWMwLTIuNC0yLTQuNC00LjQtNC40aC01MC43Yy0yLjQgMC00LjQgMi00LjQgNC40djQ1LjFjMCAyLjUgMiA0LjUgNC40IDQuNW03MC4xIDBoNTAuN2MyLjUgMCA0LjQtMiA0LjUtNC41di00NS4xYzAtMi41LTItNC40LTQuNS00LjRoLTUwLjdjLTIuNCAwLTQuNCAyLTQuNCA0LjR2NDUuMWMwIDIuNSAxLjkgNC41IDQuNCA0LjVtMC02NC45aDUwLjdjMi41IDAgNC41LTIgNC41LTQuNXYtNDUuMmMwLTIuNC0yLTQuNC00LjUtNC40aC01MC43Yy0yLjQgMC00LjQgMi00LjQgNC40djQ1LjJjMCAyLjUgMS45IDQuNSA0LjQgNC41TTU5My40IDQ5MGg1MC43YzIuNCAwIDQuNC0yIDQuNC00LjR2LTQ1LjFjMC0yLjUtMi00LjQtNC40LTQuNWgtNTAuN2MtMi40IDAtNC40IDItNC40IDQuNHY0NS4yYzAgMi40IDIgNC40IDQuNCA0LjQiLz4KPC9zdmc+;fontStyle=1;fontColor=#000000;fontSize=14;" parent="1" vertex="1">
                    <mxGeometry x="610" y="320" width="76" height="76" as="geometry"/>
                </mxCell>
                <mxCell id="27" value="Cloudinary" style="shape=image;verticalLabelPosition=bottom;labelBackgroundColor=none;verticalAlign=top;aspect=fixed;imageAspect=0;image=data:image/png,iVBORw0KGgoAAAANSUhEUgAAAfQAAAH0CAYAAADL1t+KAAA9yElEQVR42u2dP2xVV77vXaRAuiRBT4yEMFdykQfMTW7ieZeCgoKCIgUFRUbi35PQxRmhyBMZQyQKS9eKM4+CgsKFixQuKJCuCwR+My5cuKCwFLCPIh5juE7kgsLSuPANh+QUp/Bbv7W3wRj7nL32Xmvttdf+fKQlkhnic7z/rO/6/e/pAQAAAAAAAAAAAAAAAAAAAAAAAAAAAAAAAAAAAAAAAAAAAAAAAAAAAAAAAAAAAAAAAAAAAAAAAAAAAAAAAAAAAAAAAAAAAAAAAAAAAAAAAAAAAAAAAAAAAAAAAAAAAAAAAAAAAAAAAAAAAAAAAAAAAAAAAAAAAAAAAAAAAAAAAAAAAAAAAAAAAAAAAAAAAAAAAAAAAAAAAAAAAAAAAAAAAAAAAAAAAAAAAAAAAAAAAAAAAAAAAAAAAAAAAAAAAAAAAAAAAAAAAAAAAAAAAAAAAAAAAAAAAAAAAAAAAAAAAAAAAAAAAAAAAAAAAAAAAAAAAAAon2uP9/cMNfp7hhdO9ww3Lql/vq7+ebTn6uLNnqGFyWyrcVv/N5trqDGgf9bVxVP6Z//5x0NcaAAAgCKImF57fEKLrIj01cYd9eesWktqtdTa8LhW1ZrRh4CriyPJIWLhuPpu+7hRAAAAwldP9yphPKmE8oZa4+qfH6YCulGRtaLE/Z76c0x99zM9Vxc+4qYCAED8iOANL1xUAjih1iO12hUS76xrXXsTJAwg7ns5tAAAAFQacZ2LgCdW7GqE4p1ltbTnQeL0EkYAAAAIntG597QLfXjhlnZH11PAM1jwKidADjrf/HCAhwYAAEIR8T1KpM6miWtrCLbxmlXiPqQz9wEAALxb4pLtnWR+NxFlK0vyCeYQdwAAcM/XP36SutOxxF3H3bXlrurixQMCAABQGKm3lrKy4YUnkWalh77WdBOca4+P8jACAEAeIe9XYjKFSz2oNYfVDgAA3dGxcd3+dBnxDHq9INYOAAAIeVyx9pv0nQcAQMhVydnCIDXjUWTIT9B6FgCgvkL+AjGMUNiHGn085AAACDkrBmGX8kI60QEAREjSkvUJYler1dQjX8mKBwCIgGTC2T3ErdZrRbfnBQCASlrk+3RDEprBsDZXMm/+GC8HAEB1rPLPac/K6rBu4oYHAAgZqUdOurthlbO6rVVlsZ/hpQEACM4qV/3W9axtxIpltO7ScQ4AIARkaIf0+EaYWIWs9cUveJkAAEqzynVNOcNTWLbWFNY6AIBfq3w/pWiZarBXdlktrk+Hca2SVAkAAK6t8sVT2kVaV9fw1cV5HfeVTO2ri1e0q1ia5kg5lrQ8Nc3elm5q8t9de3xC12rLFDPpsna1cScNZdTxWrfThjTv8cIBANhGNteri2M1yWBfTT0QY6nIHi+1zEq3zFUHhuGFi2qNqn+eqUlZ4Dx94QEAbJKUo81H7Bqf1eKdWNv7KnNfJCFRRP7q4rhaSxEfrk7zEgIAFBeNE5GNNxUPwyNt6YqrPKYGJ2LNJgJ/NzoLfqhxHRc8AEBeJEYch4u9qd3UEp+ukgVe/P6dSmP9S3HcR5VXQIc5AABja+929bOllaUqFutXT/dyOFNDcpLmP4+IqwMA1IEkAWuqwlbctI6FI+K7kzQDGqnwXPp1nagIAAC7bvT704lY1RvPKTFWSd4DU0/MyTRrvl25XAh6wQMA7Lix96lNcrlim/qctsZJlipO4pIfq1w//qHGADcPAGCTr3/8pEKZ7K2e4cXv1Ubez41zcrDbp70dVXLHS8UChzoAwDJTDUuqUeLU0h3UcKv7QXIpxPqtitdmaGESUQeA+pLUmDeDj5Ui5GUK+3s9w41LlRD2RNQpawOAWop56Jb5lA4HQBjCXg1X/CyWOgDUh6ThSCvgRKeHOhQAIQr7nrRZTZMGNAAApYq5Gk0Zrpiv6e50bMbhI1PikhazoZa7zWCpA0C8JG72UMV8olZtWeN6phokygEA+ELKvMKMmTdwr1ecZLTujUCt9SlEHQDiIakzD03MVQx2YZDNNjprfSlI7w8AQOVJZpmHlpn8SPcThzitdSkzDM9aH+PmAEB1kZj08MKT4DZWrHKs9XLWFW4MAFTRUtqTDt0IZTNd1eVyUB9k4l1Yk/vausoDAKBSJCVFAdWVq+EfUFdP0UBA1RUtRq8CQJXEfCSgwRm3qCsHLaLhJGau6Dp6AIDAraGTgVhDTT3aFODNs7lPdXGbDmb0LgdNAAiWcMrTXjDeFHYkqVkfD6hFLAmaABDcRrlHl4OVv1EuES+HrgwvDIVR2qZ6IQAABIVYGyFMuqJ9K2RlqHEmgCEvbaovACAgMV88G4CYjxOThByi3p+WNJYbIrr2eD83AwDKFvNjASTBTRCLhNxI18DScz9Ush7PMACURhhx85tshGDBUu9Tz9Jyyc/yCDcCAMraBG/THxsis9RXSo2nS6UIAIBXkkYd7RIbxoxyE8CRpb5SapUGHicA8Ebial8uNQEOwK2lvlxqGAkAwAuShFZaX/aFSSwYcE65TZLa9HsHAPeU6WofXriHmIM3kjbG66W53mVaHACAE0RMy5tvTu9rKEvUmyR9AkBcXF28UtLGtkzjDSjxuT9L1jsARLSpqf7o5VgqTTY1CEDUyxoJPMPFBwDbG9pUSclBp7n4EMY7UNK8guHGJS4+ANiyzj8vJxGOSVQQEOV1Rlxn6BAA2NrEymi0McXFh+D484+HSgo9UZsOAIWt88FSkuCwSCBUkrGr/sNP0sUOACAXklnuvw63rSe4AYTM8MKtUpoqAQDk3LRG/W9ajetceAge6clQRjxd5rcDABghLm//1vk8neCgMpRTyjnLhQcAw81KJeH4zuSVhCOAah18B7xb6dcen+DCA0DWTaqvhDK1K1x4qOjhd8bzu/IITxYAZMN/wg8lalD1A3DTcyz9DBceADrzzQ8HPG9OTVztEIGoD2ClA0A5yGYgPdKTmtob6YzzWbVeeB6JepGbAVEgEwG9WumLX3DRAWq52aiMXLEihhe/17OWyxsJudVt+BArA6Lh2uOjnt8rrHSAWljf0pxleGFI/XlXrbXSxXvnzlfU1EJc+M8/OcVFB4gNiUPLVKZEwJsBCvj2NcFNg+j46ulez2Er6tIBohFxKfdKYnftCoj45lrTyXcAUVrp+mBN9zgA6ELiTj+b1r5WScSZHAX1wW9b2HEuOEDVrPGkt/qLior4G+ucSWoQv6Cf8njgbvJOAVSBocbJilvjdISDuor6rEe3+wAXHCBUhhdOlzLNye1aVSGDPdxcqNFh3N9gIwAICImPS0LN8MKTyIR8s4nMEDcZamalz5EcB1BPi3wpSiEndg51Rbox+guXkWwKUCqJW+5RxEK+aZ2PcrOhplb6lLdDMyEtgBK49nh/z9XGneiFPFktrHOo8aG935uVTn93AM8kLVnXayLm1MkC+Mt4n+NiA/gR8uN6IEl9hDxdajAMQL0F/ZS3940ujAAOSbq73ahIj3X7E9UAoMdb0qtUygCAi5dYWad1SHrbfZ3lIQDQgj7CwBaAqjK8cLGWVvnbjWSY1wwg6ERYlSBKK1iACiEv09DCZI2FfHON8DAAvGWlz3gqE73IxQYoijSSiLXTm9lq64EyALD1sH/GT+6KMigAoNDp+5hu7oCYb+hmGgDwNtL4xU8YjnAXQIGT90DN4+XbXX7HeSgAdjz43/X0Hh7jYgOYv6ATiPhb6xEPBcBuh3/VzY0cFoDg3Gfvkfy2Y+35dR4OgF346uleT50i6RoHkO2ULZnsUXZ9W0sbYMyo3++2HqpydWEwKcFb+FwPk9ltXXt8VP3Zx4AIgG5ePS9zHFrE0QG6Ia0Vry42IhDvFe1hEItaxreKILMBAHgwCDy53cllAeiAlGKJEFZTwJd0vF+sbWlyAQDlkGS7+2gyc1e3gpW16WFLZkrgSYO6n6rVS3B1cbliIj6v+8jLCEcACAdfTWa6lbcle4Rk3t9MxF8JPmIPNbDMqyLmy+qlvKUPIAAQJskY5VD3kJZukDW8+D0ePYjRPfYo+M5sySn7FDcMoAoWuh7cVCVvX0MbCuK6x4KHior5e4G4xnYXcl06x8xxgOqJ+uKLiubjtNKS3bMk0kKFXrjGNEIOAI4EfSqCapl1XYYnCXcAAb9sN8J8gdQhQ0rMAKDqe8zZyFo+P9F9KxjfCkEhtdkhtlSlrhQgpn2mL9KOkeu6RBbDAwI4NZ8KbNBKU596SUQBiHG/WY28HfSsEvYT3GjwT1KethaQC+sec8UBIkbe8XrMeUDYwSNJedp8MFb5UOMMNwUgegt9pGajlTFSwAPhTE5rEHsCqI2FfrGGUxlbuqZd5mIAODglh5FtKp2Zahwr//m7wyd+/u7I0E//8S+U40E9+PrHT2o8bnlNt5sFsCfmumPTWvmd3lTiW01ZGe3b99N3hyd/Gjuyka72T98dvT43epKmFRA3SfOqVo1FfSMd10ypG1h5mWZLH5BQ46YMy2NHTyoxX94i5q/Xz2NHGiujR/t4UCFuo6JyQ5/clLphrUPBF6ns5jErdR2iItb38rdHb2prfAcx37LWf/72yBUeVoh3Hwq2I2UZa6Lnq6d7eSjAjKSpQ7Pk5LdaTjFScfJjSqgfdRHyt9by2OFprHWI1LC4iZCTGAzFBP1haQ+sfHYNMzy3WOUtEzHfsprL3x65SGwdoqKeme6U7oItMV/8olQxr2ECyMr/OXxUYuI5hXzbOnpXEul4kCES4+IkAr7rusEDArsjbu7ystrn6liW9tO3RwcLWOW7rVUpc+OBhgj2pKMId8eBVHdofQ27nYZvl2aZ1yxmvjz60SFlTc9aFvK313dHvn86+jFJNFBdKF1j/4QcJDXnbRLgPIi5inVLzNupmL8R9ZXl737PJDqoLnr0KMLddTxrTauCYEdBV66bMurMa9S7OLHKj9zzIuRvr/ZP3x4ZU7F1XHNQwb1p8S6inbHUlwx4UCe7/pKs81N1ucRKVD8Xa7kEMX+rGY2UxfHAQ8UEfQSxNpq3zjtec+u8jOYNtWiIIlaxxLIzNInxt747MkJ5G1QG6ZKGUCPqkMk6P1lKx6MaILHr3Vq3lr8Oz9OMBqphcCx8bjb7YXEpddPf1KVdUoor+5wMe5E48+ZK/v2k/vnJoWEknSw5o8OBlRf1BQY51VDQfTeReRR7mYVY5Srx7XZQVvkuzWhU2dwlXgIIGsmz2dpURfaQZM7EhB7cJM1nhheOW2+LKg2utNircaZXF+crmG2/qg8tUBsx9x07b+vPjJg8rVsDWPeejx6m7AXCRYRJhF3K2MrbL/eljbcmAphCmXW9wFKvjSvLc/bo8MJozJdTxpo6aBLja60ujx35gpcCIAPiZZSk3sRFH7rlvsQI1nq4sTwOYFGJd2Werh0isWgliA8rKuTbM+GnsNYBDJA+GsMLQ2nsPty56pHuv5BY5xNeXe2Run0kBu2tSYy/9ULK7HhJAIz31VNpvD3EjnLXuUExIu6XpLTBl6v9VnxW+ccHSmoS47G87fA45W0AORheOB1mh7sFDuoRniKveM20tJ19WrZVPnb4TGrFbsS+VLb+0k9/+T2ZsgD59tqzgZXANUmSi+8h8xnrORuPVf66ScxGzVaLZjQAOZEEuqT0rR2IqD9iQls8rqDjXkeiRoKMIy27dWsIzWh++o9/4XQPkH/vXQ4knn6bGxKHdT7h8aE5GYNVvvzt0ZsVaBLjrRnN8reHB3iRAHJa68mY6hCs9VPckKo/TN6S4VSZWuWt8ko2ifETWx87PK0OO5Wvbd2Y69vz6q+9/fInGwR4tNYvBlC/vhJbflPNrHOjnshFM9srO4NbYsVpkxis8s5rrcrlba/uH7r46sHB1VcPejde3e998XL64Ak2CfCGjDot3wV/kxtRVZKuRj4ekkZVL5HEiHWsGLGOthnNP/7zd3uViE9qIX9nHbyJtQ7+9mRdQjxToqBH3447Tny626XfcQWR2LASqHVEOl/r2J/Hjp4O/R7/+qD3tBLulZ3FPF33extY6+Bxb37Po7G1c/IyXeQq59454a3uvGIPR9okZgZRttKMZlKuZ2j3WMfKHxy6pQS73VHMsdahLHzP1ng7gZlE14o9LDc9PRwj1bPMVfMUxNhqh7mQ7u9vD3qPK4F+kl3I37HWj7KBgBeGF78vSdTXGOBSqQfFSxvCSvZsR9DtW+lhWOU974mVrYS5lUvM36xW8/7BQTYR8OJ+v7o4VZKo3+AGVIFvfjjgqe5xpoqXJ60zR4gtdZVbHjt6sux72vy///xJ80HvfEEhf3tN987+9rfeQ2wo4MGjOlVKW1iZwgnBW+enicN0Rvdnl8lpnVbsw1i69nVXB59u1yiAvu/KKr9uFis3s9Z/ne69wqYCji31PSVNbaOMrQKCfsvDg9DSnoCIUZbnaL2byZRveXdCrGcluHOOhHz7msZaB6ckJW2r3q30oUYfFz9s942Hk17jTuyXEUEPV9B/nT40oErSmp7EfHOtNad7v2CDAYeifjKZkEafdxCktZ+fFoNnY7+UCHp4gr5+r2/fr/d7pzwL+Vur+eDg99Kshs0G3BhkC4OerfQWGe+hkrQX9HGqi95Ng6CHJei/Th88I1ZymWK+Za00pw+dZMMBR17WWTLeQcXPG5do9YqgxyTo0uxFrOJAhBxrHdwj2efeBmulg1voHhfkyc7HuNQxBB1B94G0ZO3aujUAa12a2bD5QAWNs60Dtk5z0evoqqnJjUfQyxP0pElM722H5WjWl0rUG5fvzSYEFvdzn4Nc7nLBw3sA1px3h6vJTF0EvRxBlyYxuVu3lr+W5PuzEYFF13vL2yQ2Gs0ERJLh7j7WUhMQdP+C3rx/aLRKVvluzWik2Q0bEthxvXvpK7LpfR3igodz44/T7hVBr6Kgv/pr3wFp3lJxId++5hj0AoVJusiteRL1Bhc8HHf7WaarIehVE3QlfJeURbsamZgncXXV/IZBL2Bhbx/z2Gimjwsexk2/QUIcgl4VQZcmMc0Hh+7FKOTvCLtqhqOs9f1sUpCLpC3smie3+ygXPAxBH3d/w6s3LhVBD0/QleV6ugLlaJbXwVX5vdmoIFiDLVlzXOwgbnhj2vnNrlHzAQTdvqBLE5a0SUy7XmL+1roj3gk2LDDi2uP9njLe27SCDeMEN+e852+NQNDtCro0X6lwOZp9a/3+Px9j0wLDPX6KJjP1udnLjm/0EoKOoJuSNIk5eDMp50LMt6x2837vWCzNaH5bHji0MTdKYx2XJNPYfLjdx7nY5Qt6i9gKgh6SoEvZ1qv7vQ3Eu+N6UmVrXYT85bMv7718NrCh1qP1pSt9bMZO9/klDxb6Ey50+Tea1oAIejCC/mr60I0SZpZX1lr/dbq3ciWhvzy7/PnLZ5dXUjHfXM2XS19eYkN2ts/f9GKl0zWuRJKECcentsXvEXQEvavF9rfeQ0rIHyLSOdZ072zr3oHgLVxxrSvh/n6bkG9bymp//idK9ey73fv9uN0XPudil3eT+5iyhqCXLegxN4nxuNalGU2omfC//H3guBLspc5i/nqtNp8NfMEGbd1KX6WJGIJOwwEE3Zmgp9PREGR7azI0q/yXpYFRJdLtjGK+dU1hrVvd728TYkXQEXQE3Zmg42a33ws+lHfh1X992S8JbzmEfOt6ITF3NmsrFvopBnEh6Ag6gu5M0KUECxG2WqsexMS2X5YuD+pEt2Ji/no1n385Tnlb4f1+n5cmMzIYBhB0BL1+gi5d4F49OHRLXMWdFpb8wZlu10gqBMquT1cu8qMqg/2hLSHftpaaf7/M3PhiVvq88z3/2mOmBZaClBi4d8HcRNAR9MLuW504V19Bb04fOhn6sy9lZ0p01xyJ+eZqv1y6fB1rPbege5jdoSZ4QglIj3XnY/UWJut0SRF0BL1ugv7q6aUDSmjnHAv5tnX5Ic1ocgn6FQ+CfoMLXd4NRtARdAQdQc/pYr98xoNVvtvSzWiw1o32+2Ps+XHf4HXHN3gGQUfQEfS4BP0fT7/aq8vKyhHy7WsOaz0jXz3d68FCn+VClyforoezPELQEXQEPR5BV4lvJ3Zo3Vr2Wv/l2cBFNvRMe36LPT/em+s66/EFgo6gI+jVF/T1lUv7lGhO5GwS42Wpcrm78j3Z2Dvu+Q32/Hhv7oz7mEp9Bt8j6Ah6jIKuW7c+H1gOVci3N6OhdWzHPX/W8Z7f5iKXd3MnqEtE0BF0BH0nNlYu7Xm5NHAzZKu8w/peYv1s8tuQpDXXez6UhDR+cW6hL9bmtIygI+ixCLpuEvN8YL6CQv5WMxrxLrDRb93z1QRM13u+JN9BGRb6wqAHl/v1ulxOBB1Br7qg64EqzwaGbLZuLXm1m8++HBFvAxu+LyNOdSGFUlzuHhr2N+4g6Ag6gh6+oEv5l4WBKsFa6zIwBkFH0COOp3iZib6EoCPoCHrYgp4OVFmPVMxfW+vyeyLoCHqcJO1fW8RUEHQEvZ6CrsvRlgZmIxfybeVtA7O/LQ8cQtAR9Bhv8BMPN/gkgo6gI+hhCboaS3pWyrzqJOZvtY59fnkAQUfQY7vB92jYj6Aj6PURdLHKXz778l5Nhfzt9XxgulbNaMhyjz6Oft2DoM8j6Ag6gl6+oP/y7PLnSshWEfO3m9HIdanHfk8deuyCftKDoLfqcGpD0BH0UAVdD1R5fnkS8e4QW1etbaO31t13B20hqmXyzQ8HdLs+Bt8j6Ah6lIL+38/+/ZiUbSHamWatrzSXBk5Gu0m5z5mil3sNbvKGjt0g6Ag6gu5N0KWZiuprfruirVtLXboZTYyz1t2PzGbaWvmC7iFR4uriqi6TQ9ARdATduaCnVvkjxLlQwtx88++XP4lmg/rzj4eYh16POPqAhxstg1pOIOgIOoLuVtBfLn15OqLWrQGsL29FYp176AyqBn5BECc3H3H0cQQdQUfQHQv6s4E5RNhuXD0SQb/iPrSq6twhiJu95MntvgdBR9ARdJcW+uXriLDdWvU4PLEeStbk0AAhCLoaouLD7S5uHwQdQUfQ3Qn68z/tT0afXl7pvGpfj77W9RpJ4xk1tCaKDcpH8nPkYdUKnd7U3HI/gn4XQUfQEfQAWr+q8qxaC/rSl5dqs7+LZ/TqYtODoO9HTOt0wyVWH2mvXwQdQUfQEfQaG2xrCGlYLpl7Xqz04YVbCDqCjqAj6Ai6L0Fv3Mb7Wj9Bv+jJ7b6uHrB9CDqCjqAj6Ai6B64uNhjCVTck/uGnfG1DD4VB0BF0BB1BR9Dd8vWPn3jyvB5HRMM7yc1gpSPoCDqCjqBHs6ePeNnTIy5JrrLb/bQnQZc1hqAj6Ag6go6gOxX0ZQ/W+RPEM0Sk37r7Bv5vRu1FVOaAoCPoCDqCHlgY9QTGWd3xkxEZXe9fBB1BR9AR9LA8rl4Gb6m18DnCGSpJEkXbm6hH0l0IQUfQEXQEPSDDbJ8nb+sa8fPw4y6z3gR9qPEwhtGqCDqCjqAj6AHt4WOe9vApBDN4V43X5Dhx2Qwi6Ag6go6gI+gWSDp/vvBkkA0gmNU44S15FPVW1VvCIugIOoKOoAdikA152rfb9G+vjqCP+LXSF+er7HpH0BF0BB1Br1HsfEP3LQEejBjbByLoCDqCjqDXKHaOux0rPYML5+riMQQdQUfQEXQE3XS/XvjI09TMJLsdd3vF8Jlc8WYtV7EtLIKOoCPoCHrJBpjP6qTbCGQ1T32DngV9Qz+YFYunI+gIOoKOoJcYIh3wukcPNfoRR6x0k/7Aowg6go6gI+gIeiZX+7pXgwuw0mNOukDQEXQEHUEvyeCa9bw3n0IUsdJzJslVo08wgo6gI+gIeglx83HPe3Ijhs6e4L173OvVrMKJEEFH0BF0BD3+Pbn6XT3hzWlwqiRRXw+9nA1BR9ARdATdG9ceH9UdNn1XIDGIJSKkPavPSWwVEnUEHUFH0BF0L/z5x0NaXP3vwWcRwfis9JGSBD1oUUfQEXQEHUF3zldP93qes7G5HhE7jxG5qZIYUZ6oN5Wn4CSCjqAj6Ah6rQRd772N6ZL2XTLbI7bSj5Xoek9EfXjhIoKOoCPoCHotBF1XGpUl5upzAde7hzWGoCPoCDqCHrWgS890mUZZzh7bpitcPVzve0qK5WxrPrMwqeNKCDqCjqAj6LEJepKIvFziHjuO2NWFpHSiGYClvtTz9Y+fIOgIOoKOoEcj6Ncen9BTzcoMbUpGPdQI30MBdl+tnuHGJQQdQUfQEfTKC3rSbrtdrveTeed1jadPBCLqsmZ6vvnhAIKOoCPoCHrlBF1GRw8v3Ct/HyURrs7x9LJL2bavVd894BF0BB1BR9ALGkanSpqZsX2tlWEUQXjx9PWARH0jaVWrRgsi6Ag6go6ghyroksU+1Lhduov9zejqiwgabJ4wm4GJuoqtL9zSriwEHUFH0BH0UARdPJuS9xOGVb65JhAyeIOc7kI5aW5vGzvUuO6qxA1BR9ARdATdYJ88HViYcnM0KsNX4B1LfSRAQd8aXx+0bbEj6Ag6go6gZxTyRwHui00dNgXYRdQnAhb1zTnrY7YsdgQdQUfQEfQdkT1mqHEmUCHfLFE7g2hBt9PovcBFfSPtwnQMQUfQEXQE3a5RoxJyhxdGA0wW3raUxxIgQ9LHHl0XHr6ot9WLdxxBR9ARdAS9EEnG+vW093q7AnsfSXBgKuqljfwznLWev8QNQUfQEfQaC3rSc30iwCqfTuVp95hxDjFb6o28MXUEHUFH0Gsq6IlFXh0hfyPmZLRDblFX3eQad8J/2PPFkxB0BB1Br6GgDy9+XykhT9YsYg52kCYvoSfJ5XBDIegIOoJeM0GXKpnqifkMYg52SVxU4SaMDC1+gaAj6Ag6gr77Hqb2iGokvWGZgwdkeIq0ZY0k8xNBR9AR9JoIepIT9KJiYn7XVZdMgE33+/Gkc1twTRYeIugIOoKOoO+8b+n+61VKgLtFNjv4cr/3qQfuSXBxdAQdQUfQEfSdDZEnFRLzUUQG/CKnx6GFyYBehBUEHUFH0BH0d5DGMdWInbcYgwplx9UHg4irywkcQUfQEXQEfefcn9DF/EXRzpcAdpCJP+W7tGYRdAQdQUfQ3xX0xRuBi/lUzzc/HEBIICwXfNJGsV2VuBOCjqAj6DUQ9GTYSqjzKIZIfoNwSbLgV7y/HF//+AmCjqAj6Aj6DnvSUIBivoSLHaqBniWsE+Z8Wetzeb4mgo6gI+i1cLmfDSzxbVRVCu1DKKBayMxyqQ93724/jqAj6Ag6gr5Ljk8oWe4NvScCVNwNP+SsS5MMWsgJgo6gI+g1qUO/uvio3DHPKjGPrm8QlRs+GfLStOpqL/CSIOgIOoJeE0EfagyU4l4fatzGvQ7xIuUZdoR9tuiLgqAj6Ah6bXq5v6e7SXrLXleewz//eIgNH+oj7Mkow/UcpR6jNko9EHQEHUGv0bS1pMFM23lN+dWFj9jgoZ6IlX11cSTDwJdWUudu72VB0BF0BL1m89DdlLAlFvlQo58NHWATqSVPYl3juuwtKX27qecYS6aqZX767uj1Ogu6Wp87EZ7p3i/qLei9X7i4rv/97N+P1VnQm8++vGLJiLhtMdntpu6UCQDlsvztkYu1FnR1oHFxXV9OHzxRa0G/f2jUxXX9bXngUJ0F/ZdnAxPWLmZSm97MPdlRxrHKjHUACIOV0Y8P1NxCn3Ek6PtrLegPeuddPbNK2Jq1FfXnA8sbc6P22qQmeTzjGfN4lrVlLz0vaNUKECY/fXdkpcaC3l4e/chJJu6rBwcf1VnUX/2110k8VQnbVK3j6M//dML6RRVLe6hxMk3SndLlsHo17uiYe4620gBQhtu97olx3x657eK6Nu8fHKy1oD/onXYi6Etfnq63oA9Ms2sBwM6CrixUsVTrne1+xHoS1/q9vn1K1NbrLOq/TvdesX1dxeUsrud6Z7tfvs7OBQC7uN0Pj9c8lr7uooSteb93rOZWettFxvvL55cHai3ozwbaVkrYACA+no5+vFeJ+nLNRb3587dHrsyNnrSW8POP//zd3l8f9C7XXNQ3Xk0furEx12PtuqZW+nzNRV3K2Eb+8fQr+qMDwDYr/S+//0SJ2lrNRX1DH2y+PTq4Mtpnpf90696BPiVqa7UX9Qe9KypR8Pqrv/YdsBLSWLm0r/au92St/rI0MPrL/7tMdzYAeMPyd78/LpZq7UX9tbjrCoC5n8eO3Pn5uyO5xz5KxrcSs1VEPV33e1+oP+deTffeLdJVbn3pSp8IGqL+RtxfPrv8UFcCPL98hh0NoOb811/+Z3/NS9l2W2tFrutvf+s9pERsCUF/Z7Wkbj/3dVXNZlTDlQZivoNL/u+XKTcDqDs6pv7tkTElYi2E/M0qel0lpi6Jciqu3kTI3ywJSxS5rjqmrjK/lYitI+RbBF31vmc3A4DEBa9K2tI69RcIur2ucmknuSEsdu1+b9hKmFNNV/Yra31IidkSgj6wJHkG7GIA8A4ro0f7fho7fObn7w7fEJGv01Lx8yGVJOekb7W44pXFfloSxqQHep2WZL8Xcbd34tXTSwd+eXb5c7HcddJYjZZKFrwhhxt2LQAAAAAAAAAAAAAAAAAAAAAAAAAAAAAAAAAAAAAAAAAAAAAAAAAAAAAAAAAAAAAAAAAAAAAAAAAAAAAAAAAAAAAAAAAAAAAAAAAAAAAAAAAAAAAAAAAAAAAAAAAAAAAAAAAAAAAAAAAAAOjG+/92bv++/rN9W1fPyZPvcWUAAAACY1//pX0f/uH8qfc/PX/9g88u3Pnws3NP1J+rH3x2vq3Wxi5L/r8V9fdm1J8T7/efv6TF3hMf/K+LH33Yf/7WB5+efyTfI/nO5yc//MPZY9xRcErfpT3vf3bhtLwr7392bk6v/nNTH3x27qL8f0V+7gf9F4bUczytn+dPz89+0H9+VA7VXHQA6Gh5p5vHQ7VaHYTbdK2oze7mB59eOO5MzD89d7vTYUM21999/Me93GWwjRx81TO2tvvzf2FV/o7x+/jZuRPJAXnHn7uuxP0sVx8AtlnjZ/vEolaraVHEdxV3tUZsWhiysWX87BHuNlhFhZo6iO6bA+Vn51+YhKX04brjISFdn577nJsAAD3/9PEfD6hNYdyTkG9fLbGqxbVfWNATj0KWz1wj1g82kbBS1mf+w88uXMl+SNUepyw/d4lnGoCN6JJ22/kX8nfckRJ7LGghtbN+3vv/eu4odx+seYcSz1bW5/1uph8qcXODQ/a+/osnuRMAtbXKddLaRkhLJbN9nyfGLXF5s89SSUoAtg7GKvkt82FS/d2MP/OEyTMth3PuBEDNkJN8mqm+EehqmGbFJ78Tmx8g6ABQm41HSmqsZq67WmsmZWYIOsQm6JJXYvSukhgHUKNNp//cGZM4cwBrPWusG0GH2ARdkHr2bD9TZc8XqXMHgOqQxphbFRJzo+xdBB1iFPT/8emFQ5kS46hFB6gH6aawZs0VrhLX1J+D+/rP90ty3RtRvbRPLGrxBEintrRDW+HPlGY0CDrUUdAF3alRWeC7erE+PTfAHQCoA0k513xhYVVtVJMWrmb14rp7lrSpLPb57W7xdAQdYhV0jbSU1e2X9bssDWwaao1tPVADQOTonuYFLXIb7rwkfp8/s77bJoigQ9SCDgA1F3Nl1RZKglNWubjrbX2f1PW/kvv7qKErCDog6ABQO9JpY3kt80kXrSSTfvE5LXU1MAZBBwQdAOq1wSQlannF/K7LvtBpwwxzz4Hqa42gA4IOAPUhSYRbzutm91HPKgMqcnkNEHRA0AGgLkif8ryTz2zGzDN4EabMXO7nRxF0QNABgM2l20bjuZ41bW2ZOUlOSuAqJejKU7L30//9STrRTsbTTn742fl7cn82V9oJbFLPhldteX0eqMQTI54S6Suw+X3k+8l3Me2lX7XPl3KvNCw1llz/CzNbv4P0PpD3Iev9cC3oOsFVHWi3fk/9TEkFSt7wWHr95RlMn8UZ1Tvihsxgz/s+6zJVlesi0+fkwL71Wdf9K9Tv8OGnF76wMS7Z3j6k8nrUdZTfPZmal1yPbe/pjH5/pWpI/Q7ybMg98fV7yD6iP1uVAL+59xeOm+xFST+DCzc3f0bed03vtSr8mX6PafkuPib9SY+TpGoreQf03intjmMeG5xmkufJbG+UcWEMMvEfdvp+oQi6ZOKnG8PD/PPlddLgZKFxst0F6ESXw1S7UxJiJT9fh6K09+qh4T1ZkU28U823S0HP0P513vQgKNe/U7MaEV2TDT4Vh7ZheG/W5HNs7pEiyMmBY9drYLR3itBoUXOwh6bGwI7XVq57txCp7LFdmny1dX5Sl5+TGmDTHX7OdJ5JmQZe56aPaqygSMXE3DpX1kppHoXEgu3Ulna5U8laCIIup+U0hGC7V77kQgxafVEMcizEMnDhufD6+erz0mdsufBsAdXcZadN25Wgi/BkfH+nDPeJbl0c17s9c9IpMsfhaOdn3MNgGfmMXAcPw74d2ruT08vxrhgrj0f3zxzsIoTtzMnQHa9f9wZh+oBRjtG37OowUSo5S9WWy3ZbpOVsYomsv+4OJ5uOOjlmcWuVJeipu27WfU/7C6v6O1u4T+nEvcKVBVX4fO1azxmC6rTxbd88nA1nyf4+t7N2jUvnOuR/R5Qll1qNdmdDyL12Uiqr94aG5xkUTbHai4pM6urPtX+nh4GWYZvtHb2C4kkp+jMKeCjmi+ZYVRJ5eHKePseq/ruXIeip9bTudaOQw0MXb0WGF2TMqOrBvgvRy+drr4kdl+pOB6yZrZuoE0FPhLNteyNNY9y5DlMZ3K6FD0u2qmzS/XCyzAmTYpRknRi5y7uSKWy3/TAn/55nfsdunh65LyZ7lLXDv7p2Ze5VpZLGJY0fOidu1YgFfctGUdIEOhVjL+CiTIfrZI4fW3ehefj8PNZJjjXhUtDTfBjrz3SSXGdeJpp40Qp0eswqgur5sBEnl0mNoYyBzrvHZv2M7YltGS37zM+m4aCtli33tyTtmXz/uNzt2V/Ut2I+MWQJehP0JP77MIiNImePfcPDiHVBd/35aWy36cUCS5O6XAh6KqBBCHpqmXsTyCJuW9/fNbOlniOunkfQ0+ff6swM0z3PltvdcLDYcmzx89kiVgaC3l3M06SaUDaKVh5LPWZBF8vA1thed2JVFUG/cGeL69/3ITZfXo+t6ZJuPA+3fAh6Qe/h+C55Lzd964pxCNlBvk+5gp4j8SOWBis+BF0emCIn9M058nJ61aU+SaLJSHpIaPpy58Us6Eaxvg4JTalreXO16ino51fS6oDpUg4+Od7RnB0oN9eSrp+XMbVSl67CNvKepv0KBtPntkjIoWk67tZU0FMRzO+d2sVAkP/d9FoWDs1ly/Df+l6diEfNDRNo3jwI7hsCxCDo6UvdNhdyJdYZGkDIi5gm2a3leBEbJolEsQq66TOwU3mglMi8YxmK1afuYTqKuFkjQc/kJdraiEe+Q1I6qytWirq9G+aCnss7c1c3rcroEUifs7wei0GXgp4ewKwker7r+TAbqlW0dM/MgLqwGlWDGdOXf7fsSAR915jcmrmVd+6i6e8hL0Eui8igZCNWQc+5ybbEqsu6Gcj9MW5ZHKGgp9UDg91KSlMrK3fJmEmGeI6mWg19gMv7HCfVAm1Dt/v3LgR98zrlLtGU7nFdBNjclW++/237vKXauttzZri34znQuBP0HBvgepGNInmYu3YHe+czs7ahjFHQs9ZWbz905XXTFRHFqgu6btVrYn1J7olZZUMui9ZwD7BSHpfjWs67EHTdijWxznftpqZ7B8j33brU9c0asjN3u6c5GHn0LDFsDOLnBm1wYxS0zVM2gp7JOl+3EYcyDaEYn7YzWukxCnoOq7lVNBPXqJ4+HkHP17MicdnmKaWaNPRStrtf/ws3bbln05h1y2FOSBFPSlsOUjbbohrmEOSuoJIchio1Ruuxv0nmmrD2EEHv+gCPGF7TcVu/U+pCXLdtpccm6OlpvuUqRNFl43lUI0GfKC5+ZnFY0yYl3TwBeTLNM3hH5wIU9PVOw6wKvLvjPhLVDJNbx3piI08yRExjHF0JumGSTdP29CWdcWs5bhWboKcZyEaNeWw1vjDNxK2woM9baTts/DybZUtrj9rO5bvt3frwh+hxKirorpKdTUNb2huS75pmNmRiaIyGoHsQdOO8BBeJGUn1QuaEvCzDEWITdOPeAJZ7Pps33aieoNsSiByJa82cVvOJNEt6MpkHcb7fnXfUKN/FuaDb6LRnze2eow2s4XPf6IkRBN2+oJu6l1zN8E5mNGePDXdL9onO5W7Yr932fTINd1VO0C33yDYNU4S+9xh68VwLetvVPpRzP2qaJh9mnjWQ9Pe4gaATQ88q6A2DB+uJs3trMp0sQ8ZnTIJu3O/cwSE2TZxsR2yhj5Ro0QYt6EbDQ3wIusXBKLs/l2atZU1j+SYdT10fXsp7sEw3fUebdSyCnmNy3bi7381QMCRWWBNBTxv+lOZuz+N2r56FbrckyLTjYrh7jo7XPwpJ0Lu9+xaf94arUKRB86ZoDNLCgva6rABBt/LzNod0uDuwmbiVO9d/xiToSVey8pOF0i5yUQq6zbKnPJ8fqgGVsyudU0H3lSBmeA8zD02R/h3ZvaKqIVSsyI3Mk0Bha/ZwbIJuHMIoOKM8g5tyxlYoJSpBNxBSl8972rY3SkG3nRleJUGXw0ySHKvyJJLYbtF+7i4F3dvkzKw1/6Yd/wx6O7SLtpYN2+We1OI6ba1YJ0E3rT+3Xa5WRAS7NQyKSdDNfpbq9+wIE8uicoJernXnTNB1WE2XYemkxpE0CXY6tbxX8sxuKFnQvWZ8G033VIchy6786Z7YMW7aUGCmdg0EfSKk0IWhJdqujaCbjQx2Ni/ZJDkPQS/n87W1nXhSJkucl+5S0L2KnFlPge5tYI1yhSLRrW4npkc5HrDxGH53B4I+GVJyoc1NMKqkOLMuXU6TaBD08ARdH7QSV/m8I4t7I6DWr5M+91yTngLaa9glHGDQK75pqzFU0OQZgOCy3ApBR9BDEnTXfRcQ9HAEPbX2xh2K+GuDKJTGMi7a2mbwCmfP7elSLZFdv/IPfamYy920BaadubUIOoJeBZc7gl4PQU8SWnOEH82t8hHX71MIJZkWNWek8+E8WyWPlKrWQtBz1qJvSFyp9C8v08V0TEaf+Jb1rGJ14szastG6oJvVyjZdZ5cadq1r1kbQzawjZ0lDqUWIoJf8+aY17qZZ5PoAqVz4//TxHw/4eJ9CF/S0X0fWvuu7jo41aNCzFktlViZRNCjK3+rCmCnza6exmKUis4vLznK3XatbULhWfAlq2YJuEmZyOS5YyhYR9HIFXQaBWLG8k1yku/rnSfxdYrsdylLrLOime9Nu3mCDss+JnjphPEO75BZ6ctLNVtfZ+dBhX9DN+nO7buiQJvVYyYuIrGzNaCa5q2Qag4QeBN3B56fvf954+bx4B/U7nMPThqAb7JW7ZKdnHZfqqjFUsOSddex6Qs+OqJfHpGVmp25s9l3uZmMCJZbkWNCb2QW988S1sgXdcDpaZwtdPRNltjF9Y2FkL+FB0O1/fp6ubfo5tNAQqu6CbuR236kNbKIDzUzXzlPjnHAEPXH95TupOtrsLB4+Jn0Jeuo5MAlbOMu8NN3Yu2W7Gm5A6/YF3d50KtMRt656XWe1MBB0+59v3M9/s9GJJXGou6AbPv/vzLfP3OXUxXjqSoi6gXv2nTGJ3loH5nKReRP09DqatHhcdnXtpGex2XU6d9HiBmS3XWqS52Gtbte8Q6KDfJHEwlhD0EsT9CnDfWQs1BBSVQXd5FC1Pd8o6zwGX33qwxN0FafInRTi46FQm3ouF1kHy9ORoE+Y5SG4ie8Y9nHvmg9hKug2PTc5xvyuZLhPDYOfZ70HtEn8HEF3IOgGg4t0font3vRm72eUgp4carOVCm5/TjNev6We2iIlYEbTuTxODktu/Eye79Vpw3Ih6DnKAK13akrLOdq2EuL0idiwAZFk+1q0ZJetC7ppqZJl153p84yg2/t8k3JBJyGX5Jler72gmxkKdzf/m6zxd7Hie+pM3iYzr60YR7XpxtZhxgY4LgQ9fdhM3MPNrfWpnmNTmbtFmZbk2QonmI46zboBfviH86dMS5Ns3Sfpk2AaOkLQ7X2+yVAcF01JciTPRivoBvks7c1hVlm9W2VVYYWD2oBzzut925Kx5Z6S75OjNW3WPtwuBD19oabLGpCQp1GQvFRdf67BqE9bWfyp6LZcCHoal1/zfp8S62w+xz1C0K1Z6GbvvQiIzd/FsGIjakE3CX/I3pZ6C29lyO2a7YHXm2jRXsZLRWPDOvPebCqWcaKXK0HPYf1l/tndvAPGYZOMSY3Gm2B6qhZrqMBz2Mx571cybnx5PD+FkqPydiVD0O19vmmVg83y0pydOaMWdIN720j+bve4uyQFo+ZvHoiJgoL++pQkyXYmc78lmzE9gTWLfLbeALsIlStBT6+hqRXW6nYA6RYXzNMgKKs70bwk702nNdNM09S93ypw/1eyXTNz1/fr2FyeZiI5+z0g6LYtdLNrZMvaS5+39Rz3vxWzoJuGQMpIYq00Og6cb6zq7pZa4sqfkJOTnFLlJsqLJZt92uhjLE0Ualn4vFaW5g8uBT1XnevmC2YoFrJR5AyVNEw+q0A4piW/V6eDnbyAutTOznO3YnCfpvJ9xoWZrDE6+Xt5uzEi6PY/P81zMcxhSNy9eUnrptfy3n8To6hqgp5+Z5uz5qdR8R0sZQ/Th9wsaQCRafNzJ+g5Y2Wvs86zxO10PXWy0eU5BLWzDrF5s6nqGdEbRYVJXN1Jz2v13RMX9HRRj0xeQc9rpb8+qEqOh7pX2y0CnUmdJO+M2/jdEHS7n5+jamY9b/gozT/Z/gw0Td5bk8+uoqDnTH6t92S1nC6itYoJ+nj238+toKeb61r+TVzHwyfkpZNNQT4/bRc6lopgbm9GnpKO1O3eLOGeLumYevb484pLsehgta+mjYWy3Jfp9Pm7i6D7/3zj9r9vRHgkk7UsZcDq2u7m1dKxdANvlEkFURUFPfVg2JhD36zPZLWcol6kPt3n0rXPBi5k14K+5TPagV2r6byVCJamUxm9oJvWiUGDGbNe8jkzzwta3CdMhApBt//5hl0dtwv7tLYqlRdG3vEkifPcxdTSnOzk3dwUZ8MwzGTMgp7jeuxmnU+h2pnc7343PB/Zxz4EPXnB9GShQET9wkyh6WGJ+DU8fd/21tCDM0HvMZngZydZ1FSoEHQHgp6ERHy+l62t7mATt78e45vxEF5VQbcR0pODFYqddSPPWXLjWKBW89aJpiEFL93w0kzOksMXahiMBXdU2olu3bWYb09EMhi5mGvaW3pwXXbtcdiasJm1YU9WQU9/Bxe9FUZKFXRHn5+pptnOWt9eymv62Vnj6EaHlJAs9GTGQpED1lrtJqtZcIuc8GihdR1lWLR7l9EDVHBsYomejqZ281l82NPnwNUBZX2nXvAGHbYa+UNM+cr/8s52zup1yOxKTDwoLdsWjdH8agfjc519foG20ibVJDuVbprOz8ja28PkUGqj/0UobvcsHS9hl5cg3YiWSxLzh7aGf2R9mU1cXhleuEEPFu7rQ8/2SUXWXr7EUl+yvfntenDKOKFMMs+LPt+p9dS2aplvE/Mt19DqZmWwKbay1usajliesC7oLj8/ea7GHLjfWx17Fsg+apCfJM9Kxv1l0vb99+Z2Nzu4GXe8hG6bh6631qLoIxY1bXv+usHUq0Gbn6vLmpKY0ZKLWJ281HnLbIxIWqiOFe0fIBtbloYtWdyUtn5v2UDzlh5uj5l3qlnPkO3cyrqZbzkwbtg++GTNyna1sWb9/LxdKmVvKdz6erPETT2nWcQy7VeRZe/MXFudtRudPNuh6UmeHgGvvTK42+2hO7zppjHaOrBZ2jQvpVouG+2nwtrskJh12+XDkibnjRX0eIig3hXPiUkTCpv3P01cMjmgtEXsJByQ9TunTY9mdx8QZHkyVk9aUpPkj6yYWWfn7+k8gC7PTmqlr+RtYbzLpn6z0yFLXPimz0kaMnrYMVRi+eBbxuen7+Ok4SG1lRg25y6aJp2mor7WKZHVNLSYHuqanX5mqN3Uch2iA8oFiNIlnyacDaYW1d1U6Jd3Kedop66n+bRz14jE9gplY+c6GWp3z0T6MktDkEHvD73MfdcJdPq7jMiDmg6omXy9RFwS8RyUzcCVS73QxpvEB0fS6/j6u4vQiOiK0BXJf5BNNxWtSbk+uj6/YI5DZtfv5u+WiPzr302+x2Ypk3HyYVq3vPk7yXWTn1XkICv3Ie1bMPH6e0pPg4IW9OYBNDmwnJvTz6c6FNueGlj65+uR0hdOv74ncvhUn6eX2qfS93JEew2LJpvq+3/uTPJZF2bSw+DNIvcqTTIb3PYOjoXumjbNLTAJRwAAAIBHo8Yo4VYGTAEAAECAVrrBgLA8XS8BAADAAwatedsu86sAAACgAOlAG2+jbQEAAMCFoGfspSCVVVwtAACAAEk7QmapRW+WUaILAAAAXZB4uEH3vEmuGAAAQJlWuOrnIP0ENlcyflb3rVizPawGAAAAbCI985OunDaGez3kggIAAJRhlVsdv23eDhkAAAAKIm15iw5w2jrfg0EsAAAApVjn5v3ZGZMKAAAQGDJ4yIaYy7AvriYAAEBZgq6s6sKCLl3hik61AwAAgGKoISpPCgj6NGIOAAAQAGkHuHVDIV+XUjeS4AAAAALi/X87t1/i4N2F/cKq+nOM1q4AAAAho9znqcU++EH/+VG9VKc4GZv6/r+eO4pFDgAAAAAAAAAAAAAAAAAAAAAAAAAAAAAAAAAAAAAAAAAAAAAAAAAAAAAAAAAAAAAAAAAAAAAAAAAAAAAAAAAAAAAAAAAAAAAAAAAAAAAAAAAAAAAAAAAAAAAAAAAAAAAAAAAAAAAAAAAAAAAAAAAAAAAAAAAAAAAAAAAAAAAAAAAAAAAAAAAAAAAAAAAAAAAAAAAAAAAAAAAAAAAAAAAAAAAAAAAAAAAAAAAAAAAAAAAAAAAAAAAAAAAAAAAAAAAAAAAAAAAAAAAAAAAAAAAAAAAAAAAAAAAAAAAAAAAAAAAA1eD/A5bh4urNjPZuAAAAAElFTkSuQmCC;fontSize=14;fontColor=#000000;fontStyle=1" parent="1" vertex="1">
                    <mxGeometry x="660" y="540" width="60" height="60" as="geometry"/>
                </mxCell>
                <mxCell id="28" value="React Native aplication" style="shape=image;verticalLabelPosition=bottom;labelBackgroundColor=none;verticalAlign=top;aspect=fixed;imageAspect=0;image=data:image/png,iVBORw0KGgoAAAANSUhEUgAAAgAAAAFqCAYAAABs/+JbAAA960lEQVR42uzBAQEAAACAkP6v7ggCAAAAAAAAAAAAAAAAAAAAAAAAAAAAAAAAAAAAAAAAAAAAAAAAAAAAAAAAAAAAAAAAAAAAAAAAAAAAAIDZuXfQKII4juODb0VBfCOINoqgForgo7FQ0EIUhCAiSXb35EBRYiUWgilUtLOwthBsxEpEQZCUoqYSz7vduUQkmsqQQtDc7sbxPxcbUTTnze1tLt8P/Eh1ITcT5rHznwUAAAAAAAAAAAAAAAAAAAAAAAAAAAAAAAAAAAAAAAAAAAAAAAAAAAAAAAAAAAAAAAAAAACacK5klnrlb5u8cm2HX032Bzo9FkTJoUAn+wrV2vagYpYpzEiFklnh63iXF6UnAh1flD69LH1704+Sa5JLQRQX/TA92RsmB4uhWaUAAJ3Je28W+VF6tD4J6OSJTAIjEjONjMlnBuWzd/0wPm8XB/Z3KeRGcdQs8arJEU8nV6W/Hkk+2b5rJF6UjAZh8tQuFgrvzEYFAJi5+o2ZU98BRskDGeS/2IHeUb5KntmdZEHHOxUy54W1rXZXL4u559IPEw769JfUF306PntBm4UKADAz9A+YeZ5Ou2UgL/sOJoN/7x7TYfl5K6jEuxVaxhua2CztfEUm/Te+g36bZj56UdzXNWIWKwBAfnk63pvVxP+nyK40tE8GzgybtQpNsztwOX45JW06IPnuO+ij/0zFj+I9CgCQL10ls0B2hjdkoE4dDPYuEsu58kP5mw4oNEwKMNf/LNr77KAvXCWxRYT2f00BANqvu2rWyET72sEA36q8shXn9mhC4a96dW2bLbiUNqs5aPfWROoO7A0SBQBoH79qNtjHs00P6hnE1gpIlXmhOGjmK/w28dsnJm1+zN/IrYGXPWWzUgEAsjdVFBZ/8B0M6NkmHZJ76B5PBJTqKU9skT68L+0y2Xy7Zp63LAIAIGNyF3+5LbhzMIi3MxVfp8fVLGRfviM3Ne7Yc3UH7di+yHEACzkAyMjU/f7kcdODd37ywr5gSM0C9vjDXquT7zzuoN3yktsKANB6MlledzBo5y2T9eI3bVarDiW75cPyHbWDtspd5DXSpxUAoHXsy3ZydNWvFRmvv3jGmLmqQ8hxzbogjO85aJs8Z6yTF2/4wd69hsZRRXEAP35QxC+C6Ae1ID6+CKKgKIIo+OoHRVGkCoLJzGzYCqJIKwhVUSuKCipFROoDRA0qiEILWm0pFbQPENFCa+7cFDS0ailIqDWPe4eO92yCJE32kXPv7M7u/H9wyJd0d2ZS5szcxzkA0FOcFLlEa4CbdT/EHpc0r6I+xlM17hwececyGeB69EGYDwgAAMKLUvOo/036/zgaa/NpktpneEV+pLM1ibara2l2J1eea3SP09k77uf37nenAnyfJEys7PP9WHgmSWcucce/K8A1kMRfLra4eJr/rsPj5hquFcHdHbmyoPt5AfcSiFR2D19friERaPvhSRR+AgAIjFf9h3iTdAl/RzJub+a305X0FuDWsu7fP+ESxs5GYvZPFivZc/4Lfz/1gzw/jbsmuuM+EQc49w7DNv6uyq7nxE4CQ2OzVzaaRvn/rfYRAACEEym7wfPmfDxW2TAFUD+Un82f5T5zWxfXI1h+Wy3zlrMRna/iB6QA59pZKPsDTzGEnHvnEQP+v+JzXMPK3koAAOCPO7HxkL3PAi0eBqYC8AI39/lPxamZ8E5oncUeHl6nkuG2y3ydA5xf2we5RGVvceVAKghvyfQcbdpOAADgj4eUPW7GMzVlrqOCNRYoquxe9327AyS5TpLgEJVA/Y/8rDjNNgc4p3ZxhIf4eR6fuiBJ7W0+oztoDQ0AEIBPe98kNQ9Tl9VSe5NLVl8HSHptwoz2sinNXOMee9D/PFqEMr+581zLi/eoy3iBqEe5580EAAByPHTvU6aVeoj7x/MxeCfBFpFoq3gBG3UZF74peKHfsUjbJ90Uy5nUI7zeghdgCheb/t2LhxYAgIGRaPuadNFckfPEK8HbCzmRBEiKzeLfbk0JcFKL0uztAMfcLGZcvNDLkY2F4jF7i/RceEqIAABANq/Oc7+ym6/5kEqE3yYTbR4PsZWxWXDdgiLfOrn1csGFmLZxh0cqGa4FIdwS+DkBAIBsLl1akKU2PnsFlVBj14AyHwUqPLNc7K4fzM+nwIbH7A1cYCfA8S0TZiJJs/uopCKd3SU8t6leTmEAAPStKLUbhfvDd1LJRcreGGu73z95LhtHIm2up0BiZUbcZ84GOK5Tw7jY1K2V/T4ljaXbPLnoFAEAQHeGXrm0L/WBxiIzZdcVVGp4mosVeU/B6OzNAMeyXOwdSWcvpz4Ra/uScJHmiwQAAJ3jt0Jhyd3psr9RnorL13I9+gBJdWm4xMXleWX7++0W7+9fGjZR9rkyVzRsVipY+qBDAADQOW7KI1x49Q31ofqP+em8+t2FDZBkF4cyn3E1xc7fdvPzOHF5f++SyHTIqYlui1Pzu+SBh0tHEwAAFDv/z730qY/NlaHNtH+yXbo4kDvitS/uM3Op+900wPctikhl75Vla5+UdPsjOgQCAKwsEX4pudmWdfX/SnCi5C19cYDEuziyQ6222XH5Wu654P89i+IYt92lARCr7AHhLofHCAAAOsPJSnCznWy0+R0Qic7u5opyAZLwwji6XJ16l6TvCF3ZL0rtd0VsSewVroMgfPB6nwAAoLMFgMJ98t/SgOEh+QKqCP7jPvN2mhdpkxSw9mATr2ugASPaDugWeBIAAHQ2Dy6sv/4yDaC5FflmNEBSXhizUZo9GGn7bOCiRFORzh6iAeXOb6vkmvCWSgIAgNa4rr0k+Qxy4mFJauq8NTJAki4ozESkzLU0wNx5viK5NiM6X0UAANC2St4GyU2WOwfSgOPyyMWV5PWK7XWVn0sDTvpwyqNaBAAAxWy36rcCQFJDKr+Qt/UFSNoh4mSU2lerMsTNPRGEjZruJwAACD/PyqvlqULWHMjPiFLzcYAE7lnL38RUITyUL+tOadcTAAC0Jlz1/jNVjSvxy2V1AyRySZzgrYNUMfMtqo1gS+QbBAAArYnmuLX9iioqTs1adw2yAEm9s1D2z1ibq6mi3DU4LFggOUoAAND2Bjst6AD4CVVYou1qdx2Oeyf3tpGN18ZnLqMKc9fhV8G120oAANC6Ra6s3nr2LlXcfMe6w/5Jvmns5UZBVHFRavcJrt0uAgCA5moH8nOEw9KvE9DI2PTF/IYaINkvCu7N0OgoCJSkdofgGv5EAADQXO1gfpGw7vxGgoXtfCfjAIm/Edrur8o2vw6nAL6QNGIi+I+9uwuto4jiAH4QRREUUVH8etEHERUrCL74oj6IUEFExPrR7GxiKIiIEW1BxSp+Y0BtESqKYkGh4EvAj7YPVakUMT4opMnOpK1WW239ioRo7szEdU9yn4r3eu+Z2Sa7+//BQEuSu3fnYc/sfJwDANAZV/MTpgF+hGDxZEA5lQTd4wSLlLbvCPrvKAEAQGeDxl4tGwDYdQSUZO75CMG+wyyLfZCAlPGbBP33GwEAQPwBQN3rAPQY/EdUhEDfpS1wTXxqOK4HgAEAAEBk0gGAyvwANZgy/p7IVf06NZtm/mZqMN5wigEAAEBk4hmAzN5HDZUYf0sJ9fy7tbk0c9dRQyXGb8YAAAAgMvEegMzeTw3EVeY4IEcI6v22mUTbVdRASvstGAAAAETGQUU2A+BGqGHSzF4V9bhf/+0QH9ukhkm0f1vQV78SAAB0lk7NXypMVLOBGmR4b36e0vb7CEE8tE0kB/IzqEE4r7+gFsBBAgCAztKp/HzZKQD3JDXE8OH8VE5HGyF4x2q7uDwxNUSq3TZBH+0lAADoOgA4TTgD8Cw1QLsc7ViEoM3tmaJ9HuFzck4+RA3BaZEF2RS/IgAA6J7Jjs+bCwYAo9QAxb2+qiIE7HZ9errb5Ken2o2rGJ9p3HpqgOJed0hmSQgAAP73ATvbfx4Au5VqLtV2WEUI1Glm392Y5ydQ23CWn81r+Sr8s/9JtL+Lao5rIwj6ZowAAKA73l0ueMDuoBpT2q8u7tFHCNIf/Fdhn7VZfkERvPdH+Py/+Ggi1ZjK3E+CVNXvEwAAlPCGVfwN1VQ7N8JshOC88wGTn0wdDJj5SxLtDke4zpFUz19MNcQzJ5KBGNcPIAAAKGWN9QjV0NrJ/Kwob+bGfdvLcb1ksnVl8ft/BF9Pu728v4Bq5t7p/BxhfzxGAADQHa9RSwrVDI/nJ1GNbNyVn8ibxyIE4x+GTH4h9Siddtcr7eZDr8u75XlTJ9UID5BkfWEHCQAAuku0e0nykOXkOFQjqfavqfDgP8NBi/qUZP5OHlRFuH6t3nwHMnejrB/8agIAgO7SzD0secjyWjnVBFf3ixB8W2rK3RCwFPNohO+wUKfgx6ccRDMAU/YaAgCAkh6yNSlTy8GiuJ+/Q4/kpcbfQeEDkU0RBgEznOKZakAZ+5CoD6bziwgAAHpag84FR63WUcUtbTKzB0ODbqrdExTBYuZB4z5S4YOAyTpsChQOiHyTUiUDAIhxhTlxdrsK402MxX18qsKD/7aYm+84PXOi3TcqfBAwtpiAqMIS7bYLklR9RwAA0HO++1b/SwDuY6qwSJv+9hTH/U6hyNqDsp+Dv1/mnqIKU9oeQBpgAIASKe20YKf1PqooZfztwcFVu0Oc0Y9K0t6bMBe8KdC4m6iCOImSJAlQkvk3CQAAeiNcd14o4+23bJw1jzfKBQbWuUTbVVQypf0a3mAY+F2PljlQKcuAaV2Oo5AAACVLjN8sOgo43bqCKqS97r8n+O0/8wN0nBTXezH4+xb3XLXETYn2twlzAKwhAADoTZK5EcnDlqfSqUKK7/yK0nFK+x4v7Xz4HyodnJ74OaqQ1LgNsnu11xIAAPRe/a7u061J5m/l6fTA4P/ZcrxJD07kZyrtp0P3A1Qpd0Nxv29J7pP7igAAoNyjgCqzW6kC+P5S7X4PDKA/Du3Pz6VlwsstEaoU/lKVJDmpcbslGzMJAAB6x+fYlXZ/Ch64E7TCRVv31/a9xLj1PJVetJeV9lu4kBLnASh+/knRdvIMQfH/8WPb0rl+v2+pua+P+dmX/LfcuHFRH/7M1Pg3it9/vfj3C8XvPM3X5qOXSgcXDdq9HLMYgmWPWcEMzXYCAID+qMx9IZlW5sQ1tEJxhb/UuFEVHPxr1ooBDPcNrVBDunWZcHAz+i975xZiVRWH8RU9VUYXH7o+FF3poaISuqqRRD1UVEpgNLPW1uZB0EIMukgXuhJSSHfMDAqsrCgspCQyCnqIxqTGOXvtMctGDSJECefMWmtmd75zdjWJjnPWWufMnHO+H3wMCLVnzt5nrb3+t08QQgipD5xovXKu2s4UkwR6xdHWl2g7J0ldF07Jxd+xsTht2+DNso2FtEgRiXgPkYZEmx6ZuZu6B8yli/ryaWKS8DdnMkoQQgipD6nNYp9FFx0EooHgpCq3lc9JMndzzTHPrUa0IsqkPOpwIfVdlZ9fq8ytqvxchpcD3ItGRw9Uap/zexbNDEEIIaQ+ZGZne5oCrRURgIELLIZxkq/m2bX9oKKtFQ2rCJsZFVW4J324R7hXuGe4d7FMeDw9Gkbu2pIfIwghhNTH/F/zE/za5FzmY3iTpPbqWtTBvaG07a3IRNiYqMnVMO5l7Z6aJUgPwZXQowDQpyC1JAghhHi3XqU+Xvh4eRCHAOOCsdkjfF9UzGsVPt6Wah2NFjMM1qnUPqAyO2u8kzpSDO3ckkoIIVMSLKKexWRzxnrsI1ecpPbRorVtKMImQrWXXC2F4F5D+gBz/w/wP/CoVzCLBSGEED8QtvVc0D9U2rxZ+akjbA5UZ2qwiBB96dkCeIUghBDih8zM5REWcopqtsy83/KjBCGEkCAP9nKEBZmimqleQQghJAyV2e8iLMgU1US5VwUhhBA/urPyWbVJenYwfEGmqOYJ3St4dhcMlM8WhBBCJjxzfXlFm1WEhbhDVa46DaZ29xjDn58wYnciUtr+qIr/DpP3CtfC/RF+r07VDyqzD1c7CwghhBzQZ53ax9CGFWGxbXVhHsGf6FMvUh+fq9S8i5CyTO3TmF0gU3O3ytzc7tRepzJzycLS0JmYe9CMqXOYoYBrVe2MU3MReuhV5m5RqeuW2twjM/uI1PZ5qd0auAiigr72Mme2s5ajqv6KHk9K5fMEIYR0IpWN5Hj0W6Mvn0N4/tWITO01ok3pLtmr8DdG+JzaRX1IE2BOhSCEkHYGnu8w0JHavt+Gp0GndLAT3jOizVGZe0FNgc96islU9HGi3e3oehGEENIuJKX81Foxn9kRYbGcdBWOdOuxYSOKAatahHWDT4OV8Lpoc3p25Ucr7bKwAjtzLyyX/5nuWAzr6WuTF4M9Fa3E3ycIIaQVgYEKxvFicW5VD/xio99YW5BND/wDsIGJA5D9Q2cobf8KuJZNSuYy0SFESAXsW5jlpx/MvRGFdjJz88a+GLRo2mEEzx7+lkZbHRNCSBR6tuXHJdrehwryCItg85SaX1BsJ1O7FBt9PQV1UtvPQq6NCnHRYYSmAlBgKCbIor58Gu4pIgdSm7fh0tdaLwVmh0ztgwv68hMFIYRMNbrS/DSp7bOwTQ1f8BquvSqzXySZfRIV7HJ7frLwRGo3P/B3+b4TT3h4wQp9SZTa3SY8gSVwMmCvhRsg0jnovIjwXDVaiDKtRMRJEELIZKOy4QsK//zhCAtco7QfLm8yMwlCxEhPiAjgRKa0/T0k9C+1uVh0KDKzswNP4oOIOIkY5PkReDaQ6kGUIMIz10jZRJu1qD0RhBDSbKo94Kn9qEVa+FxXfz5dREZlblVg6P8p0eEEpwJS95KIzAJtZ0Z45poipJ9gmCUIIaTR4JSktF3XIhv/2I2iS0QEOWV8BiGjYjuh6r8JqYARNWCvFBFRmV2hIjxzzZTU9hNGBAghDaGrv3wuQqOtVTz1nzB7QEQCOXuMyw2Z9odTpiBjUwGjAfd2S8w6CrycqQjP3CRoFMWRXaXhCwUhhIjgjT+fLjP34lRo5cOceozE9W0dizVkRWmzJLB47RVB/geesZDPFPdERAAjen3z8qjUnyLOlSNKu9XV4lZCCPE55UptFk+B6ujNqNSGM6Aofi+Y03htvAP2BhEIxrZiWEvIbIFohWttBFr1AgdF7Vn4c36SCH65s8s8r79JFGCIT5LZ+yv/1hvh+Q/RPgzgivXiSwjpAJLMXj/JxjwIry9H2kEcBJWatzw92l8WgcjUvR7Wv+7uFOSgYBRuYGRljQhEavuV17VTu/SQRlfaPoQ0RYTvhafcQJK6WwUhhIx7us3MO+ELjodSuxtud2grnEDl+Fzfa4S0AMrUzAisgdiEdjNBxiuu3BCSAw8pCEQEwXeccBGhGheZDp+Pzg+l7c7g74uf1lcnKBJCyFgwclRp+0eERcZr3CmMguoLF9shz9a7Wb594krbb0N6t1mcdXiwkfre20K98/L8SL/vgFnkG7EKGJNtInyP6tFe2DbHmoVBCGlherbmp6ByOMLCUo8GYaQTMtFMafupz7VRbOZ3PaMCe/5XCDIhMMc/5LPGRi48wHRIz2s+EfL9qxlluYEI36t62lC/QURCEEI6E5W6O5o4une06qCXuhtjnD4wsc23CK/e6yel/NjAiX878f8Q5G/2zi1EjiIKw8cXUZ8UFEHwBioIigoBL+hLJAjeEDQGxcSu3jWKig8GRFREjBGMJBjBiCjxhokiEY2oqJj44A0xJg9Jdrt7kyhBITGSe7Jb1e6Yf7YDyTK721t1qrqn53zwvxmndmqqqrvOOf8pBfwRHDsG/jtd33yVtc6yr3TRVxO5OxGqQTMT5aoBS20PqUT3kyAIvcPYBmuWMWwgZTQSJ/o9GAgRI4jX2m6U063BR9zWMQnrHhJsElFbDlo2zRueB20fKLnzOlBFUKzPwwzrr4xW3/tn6wwSBKHZ9KcjlyJmybBplIg1msVoEkSeQEzedxhADbXOddqIE7OW+4DoFYq34ZalNGr6p/Fb+sby4e4N8gTq+IuHzz0M63HKSgEkuZIgCM0kzvK7ce3nvllMKmQ4PxGi1h2fYznGnZ2c43hLDtvS3DcfDiCUcQ464EVZPjdO9UOIPUPtt98svw83I6gEoZqAjHWVmgMO3/+asnF4ZP9X5S1RJgQVJ2aBSs0OhvU5mUYkJCAITWMsg/0Zz/79u9Fvffbm1skUiL4trfNt/6YoyW+eeuPVMxzjsS9TheDhAwcHfOJVavZOJ4Y+1uhJP9Y3NHwRVYi1MU+h+xNzo8fP+KddvRIIrK3CnGsXw3qd9HfLkacjCELFwAVMZfpdhk1hIh1uZ/Rvb51OFYBsZsvErQ88ZoW3PQfQc54Cg89EmZdKzXqGuYWgn3BjgMY9FJii78JGh7FvnKosECY9VRlL2bomjt3cmP0Mc9tZmfmyit+vIAhMILEHB6TzZtBZOfzGqzYWiRP9iG0GNDbSSRz/7nAzNsrnUEDQs0GlZqHnePEu+N2HrmhAaMLl9mqya+0o1VfivwnqKcEE8msKZ8qcYW476fc6hYQEQSgJyqDQPIdhE+ikL/qGRi6jGnCsfIuzRTCudV06wsFOlkJxNLyDvyPAtfAJtxv4zJDJjSrVK13GO9HtRZyZJbZeFnW5JkeoB2Ee53ntrM3SVEgQugi8DXppRIKNP83vpJphax8bpeZrTo+BQqMsdeFlcyAS86PzvEKW3x9HA54yzNvaOs+xLO7pTuEF/KYtjXSWUM2A3z/KEhXD3I7TABJISRCEelMc/hsYFv24Qy1fUddaYbyN2oYxUOZHxzF7R+tUp2zrRH9EAYiz/HZ0RWSYW/eHwqOVBRSAODOLXLoFjjcHQiKo7f+vriVzyMVBaI474Rc3Yj5LegVBcF/8p3C/EUZpvi1KzSyqMYhJW78dZuZZpoxwSIfImkfeQ0C3uDIycab7yDPI2XB5w0Wy6ribnlW2NfMhwx82RIm5AYc2w9wer00hynsFQbCIBSNOyrDIIeg/lZil8/9unUZdABqrWFYDbEcs91gGvUtDpDjNXyXPwCefYW59aBRloOQZPGi4WN8eu8rGQeYQUlhIXQDWLtYw58Micg3aVRWCINSHKDXPK4YFXmgnrFipi0D802FTm8VwuO5DQiJ5BDXgDHPrU6O+bwJw+LiVBebLnR8k0LK6i8DvG70sGOY32IOuIAglQWIeY8xvHZzRqMuASQoeXOw2dP3h/KR1Jg5xziQzTuDUxzjHPmX60vwW8ohjnwCNlsOo1LD89z9TF1LYCn/HML+FtCJBEKqlsDHd7b6gxzzy2xa5XQpa7lr+7cNRmr/t0t7YZ6gEZV4BLJw5tad/8MiF5BFHk6a19g6S+gHqUgpTpVcY5hfaj6ZFJAhCRRyN+8Oxi2ExGzi9UZeDRkcM38W05fPaux3HTc0WxTDOwPrF58MksvAruBE52AR3vCL8oZXz7978IPkAglAR7SYu7pva4SjLb6OGwF0FUUKbfG6C7q2Iq1OUmMfJIyo1HyuGcZYVbomoIaCJER5olPtDwJMkCEJYUO+Lpi2OC3hvnJjrqUFEmY4Vw2ZfXvmt5Ilo6/DFCE+4j7Ey7fdZO452v7i9YhhnKaG0jhpEnJlrGbwkDnZjzpAgdDUqNS85LtxDTdvQACxfvTZJOVHfk0dUalYzjLFaZfmb5BH043ceY0kjnLrX/tvQl+mrXPtHRGn+OgmCEAY04HG0RT2iBs1Maig4dBTDpj+VfFr+Ip+Bs367QmlYFpMnsBZC3JI0+aobLwKOSaZm3sDwJSQIgn/iJH/NMdt/LjWYKNPXKIZNfypDFPJIuyqBYZy1UGKWkkdQ2+88xsllmn7NHWX5bMeOi++TIAh+Kbzq9zocXIupB0ByHsPGP7HhzaCeQZ4owhgHGMZZF+1Ch0XyRNEoaIRhnBNpDfUAjkZYh+vaK0QQGgPe3h280H/zuRHXCZXoRxk2/on0GXkkTnXEMMaayV+ypO9cAGTMUw8AS2wYgdnfLOqHSRAEf8DExPYJHVnT1CMUDYL2KYYDYJxGkThFHlGJ+ZRhnLVSlORvkUeQZ8BR295BaV36/ocgGjhygUMS7XoSBMEPRbOa3DKJaRH1GPAsZzgAxusT8ggOG4bSrPop0X+QZ3wkf4ZocFQ3osQ8Zft9ISmTBEHgB1eRtjHYJjiYTRdkJjO7xY3Gib6CPILbBYZx1lJ4uySPwH6Y+RbgIPw2qMco8ox22D3o5XNIEAR+VGpesOx5/yL1KHFivmI4CCDoc/JMnOTzGMZZU/nNAwAqzVe4j1Pq23ELIJ0CBaFGqNR8a7MofTdmqTPoTKcYDoO2hsx15BmEapzHWVPFiVlAnkGnPy53wGhg5HLqUfq3tc62DDf+SoIg8KNSM2ixIAeol2m1ToKLm3I/ENZRAOJUr2IYa02VL6cAqFS/4z7WMPNdZ3CYW3xvf5EgCPwgll+37OtuAIlczgdCZm6iADCHLGomvZICUPRQyB0tjO+iHgcGThbf3QgJgsBLUaObW1y7Pkc9DkNJ4IZQPvD/s3f+MXYVVRw/BCMEUX5USYM/0AQiEWMMItE/jETiD0JAIGkj1W5n7kKVXyoCKiEiJkKEQAADJSFAGhJCUoIG6l9VaDTW1igJmC777syWhZYWTBtKaWD7Zm65+F3eJnXb192dOXPfve+eT3L+bc/OvDu/zjnfgxar8RttbS15DgUAWe4ejfBze1v0Mg4HujmGjF8bE44FISlqsjw6cDH7OQl4PVkXsSFcTxWhjP8nw0ZbV1tHFaGMuyZCungDCcHtxtVkuZgEQeAFYj4i/btwoOMeWR42VpUYDGLPDBttXS2phgIAuL0rU7wUFwJwZ1LL0dbfHDJ2S8bKD5IgCLxo47bWTba2CSAMEr15VRQThu58tK+1NbeaKkBZl0X7mriNcRNAzkbA2O0hQRD4QSw64IN8c0lZHkktBbdBxHSjNwTjN1fxCpBCza4uVsVrFH7rkO/V8f6+MzJeLqK2UpZH6Ny/FlDpMUGCIPATWiKW5cV51FKUKZYxbAYz43gxJSYz/gbN4GsdLbNulBLD2UgJc0EtRXf8N+qe6CkIrQId7uSjXBhI6NIMm0FV1QCZLS5k8LOWpnL/NUoI4+2/Z26yra9n2vgnAhMobyRBEPhRxn0xVMNe5e7L1DJS6Opjg6aEQIGNuX9BXax75Vh5LCVE2+IHDH7OzgX4LrUM9LtAyXEdD3mC0Fp6N5zdgfHXv6a+vdYNTl34A+y51OOojX+Rwc+62d8oIb1vY5zBz9lhgL9QywiUHIe9g0ZCJAhCGtCgJHwxcz+ilrAyLz+qjZ/SDJtA1U1ttPH3xvtYM7P+ZkqINsWl0T5KTwBCnkZEyOQxEgQhHXjKj2lviha51AKU9b/QDIv/IBqeZNZ/lcHHWlnW2fdZSkRPJXOzZvCzT/Ln/dQCeo2U3godpxW5P5cEQUiLNv75iAVtfOWW8jgaZlDCZAqrGRb/QVVWTDd+YvCzJraJEpLZYimDj4ezN1fuKI+hIQb5Gcr4F2ISJqsokxWE1qNyd3lkPfafhjm7WVl/DsOiP9BNTVt3LYOP9bC8WEGpKMsjsHFF+zj3gW+EhpRe/sRTkRUePyNBENJzy/ryA/EJT271sJ7YpxvBMCz6c5ma8N+hRODGOd39kcHPwZp7JWVjHSg0xvs4zyTaYeT917KHY+cYvUpIEIRqgChN/KJWPJA6o71qEN7Qxr+tGRb9QVcEoJETg4+DtdxdRonAwSKzPo/2cX727tDlz+D1xBb3xY4NxJdIEIQKmT65+3/o6IXNrcaLAg0J6GAWPybzN5UX36NEoKlK/EvP4Cwz/t8pQ03auis0g58L+Ht+R0MC5kXlxUPaRFd3/CflHAuC0Ddrt3sGU6nb08OS5FR9O93CpnziVsZ/s6HCQEXWcWdRIpC0Bq16Bj8XEgbYMQyH5V5r8T/o+DHxbRQYE4TakFn3U4YPefq2dpktP0ENBvXaMRtW8MZg3ZWUkMwUv9cMc1ypJa77V9b/OsK/XW1VBuy1xt4UPb8VzLEgCPOogYZaWfTHDMv9a6hBp4aijL87tMwLugEx47b8hfJDlIheR8ON0fNbna1P+Szck0veGxG2uQhd60Jfy6ihjObubG38qwzzC9s0DK8hgtB4cHPH8yTDRw3roqQnZXJbCnrx8p2hvd+vseVROncvR7yg/IoSknXKk1FrzTC/qc0snyhPooRAmCfCv429BMubQp+9cYumJjGdL+R+rI3fxzC/sF0QDSJBEOoBYnHM2e9rIadLDQG3utguddo4HTFee9VkuZgSovLu6TjkMMxtKnt1ZEv5KUoIMvG18S7UR7S5nf538vLjEWGf66khjI6VJzLF+2esq63/OgmCUC+UKS7Rxu9n+MhnbrVvZMatpAaQGb8mVMEMN6SZzOiYRjzIqqbEaNv9nDZuq2aYX05TpnhJbdl3GiVGG/9khJ9/pgOAIFZw+WcDULa4QBu/TTPM74w1ZT0QhFaC24lm+NBn2do6JwgiIzz49SP3v2EUlinQSpUSM/pieUqtOgZa/y/E5SkxyrqvRFREvIsYOJeWRsreBkQsiX5PRs/rwfZbEgSh3iAezfCxz7Y96CZYx9wAZYplwZvCxL5TZ8dLsaFFbIbPUAWg7SpyFxjmNcqgulhVC1i0FA720/o/9kmufD3s7/a3UN2YFvZxGV7uNMPczvpd30mCIDQDnfsboz/6PpKoiEVTjcALReDtf0OfbnzfitoUbXEhVYSyxfIBSQZvQ94FVQTGNMLX/aMT3c/3+e3cE3igyKlG4CDLVg10sN1OgiA0i8z4Gxg+/kOZh4xw6qS3BSQ5dQPj/z+kPiBeHDE+HVQlUEW8PwbFKiTHMcztXDaljL8DYReqCNzU40IexSPUB4gVBbe/nXBfogGjbfmxnk5El2FuD3Xzv40EQWgm6ByYcGPYi6fQKjeD2UBrPnQjW/ZKeQL1YaTT/UKMOFBm/S+pYpAbgIMAkzrkwXNt/V2DKIHLcn9dhN9vI+N/jhek8aY9i0O5s1fKuIdhbg9l+5tU7SAIQh9W5P5cbfxuhkWhn+2EkE6Vt94DQh3PBlY4rJnHs/ODMRuPGp/6NA0ANVkej4MfwjV4rYn4G9z/bB1a4Q7qkIdXJgg1wR+OJE/mnJntKQWP+gl/YT7wfzN8t/1sKmWPC0EQKgZxe6ifMSwOh7OONsWlVSmE4TYaektHidQ8Fefe4kw8q5rv2/IjvXKw29HzHbHrPhUTUNYbQ814Zv2t2vpvp1Q3nC+ZcY9H/B5fzzrlh+ec587UZ0KrC5T151AF4KCR2WJp6uoPCIrVIbQhCAIzEPbBjU4zLBRz1YRnubsqdYMhnburA338L+LKVSRTjprifKohuEkiBAKrY2UHgGjPzDhy53gcIvHz74H5BasoIaiwQNfDCg7vsI16ovwkCYIwpKBUyLifJEsa+n/biRyBkfFyESXgPfbOJUSOKgrDx526UFAQEdyooCiK+Fj4QA1GF+JKGVGjmaoaCCq4cKfGB7hRFNHgKyLEF4KiCzUuNKMiSnygSUQymalbPQiKeUwYIz7idN2L5fydGhjHeXTfe7qqe/r/4N8NXT1dVfdxzrn/8S3Ug5VsJ53TQix4YS/cCzvpfgPppMDd7ngnkajI5Hf7pgG6sYBC5AbvaZdD/XNC9GNTHSk8QkgNHLEOdpMKg0c7+jM27kVNp7gNk8XxvouYpGHXSAcgHxoYVn1ESEegpqTKyAtqDXxdNDVb4iKthUUz6h4U3rt2NBWl7johhAwWCP/Gaf6WwiDSrixyzBhwFiueqmhSPtDptbHD8w0Rl5qBh72QtptboSZBy/K3g4jSF3U45OF5xDtRevZbhfesXX1Yx6kOQkgPERt3vbZneBv6JTH2MRRgVVsc5jaLB9F489zAwXmbkC73dWjJ4l6JB+iY53nN3eIBjici0lFDl8dD8PTvRuqCENKHIKSOMD3ygQoDTKfnjUejzA0hB9mBMcwhz+N/a/1NV9wzgQ6BNwlZFtyfuixrsRv2TQMgwtPubh//IxY5Fe/257QVCw8hhJAlPAOMwkDjo/2RsU8lmb0Eu5MVvqNXUSIKw0LO1yOFENIuF8fShCxX+DcRcOZ/H4rnZBG6fRoAZkXL9uNv2EtRaIfnR+E98Xv2jLtRCCFkpR02KpC7bB60gvKfMGAmqb184WIA1qeexxNfluB0SR6HRQHsk0IWJUrt/SG/LfoiSPD99e6m+bksYDhrnoOCvoqO8C2lJt4jLjwJIR37jJdpAacwEAX5CqBeIM7yC/C9fHOmKjsg7OZSuz0kR11Fy+B+A66JOC0SsPvfrpHTRijf8zs4vC94RmG6VENef1G3S9hDCyGE+IIJqwoDoXbP1ftW4mvtgiKTnx+4KNqJKIsQmQMV6QG/p8PEK0p49gaApoOfbwVFxn4TZ/ZKIYQQLUaMvaLlL68wSFWtyNiPRBGkIQJ3Zw8KEQBv+8AI0QuiSGsHr/DM1aDv0TZZIxJCCCGLgrx8bOxnCgNWZYI1sSiCYrPAo5NWc9far5T21FMhhaPwsxBFhifsZbHCM1ehxrGIGqq4MREhZICB2xqqphUGsK4LBVmiTGTcDYHfa8egpwLCmv1A7hZRBguKlhGRwnPXVWX2hzhzt3HiJ4TUBnaySZq/Vnex4ArCdxtDUSN2SzAgEgXi1L7LVIAfcL+rO62DyROLwzINsSkx9jt4ASg8b10TFt3o8MhQPyGkZ4DXP/KxsbGHY4WBrutCQWGWv4mjXyiaQpGgp23t7yHHtNZPNM+TAQOeCoEplMPD2czp0iG3N4qTMHmWLY8/wb0Lfo6qkYNtdzKRXySEENKr4DhUktl7cXxPYeCrUtj57WlFM7L8nsjYa5KJ4pQuWsjOaQcMimSAiLP81bDFm72vHavdJLPXwqQnNvkbFTa/0tSBKLWPakWsCCGkEtBzvmbbUy39htAwFgbwbm/tIM3MafP/z9jYLwOv8YAMCKhUD/ytdqN2Yn7OHoWp8Lcv3fZGa3TcUxGeN/w/Qz8XxwghhPQzcaM4FW1xa2g61E0djFP7aZS5Z5H6CHVsQxMbWeWUVf/7Awv/tuAYJkL4/T7RL5j0f01S99wgPAeEkAEEu2Xs1lCM10f516q0a7WfCkA0SOF3Wk1yiFigCHHD3uJYIYSQQQADXpK5dXCB6/ETBJUJlsdR2jwr+rE4eVZHSz9TFEeNjBUnoFgPxWutXLzCb7QqlNlvUTuCehkhhJBBBq1Yoyy/C2FdLgb+o7/R5a7skvc1FktHTi64zVgsoCYhMfkdUepuRktlFC6i7iJK84uHG/mFI42ZM1CvAMFvH/ny5QTv+Lm/x8SNz8Bn4TNRUIdr4Fpxlt+J5j2RsY/HmXspMvad8t7thA9+vY2kela7ZrUxmZg5UwghhPwf7BrLc9lbkRtXGHgpqi6NoSMgJ31CCPFyZXNbFAZiiqpSBxFxEUIIIUE9+F9RGJApqkr9s368OFEIIYT4gzCqwoBMUZUKNRNCCCHED9jz9ro3O7Xq5VuUulEIIYT4EWX2Ks/B9+mkYddgEI6M/SA2dlphIqAGQm4Sro84XQFTnoCuj+8JIYQQP3DMzWfwxaAtC8DRtn7q+kZVIju/SySOQS7R8MmnX8E+IYQQ4p3/f9tn8EXzlHY60g2n9uqWQU2avw6P+T7vWUAtr79m9VVs3PPw2Yc5UbtmS5Gxe32uCQtsIYQQ0jkwlfEYeKd9e6Wj+QqMbzBBYKIom/z8oTD5UNVqKjH249jYJyLjbo2z5tno/R+wEH1fKxJFCCFkBdZlxXE4TuUx8G4TZeZ3nIMDH0yKkCtmGqFW2fIejCKtU96btbBRFmXizD7ktQDI7MNCCCHkX/buJbSuIowD+FfwbcWFovhaiYsiaHUhioroxhe+wBTbmubMSYwS6UIRH1ClC0Vc1AcufGFdqGiJ4sKCYkFbUFApxaCxd2aSWq2I0kZaFE3OjIz50lwogdzc+83cJOec/w8GSqH33nMKZ2bOfI/O5NZdJa2nT4tkaDSsVLa4XBm/9ugk4d88uvP0FlUMk4zDmXEjszvwlzLtHs60v5Mr6y1m46Rc+5uFv3+YAACgM5ku7pPtunwPLQMznQ8b4dy+hrt65jW0dk9wDX9l3K8JJsaqjT+Uds9zg5zc+ttzXVzKMRq0THDTHuF1NQgAADrDOz7JQ5ej/WkZ4+AzZdxkgkmzKuO/MhTNUbrYL6khwHElBAAA7ePucoLX/3/OBAAuc5kpNiaYOIc5NoHT1Ga6/ZliNXfv48yGZue+5lDa9/EZ+THjAU6x5JHr4kH+u2OH0sVA89/yK3c+W+c3Gfz52fjkRc3Ogrl1WxJcx9NUAtzxUHJ9fEREAADQPn4t3HnUtdtFJdFMcYwZfCZOS0RZf8fcIE3J/9fmL8JxVAIc0Ce5Rq4vQAAA0J5BHc6U7bb8G1QSg+PhdGX8WGwkPO/4aZFxEJ4y7khsqt4GHc6jksi0v0d4nc8RAAC0J7PFlcKH7aNUIhsaU5co4/6JnEgn+uzkhbRIOPOBiybFdsvLrL+NSoRf5QvfcnxAAADQntz69ZKHLZ9XU8nwGXz0UYBxI70j4VTqthBWJDq6eJZKhu+v8MhjDwEAQNvn45skE0ufnbqYSkjpYpuKD6Yb7nYAZG7ckyq+Te6XZTn3n0uYwnmEAACgPcr4rZKUq402nEglNFv10CSYXJ+hLlHW3x0Z9MfjUJnr40syU3hwHQECAIC2dlo7BXXX91GJDZipVQkC67oSdd5vi8uUcX9H5/tPV9SjEsuMf0Vy7f26uIIAAKCtJkC/CB60n1LJcQxDgl12kY+56ymRwR/DOcq4Ayr+iOIRKjlli4dk1+7XEgAAtMbnw6ImO9a/TBXAhXESTLYHU2QGDP4WTsmN2x37e3JTvNft+ITF0G/8rcKjmccJAABa4/r5dUgBbNVDIDNuu4pfBOzdsDecEfM7lHEfJvgd3/FCgiqAqy0K78GLBAAA3cm37sbZ91LJG+E0ZdyoMtHpgd9I0wN50lLxk//Ecu/NIDgOkZQDfp8AAGDBc/BbZA9ZdyNVyGy1vcMJJuGPO02747cpCb7XZ2PuJqoQ4fEUj50EAAALBgAq2W63WE0Vw61xZyecyPRA/3onJW9TfOdS9inoJi5hLIgB0AQAAK1xwJRkwuHYAaogZd1TKn43zmMTLYCzB5RxU/HfVbxLFaWM+x7FgAAAuiAz7gVJbfnB3eF4qqIQVvCEGj8pc3phcX+r2IskRw7afZX9FE6iilLG7ZDcl54D4WQCAICWxVbekqS9UYX1jIYTlHafR0/O06/2M+PX0Rzc418Z93vs53Mxpt6xcBZVWGaKdyT3ZmBfOJsAACB5n/wfqOI4pY/PklX8IsBzWV+aNWDD+UoX+xN87gQHLlLF5dZtkdyfFHUZAAAqLdfuE0G62y6qgdmd+qEEk/W/quFu4N369J8bCT5vSll3HdWAtCESl1MmAACYH3eLEzxgP6OayLW7Rhk3mWDS/itBX/9mb/9eqonMuseEWRHXEgAAzI972wveAGynGsmtX5OgZ0CSkWu3mWpE2g+g7I2QAAC6Thk/Lsiz/ohqhtP6VIIJPGZwQFwVavx3IrPFkLAWwxoCAIDEnQB1sY1qiAv8qAQTuXDs4OwEqhmliwFhhsQ6AgCA5AuAt6mGuGEPL34STOadjm+HRsNKqiHuOYEFAABAF4gWAMZvpZriXThnTiSY1Nsdpuq5/guVShYeAawnAABouQD4WbAAeI1qjHfjyrivE0zurQcvzsbCBVRjufZ3yZpV+XsJAACSLwBepZrjQkGJ0vrmGwcHzNQqqrnM+h4sAAAA/mfv3kLkqIIwAFfwrnjFgJIHFUUkgiCaaERRvICCF1CjaHC3T48OvqgPgg9GRUVElAiJiJcXr/igqMGgxKiomGhEEzHmsn3OxkVyUaNR4yW729XJkdrMQrLZnZmtPr0zPfN/UK873bNDV3efOlUFkBsADJ/R6Un8DGPTgQDJfmz8U0nS2QTy+zS4AQAAKICy3e17BCOk5axJ+OcASX800k6b659zFsA9yiLA6wkAAOqOv/0GrYD1bu8bPEUK9QIk/tHYZWx6N8Fo/4X5uhsAvoIAAKDuDcAnigvsagLq6Rs+y1jeHCDpjxcLZdshdbnY8hPKAsrzCAAAJmYSXqwoAnTU5eQJ01jeESDR14t3un2ufZxkz+pqAIZnEgAATCxO0lcVF9hfqYvFNo1krT5Agm8mvjLOT6cupfx9ehm7TAAAMLHYZosUF9ihbutJL+ScZRhPgKQ+2eiTWgPqQsbyElUjoD5/JAEAQPhxq93Wne7hT/2B0gApQDLXxu+mny+gLmMcr1F8V38SAADUJz3TdfPW01nUJaob/dHG8tIASTxv/Cud8aiLSDJXfE9rCQAA6osSvkj1itVmN1AXkGIy6ZUQIHmHit3G8eNzvT+AOlw04I9RfkdLCQAA6qus9ycpL7LzqcNFLrvGWP4rQNIuIj7t9GWY2PEc5SCgFwkAAOqrfusPMpYzxT7rN6hDydO1PGXL03aARD0agybhFQH+zl6RDlRcejZ1qMilsW4LID9EAABQUDtgx2uoA1XW+eMKWO/fHid8oRQSRjZ7KcDf2zt2ysx86kCx4wXKOQA3EgAANFVo9ZbiQssyFpc6yJ7OftnGAEl5n6f0KBk+o/ithNkLc9f5g6mDaN+YVPqHTiMAAGiq3eqDqp0Aji+hDhG7tGIs/5c/Ee8Tq6vr/Yl1htzsCvAZe/e//7pnw9Dp1AHkZkaWTTQ7JdBCGQCgScZl1+m2AvL9VHLVxB8fO37XBEjAY5Lxh42a0Zgku3kkyQX4vH22Ctr0zrI3alIWAEqsJAAAaE60YfBk5cX2MyqxOMmuCjzKtxbpy1JcSU2Q5j7G8rb8n7lfvB8N+BOopEzCjyiXQp4nAACYVB3AJsUFN5OiOSqZaMAfKlPmQr+Cr8VCefpWjBReH+Czx4Q00cluoRLSjKmWKOv5AgC0jHHpK8o91/OoRHr703OM5Q0BkuvY4NimVVK69Sd/rIxmDnAc+4XsPJjn/FFUEtKbQnlztrvMbz0AAFpCtpJp17qpBKpb/eHG8mMFTfHbHlu+nELMG3DZMwGOZ7zYHLvsJioBY/kBOWa0AAYAmAI9iZ+hvOhm7T56NXbZtbIdL0ASHS9+6HVDp1JAtQY4QwGObb+ILX88si2xTUkFv7GZU7anXkQAADB5ksyUbwGepDZUW1tfYgIkzvFCdg8UNXY2cun5xvIWE+A4x4lhqYG47Xt/BLUZ7Y4UCSnqJAAAmDzp76+8+P4ta9jUJu5y/pDaa+SdAZLleJFJ74Sit9pJD4HI8ucBjnei2NRuXfOM5S+V57JNllAIAACUT8z6/vdPUat5P03WuY1lGyA5TphoQqz3T6YuQJ7WA88lGBtfyFRIajH532nPQWonCAAA9GLHy5UX4bTXDZ9JLRL185XG8qoAyXDiSHhFq+odjM2ulmLD3OdQLxx/ECXpLGoB2aUgbyRyLMfMIQAA0JMucjmSyHdzN/nDaKp4P622Zrwyd/KrH7ukzmGkuU8LScMmuUELcD6N4qPehC+jKRRbfjNH8k+KXo4BAOh4UhhmLP+m33Oevl50L3bZ0lfr3b82QLJrFFum8pV/M6OKa7MbOMC5NYpV8j3L900FkvG9+XY2pFUCAID8JMHkbYUriYoCM254pkn46djyHwGSW+NIeLHMCqA2tGeXQNaf+xyb7ijICytJOptC8n5aZPnRnDMXtkrRJwEAQH5S0S+V/Tm3yC2XokKiAK+9E75XJusFSGTNxo4oSe+gNidbECObPVdwgeDYsNJQSdbc5SYv5/yJZQGO5z4CAIBwpPI8wMV5UIazxH3puc2u0UorV1nXjx0vKKg/fqNYJq1oqURMH18a2ezHAOc+2ZCixLclCRvHFxvnpze6YRmp2UjS1wJ1ZPylTC2OAQD+Z++OQasIggAMbyUIFtooWNgp2NoIVoLYaKNCVATj7hlQbBQRK3sLRRHE3spCEdRGGw0BUcHGIiS3lxiihUVQJKCJO4cn47uUPkxu791d3v/BtAnswu6+252ZTtDFWl9lR1ikV0KL2jzVdEHn5Yre29pULut1gx4S9OGZ82E+wv9Zayw6H8519THZhclik83yuzU1OFrd1xMvH5yXCefluc5rL7c/fIrwtzvdhwIAOsP6/JiLsFB3IJ6NzhY7zDrgsrDHenkXYUzaHuNdPawBQCfor/YIi3UrQz+bn/X5YbPOaPEg68NF/TXuIoxTC2NpdGp5lwEA1EfL0WonuQiLdpvip74+rzu9rWnJdLFdWwG34FogamjnSgMAqJ9+Vq6xrv4g47cWnNEX6GaIlPP3KsL4NR+p3DIAgMFJfLCVF+9mY8L5sNcMMW2LrA/0IoxlI6GtjGn4AwAN0Hz8Aeecx4g31stBA7PSb99m+ciAqihGC+vlRRvbFwPA0LBZSJyX3EVY1GuNVF7bND9k8M+DgEvzE4mX95XHuv54ODJZbDAAgGaV6YGLERb22KGP3R67Gdln8N9sJvs1FbKFX3d0Pm/UUVYaAFCtlOt4hEU+Riy4TG7a2eWdBmum4/e3AmQqXyLMScUIc1pd0AAA2kc/IydZuOS8fK++4K86ci3ba9P8JM1g4tK2x0maH9Uyvw1kf/ywXm5T4hcAOsDOFZvLlq5fI2wA/Tf9VF4mPpw/PVNsNaidlhjWQ5b18ki7AkaYwz4NmOQ68woAHdTrHxBceZ+8FGFT0Jh2Pr+n7w70oGHQGL2L77Uhlmtlnf+Fiml931wW7ts0PzLyudhoAADdp4cBzTvXzUKL7zgvU336+Ive+WqxmrJy3dUzqRxgw28/7ZyoHf7Kq6A7zssTfRui2QVJJmnZ0fGtXtckPjzotRLOj4/5X7vJ6QeAIaOHg7GPxbZT88UWvW82AAAAAAAAAAAAAAAAAAAAAAAAAAAAAAAAAAAAAAAAAAAAAAAAAAAAAAAAAAAAAIA/7MGBAAAAAACQ/2sjqKqqqqqqqqqqqqqqqqqqqqqqqqqqqqqqqqqqqqqqqqqqqqqqqqqqqqqqqqqqqqqqqqqqqqqqqqqqqqoq7cGBAAAAAIAgf+sFRqgAAAAAAIARt1M0Kekbpa0AAAAASUVORK5CYII=;fontColor=#000000;fontStyle=1;fontSize=14;" parent="1" vertex="1">
                    <mxGeometry x="220" y="443" width="76.37" height="54" as="geometry"/>
                </mxCell>
                <mxCell id="30" value="&lt;font style=&quot;font-size: 14px;&quot;&gt;Google OAuth 2.0&lt;/font&gt;" style="shape=image;verticalLabelPosition=top;labelBackgroundColor=none;verticalAlign=bottom;aspect=fixed;imageAspect=0;image=data:image/png,iVBORw0KGgoAAAANSUhEUgAAAMgAAADICAYAAACtWK6eAAAhF0lEQVR4nOzdCXhU5b0/8O/vTBaSzEzWCSQBsoAkM0HKIiiBJIpVXCsIaNG6a7W9V3tVQEXEK+6CrdLba+tfrLcVrQpia+tSN5KwiUIQJAtLFiAJkJCZZLJnZn7/J1E0MCGZSWbmPTN5P8+jj85MzvkG8st73nPeJQiSx2VFhmuyYiKTAEoBI+V8g2HkVG3IcBCGAxxPIC0TwgHWg6ElIIRBXX8XwQATADsBNia0EVMrACsDzQA3AXQC4NrNFuvRrfXWaiYcBrgipBPlTx2paRH9vQcaEh3An82I1oZOj9JPIOZx02N1Y2dE6U1gGEEYR6BQX2ZhMINxhEClDtj3Pl9+tAzgg0zKjlVlVUd9mSWQyAJxw6K0pEQwZy9KGT6DSDODiM7+7re+ujH4CIBt+Wbzli/NrfmbLQ2FW83NDtG5/IEskD5kRenCZkTrLrg3ZeTFQYrjYoCMojN5AgMWgL/4ytr58cba2g9XlVcfEp1JrWSB9JAbGUlTo7VpucQzp6UlzQFwMaGrrxC4uPtfvGuLuenvmy2NeZst1u1bzdZm0bnUQhZI16VTasLZD0frF3ZG6ReCkCI6j0jM3FUc768sr1q7zdL80SZzo010JpGGdIEsGZsUel9y4v8owO2is6gRM3aFV1TN05VVl4nOIsqQLJDFyUmjs2J1v5wRpb0FRImi86gac6uD6J1VZUdeWlVes010HF8bUgWyKDUhZ1FK4j2k0FX03XMHyQ3MvH17bePvnj10bN2mhoYhcekV8AVy99gYzeyYUT+bpg1+EETTROcJBAwu32K2rtpkaXrj+bIqi+g83hSwBXJfyqjRD4wxLANrfk4Eneg8gYgBO7PjvefLah5bWVG9R3Qebwi4Alk6UTdiceS4hzs0yh1E8OnT7KGLHQRa+/TBmuW/rThSITqNJwVMgcyI0oXfn5a4aGaUfjEIWtF5hiJmtIVYGldfXlb95BaLtVF0Hk/w+wLJNRhwz6jYX8yM0j5DREmi80jdnfmjm83WJS8eqf9rXm2t6DiD4tcFcn9qYubi1KT/VQg5orNIzpg5b+XBmjtXVVaVis4yUBrRAQZiRrQ2dLUxdcXChLi/EFGa6DxS74goJStGe8eMKJ29qtW27VB7u98NkPS7FuSfqYlZU1MT1xBRhugskuuYsWNl2aEbVlUcKxadxR1+UyCLUpOmLE5NWEGE2QD5Zcs35DFaHexYu/qI+cmn9pf5xd0uvyiQRalJGUvSEncgwEfWDhUMrnz+QM2E5yqrVH+nS/W/id89Z9ysnyfE/Z1AMaKzSJ5BoKjp0drZIcHDPi04YTaLztMX1bYg5+n1ypIxictmRuuWg9RfyJL7GGzZYmm8ae6Off8QneVMVPmDlxWli3lvSsaG5PDQ20FQROeRvINAw0YNG3ZtVrROOWprzats6RQdyYnqWpD7RieNf2Bs4ntEGCM6i+Q7Dodj/dzCfTdutVhVtTKLqgpkw+SMK7OidGvl4MKhycG84+qdpVdssVhVswqLai6x3p007u6Z0fo/E2GY6CySGESUeG1i7IIQVj4usDTWic4DNbQguVotbbgo6Xlbo/5e0VkkdWDmE1tqWy6fu6foS9FZhM6qeyB5+LB7x436k62RbhSZQ1IXAoUrwbZI0TkgsgV5b1L6T7NidK8DNFxUBkmFGK1bLQ1zrtq579+io0BUC7J+YsYlWTHaDQDJ/ob0I5UVB0QUyPrJ6ZfOjNK9C8jOuNSDCosDvr7EendKxqyZUbp/yeKQTqHS4ujis6fUXR3ymZHatbI4pNMp4KfVWBzwVYHkGsLp3nGj/gSiEb44n+Q/iPmDqwpLnhOd40x8UiDvjRr1nOKQt3KlU3UVx5zCkqs3m5vaRWc5E68XyLuTxt3dGa1f5O3zSP7FH4oD3u6kvzcp/cqsaP0GOVxd6slfigPebEHuG52UOT1at1YWh/QDRqvCvNxfigPeakGyonSxGyanb5crjkg/UPGt3L54/EHhuZGRyoZJY9fK4pB+4KfFAW8UyANpI5aRosz29HEDBqMR4OMM1AFUA7AFpFgUu6MNsebvptSZo0LsrAlRFNYzczQIccRkYCAeQBwJH4PtBj8uDnj6EmvdhIwLcwzaj+WyPN0/GA6A9zqYvlxVUbWLgN0A7VtZXnVsMIddOioxoiMIGQAyHh6VNLEziKcyaAqpcT1iPy8OeLJAFqckpi8ek/g5MHR3bGLmcjjow5WVVf+2KZ15Lxys9cneGdOjdEEzonVTZ0RrZ2VF6y8n4FyAxM7lD4DigKcK5J9pCedMSx2ZN9TWrWLmrkuij1eVV33KTPlfVVQX5okO1b2f+4jhcNCMxakJF4E01xDBt0smBUhxwFMFcuzCqR8QcKknjuUvHIx92vCOedp/fvOt6Cx9WZw2QrcoedT/kYK5vjqnwrw87vOvH/fV+bxp0AXyfkrC9HPTRhYMlecdzLwjv8G8+rdlx9/eara2ic7jilyDAVO1wRcuSU26h4mvJHivm+9PDwFdMag/qKwo3bANkzMKiRDwC0kz+IuVZdVPflVe/ZkaLqMGalFqwvjFqSMfBtB16eXRfkqgFQcGWyD1k9KftsXoH/RcHPVh5m2ryqsfWllevVF0Fk9alJI4afGYpGcJuMgTxwvE4sBgCmRJWlLmotTEQgDBno2kDgw+tKWuackL1Sfe8vddkvqyfvJZc2ZGR75AoOSBHiNQiwMDLZDcyEh6+5yz8giU7flIYjHQFlJvXX15+ZEVWyxNzaLz+MKMKF34++dOfMrW2fYfIPceHgdycWCgBbJ+0rhfZMdE/tXzccRhcOfmeutzWxsanl1ZdtQqOo8I96ckGh5OG/nfncS/7vcHg9HaPROwsOS5QC0ODKRApkfpwt+bnF5KRCO9E8n3mLnsK3v1dVfkVQtfqEwN3puYPj8rRv8KCL2vTRVAzzn64/ZdjCVpiQ8EUnE4HLxu7s7SSbI4fjRnV+m6F8pqpjK4xOnNIVQccLcFeWiibsS9sekHAIrwXiQfYdg3WRoffPFE6aq8StFh1CkrShf57pSMtxTgu8GnQ6w44G6B1OdMWW0LVu72XhzfYLB1i7lh4dyd+/8lOovaTY/UBr83edyrRJp5Q6044E6B3G8cnvZA4qhigEK8G8nrjm6zNF36sx3Fu0QH8Re5Wi1NM+iMK8trikRn8TWXC6TjQ82f2r5M+GXbphEA+9OEhB6Yy1/YWXrRUxbrQdFRJP/gUif90ZsQhGBlYdjMYxh23nHvp/KSleXVN8nikNzhUoFkT1bmEL7b9WlYTg1Cp/lfkWyqb1y2sry6QHQOyb+4dK3U+WnQdoCm9nytoyQSLf8aDe5Q/yDezfWNT88tLF0qOofkf/ptQZbdQDmnF0eXkIwG6G7eByWu1WvhBovB5vBWx4IXZHFIA9RvC9L+SfAGhTDnTO9zh4KWD0ehoyja4+EGgxnt2xoaZl+1Y58/j06XBOuzBVl+M40i4Iq+PkMhDkT8rBK6X+yHJkE9Y/s2mxv/UxaHNFh9Fkj2eLqTXBndSUDQqGbobjiA0EniNycNdij/e3Vh6Suic0j+74w97EdvQOgNszWvEZHLe5aTAgSPbYQmqh2dZXrA4fvnJcy846qdJdcebu+w+/zkUsA5409wxydBLxPRHQM9sP1YGJo2pMBhDh1wOHcxw/ri/iOTnjpcI591SB7R6yXWsl8oZw+mOLpohrdCf/M+BJ/lk6Whum01N94ni0PypF4vsT57VbkXbTRzsAenIEaI0QIEOWCr1Hp1twVmfHj/1t33y4G5kic5tSC5U0BsVhZ67AwEhE0/Du3PD4LCbR477Km46YWyml/JW1aSpzkVSI6J0ogw4An8ZxKc0gTt/DKA2NOHhgP0t6crjsjGQ/I45xYkBV5biCEoqQUR88pBoZ67wcTMtlUHqn7vsQNKUg/OLUiOxqtLVIac1QjdLaXQxHtmiEpIkP3lVZXVuz1yMEk6zSkFkjOBwjy1kFhfNNEd0N24D2EXVYHCOwd+IOamldsPPObJbJLU06kF8hM6H0RhvjgxBTOGnVML/a37oEka2BCVzWbrC09ZrP439l7yG6fcd+38WLMaGt/POWc7ofXzBLR/He/61zAa5+4sSd1isdZ7NZw0pJ3aB9HQT0WEIA0j/KJqRPysAgh2rQMfYm58SRaH5G0/FMjyG2gEMxlFhgnJtEB/035oYvrdVaDzcXOzvHMled0PBcLA+WrYHFJjaOueiBWcceYhKuzgd35bcaTKp8GkIenHFuRmJUtslB9RqAPauRUIm1UFKM4PFldWVL8sJJg05PzYgjhINQVy0rBza6FdeAAU8eOtYGYu/cpRLUeVSD7RXSDZE2gYQBNEh+lN8Ohm6G8tRdCopu7/39JgfVMuFSr5SneBnD+RJhCpdyMcRWuDduFBhF1Rie2hNetE55GGju7ptAycJTpIf0jDGHa2edvT93buFZ3Fm2Y92eT50ZxSv8o+e3JaxedPf3X669+1IGdjrJBUbnIAT4nOIAUoptTeXu4ukJxJSqbPA7mN94f+tPN90SmkwBSZNtPU2+vf38WiXt9UFTt/LDqCFLhiUrN73cpcyZ0ABaz+PsiK1/lz0RmkgNZrDSjZP1FGEkHVe35w1xUiO/JF55ACGPXeD1cISPN9GvcQ8/4Vr+OE6BxS4CKQPmXWQ7Gnv97VB/H4/HNPY6KvRWeQhgSnWlByJyJRTBbX5RfavhGdQRoKnHdvVnInaJLEhHFd3m4acnvjSQIwOzUWCsCuT+MTp1R0ACnwRaVkjTj9NYUBp46JmjDDnv+No0J0DinwxYy5wHD6a0pX711MHNcQsSVvNwax9IkkuYjgVAsKg7Vi0riGWd7elXyE2blACFB1gQA4JjqANGREnv5CVx8kQkwWl8mVSySfYPRyiQWiYWLiuIYIVtEZpCHD6WpKAbuwB6FADKh3n2kp0DitKqqcnFWoWkze2lREkk5F5LRfYJ+73ErSkMLstC5DV4Go+zc0sbpbOClwkHODofoCoV6uCyXJK9h5E00F4H4XwhWJGS7v0y5Jg+S0crpCwMA25/CdGNEBpKGBQM4FwkCTmDguIgwXHUEaGhjcfvprCoFUXSDEiBOdQRoaCNRx+msKgxvFxHENg6Jyf6LeZVGlwHGGFkTdo2WJoORMUHpd9U6SPIrIqT+uAOQPm2COEx1AGgLY+WpKydttV/1OTbkT2Q+WRpUCQMPpLyh5u1AtJovrciZoVLl3iRRoyGlqhQKC6rejIWCq6AxS4GPY605/TWFGmZg4rmOisctvlLd7Je+q/OyZ2tNfUwoKHUcYcLq9pSbUvfqoki06hxTgyLm7oeR9CwcY+8Ukct3yG2iW6AxSYGOQc4F8/5b6Vy4kukR0BCnQ8eHTX+kukPxdDvXv+0c0tv2T4DmiY0gBitlurth06PSXuwtk424cFBLKTQrjIdEZpEBF5oayAqexWN2z9QjYJySTG2xM+Hdn0tRp19jHbn/70AHRebyFmVU9gW2giEjlM0O51wfm3aE3fsN7HgE6CeocFFjrGIZljVOw2xZLjem11wGHVojO5C1fLNOp8u9gMFJmLZ2QduFSVW9hwWdYIL37EqtgN7eBWZXfwM6OWNxszukqju7/15nirjeYnNYYllSMgMmiM/THUr6p16uoHyapE/FWnybqBwN4vWUM7mmcjnr+cW07IhoXbIw9X2g4yS0psx46T3SG/ljK83u9UfVDgaz4i2OzTxP1oZmDsLRxKv7Qkgl7LysTJcw33ikkmDQgBKj+IS8De3p7vUcLgjz2aaTeldl0uMWSg40dCX18SpmXON/otF2WpD7Jsx5MYILK9+Fni6W84Mx9kC4r/o+PEot9YPjvtkTcZsnGYXvfC84TIVh7V9zdPgsmDVhq8gWXkfNqOqrCTK9byjf1evfw1OsXDX/mq1A9dTLh+abxeLTpHLS5uBKqvtbwK60xTq54onI0Jusq0Rn6xAzF4fjTmd4+pUAe+zN/6JNQPRy3D8OvG2ZgXZub27UT6RIXGO/zVi5p8CaevywKwMWic/Tj4GfL9d+e6c1TCiRvN28EuMUXqdpYgzdbx+BmSy6+tQ2sIdCbDL/RXnqO08aLkjoEpWZfQ70sCK0yW/p685QCKfiGW5nxibcTHbZH4HZLNlY3Z8LMg/nzI+2YW0c+6sFokgfpxmTdLjpDf8ocW/q8e+t0DzX/kGODNwPlt4/ovkt10O6ZvUODbcodCVdnyCm5KpN6wdJpRKT+maAbN27s622nAsnbyAXeyrKnMxoPWqei2XmV+YEj0iReY/qN5w4oeULaRUuvEZ3BBS0V2SF97sHv3ILs5nIGPL4v+VcdcVjSOK23BbQHjRjXJMyZkOLxA0sDEp08M9jh4Pmic7hgBx57rM8POLcg34Ap0v6mpxIwA6+1nIX/apwOy6D6G30g0iZdO/aPSE72zvEltyT/dOlNRKT6v4z6soKP+/tMrztMPfZ7vOGJAFZHMJZYp+FPLUY4vP2wiGj2uBuTf+ndk0j9iUydGRadmr1cdA5XWMryB1YgT/zF8S0z/jiYk++z6bs745s6fHcXVmcyPD98vnGsz04oOUmbtfQ+IholOke/GFXmsi07+vvYGfcofPK1zv9i5gEtKvevtlH4pSUbVQ7fbsFOBO3Ieca3tCaD2u+9B6SU85eNjk7L8YtZn8T29xsq+x9+eMYCeWwt2vN2O15156QdrOCZpgl4omkS2qFx50s9hogmpz8060UhJx/KcnORctGDfwDg29+KA3Twi2fWu/K5Pne5LfiGX2YX9jDsKsNdnbG4s2EG/t4m/mYSBdvuHLc8Rw6J96GJY5fcrABXiM7hCgbXNlTkf+HKZ/sskBV/4cPswPt9faaFNVjeOAW/apiBElu0u1m9Rm8yrD5rWY5cS8sHRs5eNjYmLWe16BwuI806c9lmp+3WeuPCdRBXnz9RuaW3dyrsWvymIQs7bapcFVQzLD78qujrx1bUbmvfiwanhbslD4hMnRk2fs5LH/nDbd2Tyj978r8s5QVOa2D1ps8WpMsTf+UCMG8//fXP2hJwmyUH5XY1b0JLUWHtIX8bd9PoZ0QnCUS5uY/SxNv/9f+IaJLoLK5i5gPNRzf3OUCxp34LBN2jfO3PnvxvGxNebDZhWdM5aPGTPf71pvgHxj2S/YjoHIEkKnVmknLx4i0aaK4XncUdlvKCV2uL8lz+vEsFUrCT/85ga9d//7HFiL+1jv1uprEf0WfGr0iYZ5SLPXjI5Ns+eIEA1S/GcDpz+aYP3Pm8SwXy2FrY7Tb87ZXmdLzROmbA4URLWmB6TferuLNE5/B3k2774GaArhadw13MKKuv3Nzr4gxn4lKBdDG+MubJNa3p7d4YbOhDyeNycjaNXXqh6tdpUquJt35wU1Ra9isgcvlnRy0sFfkvNR7Mc7jzNS5/kxXrSivZFnTGubv+gojiI8+OzEtfln2l6Cz+ZuJtH9wdPSb7VQKJeQo8OM3lti1r3P0it77RptawwrifRN4FohB3T6QmRBQSYgi/RmcytCt1LZtban0yy9hvxYzNpYy5Lz0bk5bzBIH88hIiyKG8vPd3s9919+vcKpCOA9XNWlNcSGh8hN93dolICY2P+Kk+N3mCtaj2o47aFlXvsiVKVMpM/aTbP3g7LDrlVtFZBooB24FPH7++oWKT2d2vdfu3gdYYF56+PLeUCAGzcBszl3cW1123e0X+NtFZ1CR11kOTUmctfQtEfn1jw2F3vL5xuf6GgXyt29eSHXUtnXqT4XhofITf3cU4EyKK1sSF36zNjBs2LCb8a2tJ3ZBuTbTjYxXjnFcXJUy6bW1Xn010nkFhtpdtfOa6hvICpx1sXTGgzpZS17InMmf0BUQkfmSip3RdchkisnWZhnt1v46L6vi6dWtHbYvThiqBLmFBxvjUO6dtCBp1/Nag1vQgxR4lOtIg8Ru71lz28kC/ekAF0tWpZYW3603xdwz0GKpFFBTaEpEVmzP6Bl2m4ajNYtnbfizwG5SE+y+5MOOeCS/qjPEriZAMTQs6dZtB9khoOvzz9yADnRVfPLnAUu5+3+OkAf9wNxXV1WqNcWGh8RGqX7l7IIgoMtQQMS82O/USBpc1FdWVi87kDQnzMiZlPJrzqj4p5HEQpRP1+JkgB2wRhXAE1SOodTzIz34X2oOUl755+dK1gznGoG7ZaY1xoenLcwqJyDiY4/gDZmysXr/3qZrakk/g+lAe1UqYl3Fu0nzjQwzlZ+TC6tJKWzLCj90NxeYvmxdxw85XLj3LUr6pdjBHGfQ97cTfZ5ybGGfaDPLLh0duY+bClm/rVx/esPetpqLaVtF53KE1GUJHLRw7P2Js4n+AMN3dryd7BIYdvwvBLepfp6++PP/+Xa9c9tvBHscjD32mvHn1P4nock8cy28wHwixh87f8os3Vbl13ekmr7tqsmLTvAXQ4Ba1YAURVY9C067ifokD5oOfPjmyMu/pQT8B9shvfYKjVJcZfz0Av37C7haiGDvZb09YYDqPmON1mYZOa3NEjZomZiVenTli+ALjdal3TXlGcShPgWjwM9uIYQsvhKY9FYoqJ8qxdbQ9ZHbea7M9svihx4YNJMw3npU0z/Q5AugBotuYKx0Kf1jzdsm/iZBXva643len1o5LIN2EKCNGJ2cnTo2YRcBUECcDXhpUyAqCm85FaP08VfVLzGX5vylcc5nHpv96dFyN8eELLog4O/oT+OdgNg9jBxglTLStunZvIW2kPcy8r+ZESc1gO/kJ841xxBgDgnH4AlOmwpgI8BQC+XxRgO/6JXciuOUnvj61E2bevuvVK6aby9wbsdsXjw88G/dI9sP6zPgnPH3cQMHMVhBqwagjohpmNoNhIQS1hyn2jrqkakd4TUIQMYfCoUQA0IM4hpmiCRzNhJEEUtfSOkwIMV+JYea57gwQ92wEcFvlJ09MKdv4rEe3EfR4gYSdHUPGh3L/qSjKZZ4+tqRumpbxCD92F8jh+3UKzGUFDxSuufQ5Tx/X45dCtuOtaCqq+yguN3leV0fW08eX1IuDj6NT+yWC2s6CYvfd1Z6DeWPRe7++q91c6fGNmr3SV+ioa2m1Bdk/jcwYfgMIchnQoUTT+v0QFX33nS5vY+YTuw48O7vhi7965fah1zrTzXtP1Gkz4/aEGsKv9dqdFEmduoeo7IIjuBZBLWd7cYgKc0NZwTXlf76z30WoB8qrd5tO5B3arzXG1YXGRwyth4hSN0foYdjCdyGoJRPk6Hvv+4EwlxU8XfjqZYPahaA/Xr8deyL/0Fc6oyEsND5iprfPJakPBzV2X3IpHUnQdCZ47rgO/njfuv+4vbXB8/2OnnzyvKL9aMdnceePTAbRRF+cT1IZpRM23TYw2aBpTQcN9lYwc2nhq5deYq4o8PpYOJ8USMeJJpAj6CNdZsytIFLzWqWSF9nD9sGm/RrBzeeBeOCjkso/f/rGo4Vrz7j5vyf5rPNctWFPe2PxsesZ8KsRsJJnOUKq0ZzwDBzBxwZ4BPpr09HNH3o41hn5dEjIibzDFVpj3Feh8RHzCfDgXtCSP/muX7IJSkeiW/0SZv5k55pLrq3fX+CxoST98fmYqfr8Qwf1GbHbQ+O18yGLZOgiG2zaL8HUiaBWY7+DOph5W+Gay65oKN/U5rOMouaTn8g/VKY1GbaGGMIvJsg+yZBFXf2S/bCF7UNQywTQGbYJZ+ZvCtdcdrGlvKDR1xGFjbo9kVdZrtiD/ifSGJ/ECvvN/hKS53FwHTq126BpGwPFHtvzHQb4rcI1ly20lG/y2dSBnoQOS7eWHLc3HTzyj+CrteGhLREzRGaRBFPavh+iEg5N+5juJx3msoJfbV01fmmb5ZCwtWGFz9toP9aOE3859Ik2I642xBAxmwZ9k1zyW8SwReyGPbimo+nbllsK11z+Z+GRRAfoKf2RnMu1JsMbRNCLziIJwtzauLfu5/ueyP+H6ChQQwvS04n8yv0ah+YfEZmxFxNRrOg8ks/VWovrLt33eP5nooOcpKoW5CSdMS4qfXnOGyC6VHQWyUeYi0rz86+0vlRXJjpKT6pqQU7qqGtpM+879kZYnLYzJC4iR/ZLAhuz4x+ljxdc3vRh3VHRWU6nyhakp4xHsnO1mfFrASSJziJ5FjPbrUW1/31kfcmTLUW1Xh2VO1CqLxB8v6RQ4nzTTgI8P6lAEobZ8diOhRv+W3SOvqjyEut0TUV19Qx8pDcZEgEeK2co+jmGzVp0/NHyl79+ouN4qypbjpP8ogXpKXG18bwEg3ENEZlEZ5HcxHAw8ac1tUWPVN9dsl10HFf4XYF00WXEhSYuMD2iy4xbApAc8OgHmHl/Z3HtrbtXFGwSncUdflkgJyXNN5pGzM/4A0Hx+01FAxUzdzYV1z1f/U7RCmtxnd/NBfLrAumWnIxxN4++TpcR/2wgbSwaCNjBeVXri//z6Ppin8z+8wb/L5Dv6UyGsIT5xvt1prglcgi9WMxc3lxa+2DJnw+9jcpK0XEGJWAK5CTdZecMN92e+JCtI/hOAoaJzjOUMFBnLTr+dPU7xX9oKg6MnYIDrkBOMlw7blTynPFLmeg6ghz86E3MMFuLa39bs654tbWo1ueTmrwpYAvkJMMCkyZodPIVieeEPUhE54nOEyiYuxoM3tNUVPtG9bril6zFdQFVGCcFfIH0lDAvY2bSAtM9YJoLQpDoPP6ImVvYoXm95t09L9SsLykWncfbhlSBnDTi6sxR+szYO/SmuFtAJO98uYCZi5uK6l6uXlf0mrW4ziI6j68MyQI5ybDAFDJ6bsbvSKFfi86iVszcScDSr0veXYXHRKfxvSFdICclzMvI1JniF+pMcQuJKE10HuG6R0fxjoai439rKal7s+qdkirRkUSRBdKDwWRAsDEulXM5OzHeNAeMi4lUtt2ZlzCjhghbrXuPb7EW1W2oXl+sqolLosgC6YPOGBemMxnOH77AeJECzCYmU6D8iTHQAmBL07fHPrOWnPi4cbdlV9O+GlWPrBUhQP66fSNxQcYIOCg74dr0GbBrZgA8gYj8Ym94Bh8BY3tTyfFt1r0nNlu/rd1hLQmMh3neJAtkELTG2BCdKf5sIoyLMA4fqzfFmkBsJEY6iHz/FJ+5g4EKAKUMPtS0p6HCuq9mNzF/U72+ZKCrRQ9pskC8QDs+VtGlGxJBlApGCpKTRyZOC48HYziA4QSKYPB3WzwDWgJCvl+nOIhBRICdATvAbQC6/mkC0EJACwP1BNQ7FD5e807JUTBqABzq+qe59Pjhxm9P2EV//4Hk/wcAAP//s7aJ+PB0N9cAAAAASUVORK5CYII=;fillColor=#FFFFFF;strokeColor=#F0F0F0;fontColor=#080808;html=1;fontStyle=1;align=center;labelPosition=center;labelBorderColor=none;" parent="1" vertex="1">
                    <mxGeometry x="228.18" y="310" width="60" height="60" as="geometry"/>
                </mxCell>
                <mxCell id="35" style="edgeStyle=none;html=1;entryX=0.5;entryY=1;entryDx=0;entryDy=0;strokeColor=#000000;fontColor=#000000;startArrow=block;startFill=1;fillColor=#000000;exitX=0.5;exitY=0;exitDx=0;exitDy=0;" parent="1" source="28" target="30" edge="1">
                    <mxGeometry relative="1" as="geometry">
                        <mxPoint x="306.3699999999999" y="480.089334076034" as="sourcePoint"/>
                        <mxPoint x="411.80500000000006" y="480.336" as="targetPoint"/>
                    </mxGeometry>
                </mxCell>
            </root>
        </mxGraphModel>
    </diagram>
</mxfile>